G04 #@! TF.GenerationSoftware,KiCad,Pcbnew,(6.0.0-rc1-dev-332-g00d912f0b)*
G04 #@! TF.CreationDate,2018-09-23T23:35:21+02:00*
G04 #@! TF.ProjectId,xilwatch2,78696C7761746368322E6B696361645F,rev?*
G04 #@! TF.SameCoordinates,Original*
G04 #@! TF.FileFunction,Soldermask,Bot*
G04 #@! TF.FilePolarity,Negative*
%FSLAX46Y46*%
G04 Gerber Fmt 4.6, Leading zero omitted, Abs format (unit mm)*
G04 Created by KiCad (PCBNEW (6.0.0-rc1-dev-332-g00d912f0b)) date 09/23/18 23:35:21*
%MOMM*%
%LPD*%
G01*
G04 APERTURE LIST*
%ADD10C,2.020000*%
%ADD11O,2.020000X2.020000*%
%ADD12R,3.020000X1.120000*%
%ADD13C,1.844000*%
%ADD14C,0.100000*%
%ADD15C,1.195000*%
%ADD16R,1.220000X1.120000*%
%ADD17R,1.120000X1.220000*%
%ADD18R,0.820000X0.820000*%
%ADD19R,1.220000X1.520000*%
%ADD20R,2.220000X1.820000*%
%ADD21C,1.770000*%
%ADD22R,1.670000X0.720000*%
%ADD23O,2.220000X1.520000*%
%ADD24R,2.220000X1.520000*%
%ADD25R,1.420000X1.070000*%
%ADD26R,0.920000X0.920000*%
%ADD27R,0.920000X1.370000*%
%ADD28C,0.970000*%
%ADD29C,15.320000*%
%ADD30R,2.820000X5.420000*%
%ADD31R,2.320000X3.320000*%
%ADD32R,0.620000X1.570000*%
G04 APERTURE END LIST*
D10*
G04 #@! TO.C,X1*
X178470000Y-65880000D03*
D11*
X178470000Y-68420000D03*
X175930000Y-65880000D03*
X175930000Y-68420000D03*
G04 #@! TD*
D12*
G04 #@! TO.C,L1*
X175800000Y-93500000D03*
X175800000Y-95700000D03*
G04 #@! TD*
D13*
G04 #@! TO.C,M1*
X149026181Y-99863127D03*
D14*
G36*
X150251451Y-99417165D02*
X149472143Y-101088397D01*
X147800911Y-100309089D01*
X148580219Y-98637857D01*
X150251451Y-99417165D01*
X150251451Y-99417165D01*
G37*
D13*
X147304196Y-99060152D03*
D14*
G36*
X148529466Y-98614190D02*
X147750158Y-100285422D01*
X146078926Y-99506114D01*
X146858234Y-97834882D01*
X148529466Y-98614190D01*
X148529466Y-98614190D01*
G37*
G04 #@! TD*
G04 #@! TO.C,R4*
G36*
X177265533Y-89616439D02*
X177294533Y-89620740D01*
X177322973Y-89627864D01*
X177350577Y-89637741D01*
X177377080Y-89650276D01*
X177402227Y-89665348D01*
X177425775Y-89682813D01*
X177447498Y-89702502D01*
X177467187Y-89724225D01*
X177484652Y-89747773D01*
X177499724Y-89772920D01*
X177512259Y-89799423D01*
X177522136Y-89827027D01*
X177529260Y-89855467D01*
X177533561Y-89884467D01*
X177535000Y-89913750D01*
X177535000Y-90511250D01*
X177533561Y-90540533D01*
X177529260Y-90569533D01*
X177522136Y-90597973D01*
X177512259Y-90625577D01*
X177499724Y-90652080D01*
X177484652Y-90677227D01*
X177467187Y-90700775D01*
X177447498Y-90722498D01*
X177425775Y-90742187D01*
X177402227Y-90759652D01*
X177377080Y-90774724D01*
X177350577Y-90787259D01*
X177322973Y-90797136D01*
X177294533Y-90804260D01*
X177265533Y-90808561D01*
X177236250Y-90810000D01*
X176563750Y-90810000D01*
X176534467Y-90808561D01*
X176505467Y-90804260D01*
X176477027Y-90797136D01*
X176449423Y-90787259D01*
X176422920Y-90774724D01*
X176397773Y-90759652D01*
X176374225Y-90742187D01*
X176352502Y-90722498D01*
X176332813Y-90700775D01*
X176315348Y-90677227D01*
X176300276Y-90652080D01*
X176287741Y-90625577D01*
X176277864Y-90597973D01*
X176270740Y-90569533D01*
X176266439Y-90540533D01*
X176265000Y-90511250D01*
X176265000Y-89913750D01*
X176266439Y-89884467D01*
X176270740Y-89855467D01*
X176277864Y-89827027D01*
X176287741Y-89799423D01*
X176300276Y-89772920D01*
X176315348Y-89747773D01*
X176332813Y-89724225D01*
X176352502Y-89702502D01*
X176374225Y-89682813D01*
X176397773Y-89665348D01*
X176422920Y-89650276D01*
X176449423Y-89637741D01*
X176477027Y-89627864D01*
X176505467Y-89620740D01*
X176534467Y-89616439D01*
X176563750Y-89615000D01*
X177236250Y-89615000D01*
X177265533Y-89616439D01*
X177265533Y-89616439D01*
G37*
D15*
X176900000Y-90212500D03*
D14*
G36*
X177265533Y-91191439D02*
X177294533Y-91195740D01*
X177322973Y-91202864D01*
X177350577Y-91212741D01*
X177377080Y-91225276D01*
X177402227Y-91240348D01*
X177425775Y-91257813D01*
X177447498Y-91277502D01*
X177467187Y-91299225D01*
X177484652Y-91322773D01*
X177499724Y-91347920D01*
X177512259Y-91374423D01*
X177522136Y-91402027D01*
X177529260Y-91430467D01*
X177533561Y-91459467D01*
X177535000Y-91488750D01*
X177535000Y-92086250D01*
X177533561Y-92115533D01*
X177529260Y-92144533D01*
X177522136Y-92172973D01*
X177512259Y-92200577D01*
X177499724Y-92227080D01*
X177484652Y-92252227D01*
X177467187Y-92275775D01*
X177447498Y-92297498D01*
X177425775Y-92317187D01*
X177402227Y-92334652D01*
X177377080Y-92349724D01*
X177350577Y-92362259D01*
X177322973Y-92372136D01*
X177294533Y-92379260D01*
X177265533Y-92383561D01*
X177236250Y-92385000D01*
X176563750Y-92385000D01*
X176534467Y-92383561D01*
X176505467Y-92379260D01*
X176477027Y-92372136D01*
X176449423Y-92362259D01*
X176422920Y-92349724D01*
X176397773Y-92334652D01*
X176374225Y-92317187D01*
X176352502Y-92297498D01*
X176332813Y-92275775D01*
X176315348Y-92252227D01*
X176300276Y-92227080D01*
X176287741Y-92200577D01*
X176277864Y-92172973D01*
X176270740Y-92144533D01*
X176266439Y-92115533D01*
X176265000Y-92086250D01*
X176265000Y-91488750D01*
X176266439Y-91459467D01*
X176270740Y-91430467D01*
X176277864Y-91402027D01*
X176287741Y-91374423D01*
X176300276Y-91347920D01*
X176315348Y-91322773D01*
X176332813Y-91299225D01*
X176352502Y-91277502D01*
X176374225Y-91257813D01*
X176397773Y-91240348D01*
X176422920Y-91225276D01*
X176449423Y-91212741D01*
X176477027Y-91202864D01*
X176505467Y-91195740D01*
X176534467Y-91191439D01*
X176563750Y-91190000D01*
X177236250Y-91190000D01*
X177265533Y-91191439D01*
X177265533Y-91191439D01*
G37*
D15*
X176900000Y-91787500D03*
G04 #@! TD*
D14*
G04 #@! TO.C,R3*
G36*
X175415533Y-87666439D02*
X175444533Y-87670740D01*
X175472973Y-87677864D01*
X175500577Y-87687741D01*
X175527080Y-87700276D01*
X175552227Y-87715348D01*
X175575775Y-87732813D01*
X175597498Y-87752502D01*
X175617187Y-87774225D01*
X175634652Y-87797773D01*
X175649724Y-87822920D01*
X175662259Y-87849423D01*
X175672136Y-87877027D01*
X175679260Y-87905467D01*
X175683561Y-87934467D01*
X175685000Y-87963750D01*
X175685000Y-88636250D01*
X175683561Y-88665533D01*
X175679260Y-88694533D01*
X175672136Y-88722973D01*
X175662259Y-88750577D01*
X175649724Y-88777080D01*
X175634652Y-88802227D01*
X175617187Y-88825775D01*
X175597498Y-88847498D01*
X175575775Y-88867187D01*
X175552227Y-88884652D01*
X175527080Y-88899724D01*
X175500577Y-88912259D01*
X175472973Y-88922136D01*
X175444533Y-88929260D01*
X175415533Y-88933561D01*
X175386250Y-88935000D01*
X174788750Y-88935000D01*
X174759467Y-88933561D01*
X174730467Y-88929260D01*
X174702027Y-88922136D01*
X174674423Y-88912259D01*
X174647920Y-88899724D01*
X174622773Y-88884652D01*
X174599225Y-88867187D01*
X174577502Y-88847498D01*
X174557813Y-88825775D01*
X174540348Y-88802227D01*
X174525276Y-88777080D01*
X174512741Y-88750577D01*
X174502864Y-88722973D01*
X174495740Y-88694533D01*
X174491439Y-88665533D01*
X174490000Y-88636250D01*
X174490000Y-87963750D01*
X174491439Y-87934467D01*
X174495740Y-87905467D01*
X174502864Y-87877027D01*
X174512741Y-87849423D01*
X174525276Y-87822920D01*
X174540348Y-87797773D01*
X174557813Y-87774225D01*
X174577502Y-87752502D01*
X174599225Y-87732813D01*
X174622773Y-87715348D01*
X174647920Y-87700276D01*
X174674423Y-87687741D01*
X174702027Y-87677864D01*
X174730467Y-87670740D01*
X174759467Y-87666439D01*
X174788750Y-87665000D01*
X175386250Y-87665000D01*
X175415533Y-87666439D01*
X175415533Y-87666439D01*
G37*
D15*
X175087500Y-88300000D03*
D14*
G36*
X173840533Y-87666439D02*
X173869533Y-87670740D01*
X173897973Y-87677864D01*
X173925577Y-87687741D01*
X173952080Y-87700276D01*
X173977227Y-87715348D01*
X174000775Y-87732813D01*
X174022498Y-87752502D01*
X174042187Y-87774225D01*
X174059652Y-87797773D01*
X174074724Y-87822920D01*
X174087259Y-87849423D01*
X174097136Y-87877027D01*
X174104260Y-87905467D01*
X174108561Y-87934467D01*
X174110000Y-87963750D01*
X174110000Y-88636250D01*
X174108561Y-88665533D01*
X174104260Y-88694533D01*
X174097136Y-88722973D01*
X174087259Y-88750577D01*
X174074724Y-88777080D01*
X174059652Y-88802227D01*
X174042187Y-88825775D01*
X174022498Y-88847498D01*
X174000775Y-88867187D01*
X173977227Y-88884652D01*
X173952080Y-88899724D01*
X173925577Y-88912259D01*
X173897973Y-88922136D01*
X173869533Y-88929260D01*
X173840533Y-88933561D01*
X173811250Y-88935000D01*
X173213750Y-88935000D01*
X173184467Y-88933561D01*
X173155467Y-88929260D01*
X173127027Y-88922136D01*
X173099423Y-88912259D01*
X173072920Y-88899724D01*
X173047773Y-88884652D01*
X173024225Y-88867187D01*
X173002502Y-88847498D01*
X172982813Y-88825775D01*
X172965348Y-88802227D01*
X172950276Y-88777080D01*
X172937741Y-88750577D01*
X172927864Y-88722973D01*
X172920740Y-88694533D01*
X172916439Y-88665533D01*
X172915000Y-88636250D01*
X172915000Y-87963750D01*
X172916439Y-87934467D01*
X172920740Y-87905467D01*
X172927864Y-87877027D01*
X172937741Y-87849423D01*
X172950276Y-87822920D01*
X172965348Y-87797773D01*
X172982813Y-87774225D01*
X173002502Y-87752502D01*
X173024225Y-87732813D01*
X173047773Y-87715348D01*
X173072920Y-87700276D01*
X173099423Y-87687741D01*
X173127027Y-87677864D01*
X173155467Y-87670740D01*
X173184467Y-87666439D01*
X173213750Y-87665000D01*
X173811250Y-87665000D01*
X173840533Y-87666439D01*
X173840533Y-87666439D01*
G37*
D15*
X173512500Y-88300000D03*
G04 #@! TD*
D16*
G04 #@! TO.C,U1*
X152800000Y-73416046D03*
X152800000Y-71516046D03*
X154800000Y-72466046D03*
G04 #@! TD*
D17*
G04 #@! TO.C,Q2*
X151300000Y-101500000D03*
X150350000Y-103500000D03*
X152250000Y-103500000D03*
G04 #@! TD*
G04 #@! TO.C,Q1*
X173350000Y-89900000D03*
X175250000Y-89900000D03*
X174300000Y-91900000D03*
G04 #@! TD*
D18*
G04 #@! TO.C,D2*
X152000000Y-75000000D03*
X152000000Y-77200000D03*
G04 #@! TD*
G04 #@! TO.C,D1*
X154900000Y-69666046D03*
X152700000Y-69666046D03*
G04 #@! TD*
D19*
G04 #@! TO.C,D5*
X178550000Y-99400000D03*
X181850000Y-99400000D03*
G04 #@! TD*
G04 #@! TO.C,D4*
X178550000Y-97000000D03*
X181850000Y-97000000D03*
G04 #@! TD*
G04 #@! TO.C,D3*
X181850000Y-92900000D03*
X178550000Y-92900000D03*
G04 #@! TD*
D20*
G04 #@! TO.C,J1*
X146862500Y-73600000D03*
D21*
X149562500Y-77100000D03*
D22*
X149562500Y-75250000D03*
X149562500Y-75900000D03*
X149562500Y-73300000D03*
X149562500Y-73950000D03*
X149562500Y-74600000D03*
D21*
X149562500Y-72100000D03*
D20*
X146862500Y-75600000D03*
D23*
X146862500Y-78100000D03*
X146862500Y-71100000D03*
D24*
X146862500Y-71700000D03*
X146862500Y-77500000D03*
G04 #@! TD*
D14*
G04 #@! TO.C,C8*
G36*
X165565533Y-89616439D02*
X165594533Y-89620740D01*
X165622973Y-89627864D01*
X165650577Y-89637741D01*
X165677080Y-89650276D01*
X165702227Y-89665348D01*
X165725775Y-89682813D01*
X165747498Y-89702502D01*
X165767187Y-89724225D01*
X165784652Y-89747773D01*
X165799724Y-89772920D01*
X165812259Y-89799423D01*
X165822136Y-89827027D01*
X165829260Y-89855467D01*
X165833561Y-89884467D01*
X165835000Y-89913750D01*
X165835000Y-90511250D01*
X165833561Y-90540533D01*
X165829260Y-90569533D01*
X165822136Y-90597973D01*
X165812259Y-90625577D01*
X165799724Y-90652080D01*
X165784652Y-90677227D01*
X165767187Y-90700775D01*
X165747498Y-90722498D01*
X165725775Y-90742187D01*
X165702227Y-90759652D01*
X165677080Y-90774724D01*
X165650577Y-90787259D01*
X165622973Y-90797136D01*
X165594533Y-90804260D01*
X165565533Y-90808561D01*
X165536250Y-90810000D01*
X164863750Y-90810000D01*
X164834467Y-90808561D01*
X164805467Y-90804260D01*
X164777027Y-90797136D01*
X164749423Y-90787259D01*
X164722920Y-90774724D01*
X164697773Y-90759652D01*
X164674225Y-90742187D01*
X164652502Y-90722498D01*
X164632813Y-90700775D01*
X164615348Y-90677227D01*
X164600276Y-90652080D01*
X164587741Y-90625577D01*
X164577864Y-90597973D01*
X164570740Y-90569533D01*
X164566439Y-90540533D01*
X164565000Y-90511250D01*
X164565000Y-89913750D01*
X164566439Y-89884467D01*
X164570740Y-89855467D01*
X164577864Y-89827027D01*
X164587741Y-89799423D01*
X164600276Y-89772920D01*
X164615348Y-89747773D01*
X164632813Y-89724225D01*
X164652502Y-89702502D01*
X164674225Y-89682813D01*
X164697773Y-89665348D01*
X164722920Y-89650276D01*
X164749423Y-89637741D01*
X164777027Y-89627864D01*
X164805467Y-89620740D01*
X164834467Y-89616439D01*
X164863750Y-89615000D01*
X165536250Y-89615000D01*
X165565533Y-89616439D01*
X165565533Y-89616439D01*
G37*
D15*
X165200000Y-90212500D03*
D14*
G36*
X165565533Y-91191439D02*
X165594533Y-91195740D01*
X165622973Y-91202864D01*
X165650577Y-91212741D01*
X165677080Y-91225276D01*
X165702227Y-91240348D01*
X165725775Y-91257813D01*
X165747498Y-91277502D01*
X165767187Y-91299225D01*
X165784652Y-91322773D01*
X165799724Y-91347920D01*
X165812259Y-91374423D01*
X165822136Y-91402027D01*
X165829260Y-91430467D01*
X165833561Y-91459467D01*
X165835000Y-91488750D01*
X165835000Y-92086250D01*
X165833561Y-92115533D01*
X165829260Y-92144533D01*
X165822136Y-92172973D01*
X165812259Y-92200577D01*
X165799724Y-92227080D01*
X165784652Y-92252227D01*
X165767187Y-92275775D01*
X165747498Y-92297498D01*
X165725775Y-92317187D01*
X165702227Y-92334652D01*
X165677080Y-92349724D01*
X165650577Y-92362259D01*
X165622973Y-92372136D01*
X165594533Y-92379260D01*
X165565533Y-92383561D01*
X165536250Y-92385000D01*
X164863750Y-92385000D01*
X164834467Y-92383561D01*
X164805467Y-92379260D01*
X164777027Y-92372136D01*
X164749423Y-92362259D01*
X164722920Y-92349724D01*
X164697773Y-92334652D01*
X164674225Y-92317187D01*
X164652502Y-92297498D01*
X164632813Y-92275775D01*
X164615348Y-92252227D01*
X164600276Y-92227080D01*
X164587741Y-92200577D01*
X164577864Y-92172973D01*
X164570740Y-92144533D01*
X164566439Y-92115533D01*
X164565000Y-92086250D01*
X164565000Y-91488750D01*
X164566439Y-91459467D01*
X164570740Y-91430467D01*
X164577864Y-91402027D01*
X164587741Y-91374423D01*
X164600276Y-91347920D01*
X164615348Y-91322773D01*
X164632813Y-91299225D01*
X164652502Y-91277502D01*
X164674225Y-91257813D01*
X164697773Y-91240348D01*
X164722920Y-91225276D01*
X164749423Y-91212741D01*
X164777027Y-91202864D01*
X164805467Y-91195740D01*
X164834467Y-91191439D01*
X164863750Y-91190000D01*
X165536250Y-91190000D01*
X165565533Y-91191439D01*
X165565533Y-91191439D01*
G37*
D15*
X165200000Y-91787500D03*
G04 #@! TD*
D14*
G04 #@! TO.C,C10*
G36*
X160765533Y-91191439D02*
X160794533Y-91195740D01*
X160822973Y-91202864D01*
X160850577Y-91212741D01*
X160877080Y-91225276D01*
X160902227Y-91240348D01*
X160925775Y-91257813D01*
X160947498Y-91277502D01*
X160967187Y-91299225D01*
X160984652Y-91322773D01*
X160999724Y-91347920D01*
X161012259Y-91374423D01*
X161022136Y-91402027D01*
X161029260Y-91430467D01*
X161033561Y-91459467D01*
X161035000Y-91488750D01*
X161035000Y-92086250D01*
X161033561Y-92115533D01*
X161029260Y-92144533D01*
X161022136Y-92172973D01*
X161012259Y-92200577D01*
X160999724Y-92227080D01*
X160984652Y-92252227D01*
X160967187Y-92275775D01*
X160947498Y-92297498D01*
X160925775Y-92317187D01*
X160902227Y-92334652D01*
X160877080Y-92349724D01*
X160850577Y-92362259D01*
X160822973Y-92372136D01*
X160794533Y-92379260D01*
X160765533Y-92383561D01*
X160736250Y-92385000D01*
X160063750Y-92385000D01*
X160034467Y-92383561D01*
X160005467Y-92379260D01*
X159977027Y-92372136D01*
X159949423Y-92362259D01*
X159922920Y-92349724D01*
X159897773Y-92334652D01*
X159874225Y-92317187D01*
X159852502Y-92297498D01*
X159832813Y-92275775D01*
X159815348Y-92252227D01*
X159800276Y-92227080D01*
X159787741Y-92200577D01*
X159777864Y-92172973D01*
X159770740Y-92144533D01*
X159766439Y-92115533D01*
X159765000Y-92086250D01*
X159765000Y-91488750D01*
X159766439Y-91459467D01*
X159770740Y-91430467D01*
X159777864Y-91402027D01*
X159787741Y-91374423D01*
X159800276Y-91347920D01*
X159815348Y-91322773D01*
X159832813Y-91299225D01*
X159852502Y-91277502D01*
X159874225Y-91257813D01*
X159897773Y-91240348D01*
X159922920Y-91225276D01*
X159949423Y-91212741D01*
X159977027Y-91202864D01*
X160005467Y-91195740D01*
X160034467Y-91191439D01*
X160063750Y-91190000D01*
X160736250Y-91190000D01*
X160765533Y-91191439D01*
X160765533Y-91191439D01*
G37*
D15*
X160400000Y-91787500D03*
D14*
G36*
X160765533Y-89616439D02*
X160794533Y-89620740D01*
X160822973Y-89627864D01*
X160850577Y-89637741D01*
X160877080Y-89650276D01*
X160902227Y-89665348D01*
X160925775Y-89682813D01*
X160947498Y-89702502D01*
X160967187Y-89724225D01*
X160984652Y-89747773D01*
X160999724Y-89772920D01*
X161012259Y-89799423D01*
X161022136Y-89827027D01*
X161029260Y-89855467D01*
X161033561Y-89884467D01*
X161035000Y-89913750D01*
X161035000Y-90511250D01*
X161033561Y-90540533D01*
X161029260Y-90569533D01*
X161022136Y-90597973D01*
X161012259Y-90625577D01*
X160999724Y-90652080D01*
X160984652Y-90677227D01*
X160967187Y-90700775D01*
X160947498Y-90722498D01*
X160925775Y-90742187D01*
X160902227Y-90759652D01*
X160877080Y-90774724D01*
X160850577Y-90787259D01*
X160822973Y-90797136D01*
X160794533Y-90804260D01*
X160765533Y-90808561D01*
X160736250Y-90810000D01*
X160063750Y-90810000D01*
X160034467Y-90808561D01*
X160005467Y-90804260D01*
X159977027Y-90797136D01*
X159949423Y-90787259D01*
X159922920Y-90774724D01*
X159897773Y-90759652D01*
X159874225Y-90742187D01*
X159852502Y-90722498D01*
X159832813Y-90700775D01*
X159815348Y-90677227D01*
X159800276Y-90652080D01*
X159787741Y-90625577D01*
X159777864Y-90597973D01*
X159770740Y-90569533D01*
X159766439Y-90540533D01*
X159765000Y-90511250D01*
X159765000Y-89913750D01*
X159766439Y-89884467D01*
X159770740Y-89855467D01*
X159777864Y-89827027D01*
X159787741Y-89799423D01*
X159800276Y-89772920D01*
X159815348Y-89747773D01*
X159832813Y-89724225D01*
X159852502Y-89702502D01*
X159874225Y-89682813D01*
X159897773Y-89665348D01*
X159922920Y-89650276D01*
X159949423Y-89637741D01*
X159977027Y-89627864D01*
X160005467Y-89620740D01*
X160034467Y-89616439D01*
X160063750Y-89615000D01*
X160736250Y-89615000D01*
X160765533Y-89616439D01*
X160765533Y-89616439D01*
G37*
D15*
X160400000Y-90212500D03*
G04 #@! TD*
D14*
G04 #@! TO.C,C1*
G36*
X149740533Y-68266439D02*
X149769533Y-68270740D01*
X149797973Y-68277864D01*
X149825577Y-68287741D01*
X149852080Y-68300276D01*
X149877227Y-68315348D01*
X149900775Y-68332813D01*
X149922498Y-68352502D01*
X149942187Y-68374225D01*
X149959652Y-68397773D01*
X149974724Y-68422920D01*
X149987259Y-68449423D01*
X149997136Y-68477027D01*
X150004260Y-68505467D01*
X150008561Y-68534467D01*
X150010000Y-68563750D01*
X150010000Y-69236250D01*
X150008561Y-69265533D01*
X150004260Y-69294533D01*
X149997136Y-69322973D01*
X149987259Y-69350577D01*
X149974724Y-69377080D01*
X149959652Y-69402227D01*
X149942187Y-69425775D01*
X149922498Y-69447498D01*
X149900775Y-69467187D01*
X149877227Y-69484652D01*
X149852080Y-69499724D01*
X149825577Y-69512259D01*
X149797973Y-69522136D01*
X149769533Y-69529260D01*
X149740533Y-69533561D01*
X149711250Y-69535000D01*
X149113750Y-69535000D01*
X149084467Y-69533561D01*
X149055467Y-69529260D01*
X149027027Y-69522136D01*
X148999423Y-69512259D01*
X148972920Y-69499724D01*
X148947773Y-69484652D01*
X148924225Y-69467187D01*
X148902502Y-69447498D01*
X148882813Y-69425775D01*
X148865348Y-69402227D01*
X148850276Y-69377080D01*
X148837741Y-69350577D01*
X148827864Y-69322973D01*
X148820740Y-69294533D01*
X148816439Y-69265533D01*
X148815000Y-69236250D01*
X148815000Y-68563750D01*
X148816439Y-68534467D01*
X148820740Y-68505467D01*
X148827864Y-68477027D01*
X148837741Y-68449423D01*
X148850276Y-68422920D01*
X148865348Y-68397773D01*
X148882813Y-68374225D01*
X148902502Y-68352502D01*
X148924225Y-68332813D01*
X148947773Y-68315348D01*
X148972920Y-68300276D01*
X148999423Y-68287741D01*
X149027027Y-68277864D01*
X149055467Y-68270740D01*
X149084467Y-68266439D01*
X149113750Y-68265000D01*
X149711250Y-68265000D01*
X149740533Y-68266439D01*
X149740533Y-68266439D01*
G37*
D15*
X149412500Y-68900000D03*
D14*
G36*
X151315533Y-68266439D02*
X151344533Y-68270740D01*
X151372973Y-68277864D01*
X151400577Y-68287741D01*
X151427080Y-68300276D01*
X151452227Y-68315348D01*
X151475775Y-68332813D01*
X151497498Y-68352502D01*
X151517187Y-68374225D01*
X151534652Y-68397773D01*
X151549724Y-68422920D01*
X151562259Y-68449423D01*
X151572136Y-68477027D01*
X151579260Y-68505467D01*
X151583561Y-68534467D01*
X151585000Y-68563750D01*
X151585000Y-69236250D01*
X151583561Y-69265533D01*
X151579260Y-69294533D01*
X151572136Y-69322973D01*
X151562259Y-69350577D01*
X151549724Y-69377080D01*
X151534652Y-69402227D01*
X151517187Y-69425775D01*
X151497498Y-69447498D01*
X151475775Y-69467187D01*
X151452227Y-69484652D01*
X151427080Y-69499724D01*
X151400577Y-69512259D01*
X151372973Y-69522136D01*
X151344533Y-69529260D01*
X151315533Y-69533561D01*
X151286250Y-69535000D01*
X150688750Y-69535000D01*
X150659467Y-69533561D01*
X150630467Y-69529260D01*
X150602027Y-69522136D01*
X150574423Y-69512259D01*
X150547920Y-69499724D01*
X150522773Y-69484652D01*
X150499225Y-69467187D01*
X150477502Y-69447498D01*
X150457813Y-69425775D01*
X150440348Y-69402227D01*
X150425276Y-69377080D01*
X150412741Y-69350577D01*
X150402864Y-69322973D01*
X150395740Y-69294533D01*
X150391439Y-69265533D01*
X150390000Y-69236250D01*
X150390000Y-68563750D01*
X150391439Y-68534467D01*
X150395740Y-68505467D01*
X150402864Y-68477027D01*
X150412741Y-68449423D01*
X150425276Y-68422920D01*
X150440348Y-68397773D01*
X150457813Y-68374225D01*
X150477502Y-68352502D01*
X150499225Y-68332813D01*
X150522773Y-68315348D01*
X150547920Y-68300276D01*
X150574423Y-68287741D01*
X150602027Y-68277864D01*
X150630467Y-68270740D01*
X150659467Y-68266439D01*
X150688750Y-68265000D01*
X151286250Y-68265000D01*
X151315533Y-68266439D01*
X151315533Y-68266439D01*
G37*
D15*
X150987500Y-68900000D03*
G04 #@! TD*
D14*
G04 #@! TO.C,C2*
G36*
X149740533Y-66666439D02*
X149769533Y-66670740D01*
X149797973Y-66677864D01*
X149825577Y-66687741D01*
X149852080Y-66700276D01*
X149877227Y-66715348D01*
X149900775Y-66732813D01*
X149922498Y-66752502D01*
X149942187Y-66774225D01*
X149959652Y-66797773D01*
X149974724Y-66822920D01*
X149987259Y-66849423D01*
X149997136Y-66877027D01*
X150004260Y-66905467D01*
X150008561Y-66934467D01*
X150010000Y-66963750D01*
X150010000Y-67636250D01*
X150008561Y-67665533D01*
X150004260Y-67694533D01*
X149997136Y-67722973D01*
X149987259Y-67750577D01*
X149974724Y-67777080D01*
X149959652Y-67802227D01*
X149942187Y-67825775D01*
X149922498Y-67847498D01*
X149900775Y-67867187D01*
X149877227Y-67884652D01*
X149852080Y-67899724D01*
X149825577Y-67912259D01*
X149797973Y-67922136D01*
X149769533Y-67929260D01*
X149740533Y-67933561D01*
X149711250Y-67935000D01*
X149113750Y-67935000D01*
X149084467Y-67933561D01*
X149055467Y-67929260D01*
X149027027Y-67922136D01*
X148999423Y-67912259D01*
X148972920Y-67899724D01*
X148947773Y-67884652D01*
X148924225Y-67867187D01*
X148902502Y-67847498D01*
X148882813Y-67825775D01*
X148865348Y-67802227D01*
X148850276Y-67777080D01*
X148837741Y-67750577D01*
X148827864Y-67722973D01*
X148820740Y-67694533D01*
X148816439Y-67665533D01*
X148815000Y-67636250D01*
X148815000Y-66963750D01*
X148816439Y-66934467D01*
X148820740Y-66905467D01*
X148827864Y-66877027D01*
X148837741Y-66849423D01*
X148850276Y-66822920D01*
X148865348Y-66797773D01*
X148882813Y-66774225D01*
X148902502Y-66752502D01*
X148924225Y-66732813D01*
X148947773Y-66715348D01*
X148972920Y-66700276D01*
X148999423Y-66687741D01*
X149027027Y-66677864D01*
X149055467Y-66670740D01*
X149084467Y-66666439D01*
X149113750Y-66665000D01*
X149711250Y-66665000D01*
X149740533Y-66666439D01*
X149740533Y-66666439D01*
G37*
D15*
X149412500Y-67300000D03*
D14*
G36*
X151315533Y-66666439D02*
X151344533Y-66670740D01*
X151372973Y-66677864D01*
X151400577Y-66687741D01*
X151427080Y-66700276D01*
X151452227Y-66715348D01*
X151475775Y-66732813D01*
X151497498Y-66752502D01*
X151517187Y-66774225D01*
X151534652Y-66797773D01*
X151549724Y-66822920D01*
X151562259Y-66849423D01*
X151572136Y-66877027D01*
X151579260Y-66905467D01*
X151583561Y-66934467D01*
X151585000Y-66963750D01*
X151585000Y-67636250D01*
X151583561Y-67665533D01*
X151579260Y-67694533D01*
X151572136Y-67722973D01*
X151562259Y-67750577D01*
X151549724Y-67777080D01*
X151534652Y-67802227D01*
X151517187Y-67825775D01*
X151497498Y-67847498D01*
X151475775Y-67867187D01*
X151452227Y-67884652D01*
X151427080Y-67899724D01*
X151400577Y-67912259D01*
X151372973Y-67922136D01*
X151344533Y-67929260D01*
X151315533Y-67933561D01*
X151286250Y-67935000D01*
X150688750Y-67935000D01*
X150659467Y-67933561D01*
X150630467Y-67929260D01*
X150602027Y-67922136D01*
X150574423Y-67912259D01*
X150547920Y-67899724D01*
X150522773Y-67884652D01*
X150499225Y-67867187D01*
X150477502Y-67847498D01*
X150457813Y-67825775D01*
X150440348Y-67802227D01*
X150425276Y-67777080D01*
X150412741Y-67750577D01*
X150402864Y-67722973D01*
X150395740Y-67694533D01*
X150391439Y-67665533D01*
X150390000Y-67636250D01*
X150390000Y-66963750D01*
X150391439Y-66934467D01*
X150395740Y-66905467D01*
X150402864Y-66877027D01*
X150412741Y-66849423D01*
X150425276Y-66822920D01*
X150440348Y-66797773D01*
X150457813Y-66774225D01*
X150477502Y-66752502D01*
X150499225Y-66732813D01*
X150522773Y-66715348D01*
X150547920Y-66700276D01*
X150574423Y-66687741D01*
X150602027Y-66677864D01*
X150630467Y-66670740D01*
X150659467Y-66666439D01*
X150688750Y-66665000D01*
X151286250Y-66665000D01*
X151315533Y-66666439D01*
X151315533Y-66666439D01*
G37*
D15*
X150987500Y-67300000D03*
G04 #@! TD*
D14*
G04 #@! TO.C,C3*
G36*
X176915533Y-96666439D02*
X176944533Y-96670740D01*
X176972973Y-96677864D01*
X177000577Y-96687741D01*
X177027080Y-96700276D01*
X177052227Y-96715348D01*
X177075775Y-96732813D01*
X177097498Y-96752502D01*
X177117187Y-96774225D01*
X177134652Y-96797773D01*
X177149724Y-96822920D01*
X177162259Y-96849423D01*
X177172136Y-96877027D01*
X177179260Y-96905467D01*
X177183561Y-96934467D01*
X177185000Y-96963750D01*
X177185000Y-97636250D01*
X177183561Y-97665533D01*
X177179260Y-97694533D01*
X177172136Y-97722973D01*
X177162259Y-97750577D01*
X177149724Y-97777080D01*
X177134652Y-97802227D01*
X177117187Y-97825775D01*
X177097498Y-97847498D01*
X177075775Y-97867187D01*
X177052227Y-97884652D01*
X177027080Y-97899724D01*
X177000577Y-97912259D01*
X176972973Y-97922136D01*
X176944533Y-97929260D01*
X176915533Y-97933561D01*
X176886250Y-97935000D01*
X176288750Y-97935000D01*
X176259467Y-97933561D01*
X176230467Y-97929260D01*
X176202027Y-97922136D01*
X176174423Y-97912259D01*
X176147920Y-97899724D01*
X176122773Y-97884652D01*
X176099225Y-97867187D01*
X176077502Y-97847498D01*
X176057813Y-97825775D01*
X176040348Y-97802227D01*
X176025276Y-97777080D01*
X176012741Y-97750577D01*
X176002864Y-97722973D01*
X175995740Y-97694533D01*
X175991439Y-97665533D01*
X175990000Y-97636250D01*
X175990000Y-96963750D01*
X175991439Y-96934467D01*
X175995740Y-96905467D01*
X176002864Y-96877027D01*
X176012741Y-96849423D01*
X176025276Y-96822920D01*
X176040348Y-96797773D01*
X176057813Y-96774225D01*
X176077502Y-96752502D01*
X176099225Y-96732813D01*
X176122773Y-96715348D01*
X176147920Y-96700276D01*
X176174423Y-96687741D01*
X176202027Y-96677864D01*
X176230467Y-96670740D01*
X176259467Y-96666439D01*
X176288750Y-96665000D01*
X176886250Y-96665000D01*
X176915533Y-96666439D01*
X176915533Y-96666439D01*
G37*
D15*
X176587500Y-97300000D03*
D14*
G36*
X175340533Y-96666439D02*
X175369533Y-96670740D01*
X175397973Y-96677864D01*
X175425577Y-96687741D01*
X175452080Y-96700276D01*
X175477227Y-96715348D01*
X175500775Y-96732813D01*
X175522498Y-96752502D01*
X175542187Y-96774225D01*
X175559652Y-96797773D01*
X175574724Y-96822920D01*
X175587259Y-96849423D01*
X175597136Y-96877027D01*
X175604260Y-96905467D01*
X175608561Y-96934467D01*
X175610000Y-96963750D01*
X175610000Y-97636250D01*
X175608561Y-97665533D01*
X175604260Y-97694533D01*
X175597136Y-97722973D01*
X175587259Y-97750577D01*
X175574724Y-97777080D01*
X175559652Y-97802227D01*
X175542187Y-97825775D01*
X175522498Y-97847498D01*
X175500775Y-97867187D01*
X175477227Y-97884652D01*
X175452080Y-97899724D01*
X175425577Y-97912259D01*
X175397973Y-97922136D01*
X175369533Y-97929260D01*
X175340533Y-97933561D01*
X175311250Y-97935000D01*
X174713750Y-97935000D01*
X174684467Y-97933561D01*
X174655467Y-97929260D01*
X174627027Y-97922136D01*
X174599423Y-97912259D01*
X174572920Y-97899724D01*
X174547773Y-97884652D01*
X174524225Y-97867187D01*
X174502502Y-97847498D01*
X174482813Y-97825775D01*
X174465348Y-97802227D01*
X174450276Y-97777080D01*
X174437741Y-97750577D01*
X174427864Y-97722973D01*
X174420740Y-97694533D01*
X174416439Y-97665533D01*
X174415000Y-97636250D01*
X174415000Y-96963750D01*
X174416439Y-96934467D01*
X174420740Y-96905467D01*
X174427864Y-96877027D01*
X174437741Y-96849423D01*
X174450276Y-96822920D01*
X174465348Y-96797773D01*
X174482813Y-96774225D01*
X174502502Y-96752502D01*
X174524225Y-96732813D01*
X174547773Y-96715348D01*
X174572920Y-96700276D01*
X174599423Y-96687741D01*
X174627027Y-96677864D01*
X174655467Y-96670740D01*
X174684467Y-96666439D01*
X174713750Y-96665000D01*
X175311250Y-96665000D01*
X175340533Y-96666439D01*
X175340533Y-96666439D01*
G37*
D15*
X175012500Y-97300000D03*
G04 #@! TD*
D14*
G04 #@! TO.C,C7*
G36*
X179740533Y-94266439D02*
X179769533Y-94270740D01*
X179797973Y-94277864D01*
X179825577Y-94287741D01*
X179852080Y-94300276D01*
X179877227Y-94315348D01*
X179900775Y-94332813D01*
X179922498Y-94352502D01*
X179942187Y-94374225D01*
X179959652Y-94397773D01*
X179974724Y-94422920D01*
X179987259Y-94449423D01*
X179997136Y-94477027D01*
X180004260Y-94505467D01*
X180008561Y-94534467D01*
X180010000Y-94563750D01*
X180010000Y-95236250D01*
X180008561Y-95265533D01*
X180004260Y-95294533D01*
X179997136Y-95322973D01*
X179987259Y-95350577D01*
X179974724Y-95377080D01*
X179959652Y-95402227D01*
X179942187Y-95425775D01*
X179922498Y-95447498D01*
X179900775Y-95467187D01*
X179877227Y-95484652D01*
X179852080Y-95499724D01*
X179825577Y-95512259D01*
X179797973Y-95522136D01*
X179769533Y-95529260D01*
X179740533Y-95533561D01*
X179711250Y-95535000D01*
X179113750Y-95535000D01*
X179084467Y-95533561D01*
X179055467Y-95529260D01*
X179027027Y-95522136D01*
X178999423Y-95512259D01*
X178972920Y-95499724D01*
X178947773Y-95484652D01*
X178924225Y-95467187D01*
X178902502Y-95447498D01*
X178882813Y-95425775D01*
X178865348Y-95402227D01*
X178850276Y-95377080D01*
X178837741Y-95350577D01*
X178827864Y-95322973D01*
X178820740Y-95294533D01*
X178816439Y-95265533D01*
X178815000Y-95236250D01*
X178815000Y-94563750D01*
X178816439Y-94534467D01*
X178820740Y-94505467D01*
X178827864Y-94477027D01*
X178837741Y-94449423D01*
X178850276Y-94422920D01*
X178865348Y-94397773D01*
X178882813Y-94374225D01*
X178902502Y-94352502D01*
X178924225Y-94332813D01*
X178947773Y-94315348D01*
X178972920Y-94300276D01*
X178999423Y-94287741D01*
X179027027Y-94277864D01*
X179055467Y-94270740D01*
X179084467Y-94266439D01*
X179113750Y-94265000D01*
X179711250Y-94265000D01*
X179740533Y-94266439D01*
X179740533Y-94266439D01*
G37*
D15*
X179412500Y-94900000D03*
D14*
G36*
X181315533Y-94266439D02*
X181344533Y-94270740D01*
X181372973Y-94277864D01*
X181400577Y-94287741D01*
X181427080Y-94300276D01*
X181452227Y-94315348D01*
X181475775Y-94332813D01*
X181497498Y-94352502D01*
X181517187Y-94374225D01*
X181534652Y-94397773D01*
X181549724Y-94422920D01*
X181562259Y-94449423D01*
X181572136Y-94477027D01*
X181579260Y-94505467D01*
X181583561Y-94534467D01*
X181585000Y-94563750D01*
X181585000Y-95236250D01*
X181583561Y-95265533D01*
X181579260Y-95294533D01*
X181572136Y-95322973D01*
X181562259Y-95350577D01*
X181549724Y-95377080D01*
X181534652Y-95402227D01*
X181517187Y-95425775D01*
X181497498Y-95447498D01*
X181475775Y-95467187D01*
X181452227Y-95484652D01*
X181427080Y-95499724D01*
X181400577Y-95512259D01*
X181372973Y-95522136D01*
X181344533Y-95529260D01*
X181315533Y-95533561D01*
X181286250Y-95535000D01*
X180688750Y-95535000D01*
X180659467Y-95533561D01*
X180630467Y-95529260D01*
X180602027Y-95522136D01*
X180574423Y-95512259D01*
X180547920Y-95499724D01*
X180522773Y-95484652D01*
X180499225Y-95467187D01*
X180477502Y-95447498D01*
X180457813Y-95425775D01*
X180440348Y-95402227D01*
X180425276Y-95377080D01*
X180412741Y-95350577D01*
X180402864Y-95322973D01*
X180395740Y-95294533D01*
X180391439Y-95265533D01*
X180390000Y-95236250D01*
X180390000Y-94563750D01*
X180391439Y-94534467D01*
X180395740Y-94505467D01*
X180402864Y-94477027D01*
X180412741Y-94449423D01*
X180425276Y-94422920D01*
X180440348Y-94397773D01*
X180457813Y-94374225D01*
X180477502Y-94352502D01*
X180499225Y-94332813D01*
X180522773Y-94315348D01*
X180547920Y-94300276D01*
X180574423Y-94287741D01*
X180602027Y-94277864D01*
X180630467Y-94270740D01*
X180659467Y-94266439D01*
X180688750Y-94265000D01*
X181286250Y-94265000D01*
X181315533Y-94266439D01*
X181315533Y-94266439D01*
G37*
D15*
X180987500Y-94900000D03*
G04 #@! TD*
D14*
G04 #@! TO.C,C11*
G36*
X175640533Y-103266439D02*
X175669533Y-103270740D01*
X175697973Y-103277864D01*
X175725577Y-103287741D01*
X175752080Y-103300276D01*
X175777227Y-103315348D01*
X175800775Y-103332813D01*
X175822498Y-103352502D01*
X175842187Y-103374225D01*
X175859652Y-103397773D01*
X175874724Y-103422920D01*
X175887259Y-103449423D01*
X175897136Y-103477027D01*
X175904260Y-103505467D01*
X175908561Y-103534467D01*
X175910000Y-103563750D01*
X175910000Y-104236250D01*
X175908561Y-104265533D01*
X175904260Y-104294533D01*
X175897136Y-104322973D01*
X175887259Y-104350577D01*
X175874724Y-104377080D01*
X175859652Y-104402227D01*
X175842187Y-104425775D01*
X175822498Y-104447498D01*
X175800775Y-104467187D01*
X175777227Y-104484652D01*
X175752080Y-104499724D01*
X175725577Y-104512259D01*
X175697973Y-104522136D01*
X175669533Y-104529260D01*
X175640533Y-104533561D01*
X175611250Y-104535000D01*
X175013750Y-104535000D01*
X174984467Y-104533561D01*
X174955467Y-104529260D01*
X174927027Y-104522136D01*
X174899423Y-104512259D01*
X174872920Y-104499724D01*
X174847773Y-104484652D01*
X174824225Y-104467187D01*
X174802502Y-104447498D01*
X174782813Y-104425775D01*
X174765348Y-104402227D01*
X174750276Y-104377080D01*
X174737741Y-104350577D01*
X174727864Y-104322973D01*
X174720740Y-104294533D01*
X174716439Y-104265533D01*
X174715000Y-104236250D01*
X174715000Y-103563750D01*
X174716439Y-103534467D01*
X174720740Y-103505467D01*
X174727864Y-103477027D01*
X174737741Y-103449423D01*
X174750276Y-103422920D01*
X174765348Y-103397773D01*
X174782813Y-103374225D01*
X174802502Y-103352502D01*
X174824225Y-103332813D01*
X174847773Y-103315348D01*
X174872920Y-103300276D01*
X174899423Y-103287741D01*
X174927027Y-103277864D01*
X174955467Y-103270740D01*
X174984467Y-103266439D01*
X175013750Y-103265000D01*
X175611250Y-103265000D01*
X175640533Y-103266439D01*
X175640533Y-103266439D01*
G37*
D15*
X175312500Y-103900000D03*
D14*
G36*
X177215533Y-103266439D02*
X177244533Y-103270740D01*
X177272973Y-103277864D01*
X177300577Y-103287741D01*
X177327080Y-103300276D01*
X177352227Y-103315348D01*
X177375775Y-103332813D01*
X177397498Y-103352502D01*
X177417187Y-103374225D01*
X177434652Y-103397773D01*
X177449724Y-103422920D01*
X177462259Y-103449423D01*
X177472136Y-103477027D01*
X177479260Y-103505467D01*
X177483561Y-103534467D01*
X177485000Y-103563750D01*
X177485000Y-104236250D01*
X177483561Y-104265533D01*
X177479260Y-104294533D01*
X177472136Y-104322973D01*
X177462259Y-104350577D01*
X177449724Y-104377080D01*
X177434652Y-104402227D01*
X177417187Y-104425775D01*
X177397498Y-104447498D01*
X177375775Y-104467187D01*
X177352227Y-104484652D01*
X177327080Y-104499724D01*
X177300577Y-104512259D01*
X177272973Y-104522136D01*
X177244533Y-104529260D01*
X177215533Y-104533561D01*
X177186250Y-104535000D01*
X176588750Y-104535000D01*
X176559467Y-104533561D01*
X176530467Y-104529260D01*
X176502027Y-104522136D01*
X176474423Y-104512259D01*
X176447920Y-104499724D01*
X176422773Y-104484652D01*
X176399225Y-104467187D01*
X176377502Y-104447498D01*
X176357813Y-104425775D01*
X176340348Y-104402227D01*
X176325276Y-104377080D01*
X176312741Y-104350577D01*
X176302864Y-104322973D01*
X176295740Y-104294533D01*
X176291439Y-104265533D01*
X176290000Y-104236250D01*
X176290000Y-103563750D01*
X176291439Y-103534467D01*
X176295740Y-103505467D01*
X176302864Y-103477027D01*
X176312741Y-103449423D01*
X176325276Y-103422920D01*
X176340348Y-103397773D01*
X176357813Y-103374225D01*
X176377502Y-103352502D01*
X176399225Y-103332813D01*
X176422773Y-103315348D01*
X176447920Y-103300276D01*
X176474423Y-103287741D01*
X176502027Y-103277864D01*
X176530467Y-103270740D01*
X176559467Y-103266439D01*
X176588750Y-103265000D01*
X177186250Y-103265000D01*
X177215533Y-103266439D01*
X177215533Y-103266439D01*
G37*
D15*
X176887500Y-103900000D03*
G04 #@! TD*
D14*
G04 #@! TO.C,C12*
G36*
X167365533Y-89616439D02*
X167394533Y-89620740D01*
X167422973Y-89627864D01*
X167450577Y-89637741D01*
X167477080Y-89650276D01*
X167502227Y-89665348D01*
X167525775Y-89682813D01*
X167547498Y-89702502D01*
X167567187Y-89724225D01*
X167584652Y-89747773D01*
X167599724Y-89772920D01*
X167612259Y-89799423D01*
X167622136Y-89827027D01*
X167629260Y-89855467D01*
X167633561Y-89884467D01*
X167635000Y-89913750D01*
X167635000Y-90511250D01*
X167633561Y-90540533D01*
X167629260Y-90569533D01*
X167622136Y-90597973D01*
X167612259Y-90625577D01*
X167599724Y-90652080D01*
X167584652Y-90677227D01*
X167567187Y-90700775D01*
X167547498Y-90722498D01*
X167525775Y-90742187D01*
X167502227Y-90759652D01*
X167477080Y-90774724D01*
X167450577Y-90787259D01*
X167422973Y-90797136D01*
X167394533Y-90804260D01*
X167365533Y-90808561D01*
X167336250Y-90810000D01*
X166663750Y-90810000D01*
X166634467Y-90808561D01*
X166605467Y-90804260D01*
X166577027Y-90797136D01*
X166549423Y-90787259D01*
X166522920Y-90774724D01*
X166497773Y-90759652D01*
X166474225Y-90742187D01*
X166452502Y-90722498D01*
X166432813Y-90700775D01*
X166415348Y-90677227D01*
X166400276Y-90652080D01*
X166387741Y-90625577D01*
X166377864Y-90597973D01*
X166370740Y-90569533D01*
X166366439Y-90540533D01*
X166365000Y-90511250D01*
X166365000Y-89913750D01*
X166366439Y-89884467D01*
X166370740Y-89855467D01*
X166377864Y-89827027D01*
X166387741Y-89799423D01*
X166400276Y-89772920D01*
X166415348Y-89747773D01*
X166432813Y-89724225D01*
X166452502Y-89702502D01*
X166474225Y-89682813D01*
X166497773Y-89665348D01*
X166522920Y-89650276D01*
X166549423Y-89637741D01*
X166577027Y-89627864D01*
X166605467Y-89620740D01*
X166634467Y-89616439D01*
X166663750Y-89615000D01*
X167336250Y-89615000D01*
X167365533Y-89616439D01*
X167365533Y-89616439D01*
G37*
D15*
X167000000Y-90212500D03*
D14*
G36*
X167365533Y-91191439D02*
X167394533Y-91195740D01*
X167422973Y-91202864D01*
X167450577Y-91212741D01*
X167477080Y-91225276D01*
X167502227Y-91240348D01*
X167525775Y-91257813D01*
X167547498Y-91277502D01*
X167567187Y-91299225D01*
X167584652Y-91322773D01*
X167599724Y-91347920D01*
X167612259Y-91374423D01*
X167622136Y-91402027D01*
X167629260Y-91430467D01*
X167633561Y-91459467D01*
X167635000Y-91488750D01*
X167635000Y-92086250D01*
X167633561Y-92115533D01*
X167629260Y-92144533D01*
X167622136Y-92172973D01*
X167612259Y-92200577D01*
X167599724Y-92227080D01*
X167584652Y-92252227D01*
X167567187Y-92275775D01*
X167547498Y-92297498D01*
X167525775Y-92317187D01*
X167502227Y-92334652D01*
X167477080Y-92349724D01*
X167450577Y-92362259D01*
X167422973Y-92372136D01*
X167394533Y-92379260D01*
X167365533Y-92383561D01*
X167336250Y-92385000D01*
X166663750Y-92385000D01*
X166634467Y-92383561D01*
X166605467Y-92379260D01*
X166577027Y-92372136D01*
X166549423Y-92362259D01*
X166522920Y-92349724D01*
X166497773Y-92334652D01*
X166474225Y-92317187D01*
X166452502Y-92297498D01*
X166432813Y-92275775D01*
X166415348Y-92252227D01*
X166400276Y-92227080D01*
X166387741Y-92200577D01*
X166377864Y-92172973D01*
X166370740Y-92144533D01*
X166366439Y-92115533D01*
X166365000Y-92086250D01*
X166365000Y-91488750D01*
X166366439Y-91459467D01*
X166370740Y-91430467D01*
X166377864Y-91402027D01*
X166387741Y-91374423D01*
X166400276Y-91347920D01*
X166415348Y-91322773D01*
X166432813Y-91299225D01*
X166452502Y-91277502D01*
X166474225Y-91257813D01*
X166497773Y-91240348D01*
X166522920Y-91225276D01*
X166549423Y-91212741D01*
X166577027Y-91202864D01*
X166605467Y-91195740D01*
X166634467Y-91191439D01*
X166663750Y-91190000D01*
X167336250Y-91190000D01*
X167365533Y-91191439D01*
X167365533Y-91191439D01*
G37*
D15*
X167000000Y-91787500D03*
G04 #@! TD*
D14*
G04 #@! TO.C,C13*
G36*
X175640533Y-101766439D02*
X175669533Y-101770740D01*
X175697973Y-101777864D01*
X175725577Y-101787741D01*
X175752080Y-101800276D01*
X175777227Y-101815348D01*
X175800775Y-101832813D01*
X175822498Y-101852502D01*
X175842187Y-101874225D01*
X175859652Y-101897773D01*
X175874724Y-101922920D01*
X175887259Y-101949423D01*
X175897136Y-101977027D01*
X175904260Y-102005467D01*
X175908561Y-102034467D01*
X175910000Y-102063750D01*
X175910000Y-102736250D01*
X175908561Y-102765533D01*
X175904260Y-102794533D01*
X175897136Y-102822973D01*
X175887259Y-102850577D01*
X175874724Y-102877080D01*
X175859652Y-102902227D01*
X175842187Y-102925775D01*
X175822498Y-102947498D01*
X175800775Y-102967187D01*
X175777227Y-102984652D01*
X175752080Y-102999724D01*
X175725577Y-103012259D01*
X175697973Y-103022136D01*
X175669533Y-103029260D01*
X175640533Y-103033561D01*
X175611250Y-103035000D01*
X175013750Y-103035000D01*
X174984467Y-103033561D01*
X174955467Y-103029260D01*
X174927027Y-103022136D01*
X174899423Y-103012259D01*
X174872920Y-102999724D01*
X174847773Y-102984652D01*
X174824225Y-102967187D01*
X174802502Y-102947498D01*
X174782813Y-102925775D01*
X174765348Y-102902227D01*
X174750276Y-102877080D01*
X174737741Y-102850577D01*
X174727864Y-102822973D01*
X174720740Y-102794533D01*
X174716439Y-102765533D01*
X174715000Y-102736250D01*
X174715000Y-102063750D01*
X174716439Y-102034467D01*
X174720740Y-102005467D01*
X174727864Y-101977027D01*
X174737741Y-101949423D01*
X174750276Y-101922920D01*
X174765348Y-101897773D01*
X174782813Y-101874225D01*
X174802502Y-101852502D01*
X174824225Y-101832813D01*
X174847773Y-101815348D01*
X174872920Y-101800276D01*
X174899423Y-101787741D01*
X174927027Y-101777864D01*
X174955467Y-101770740D01*
X174984467Y-101766439D01*
X175013750Y-101765000D01*
X175611250Y-101765000D01*
X175640533Y-101766439D01*
X175640533Y-101766439D01*
G37*
D15*
X175312500Y-102400000D03*
D14*
G36*
X177215533Y-101766439D02*
X177244533Y-101770740D01*
X177272973Y-101777864D01*
X177300577Y-101787741D01*
X177327080Y-101800276D01*
X177352227Y-101815348D01*
X177375775Y-101832813D01*
X177397498Y-101852502D01*
X177417187Y-101874225D01*
X177434652Y-101897773D01*
X177449724Y-101922920D01*
X177462259Y-101949423D01*
X177472136Y-101977027D01*
X177479260Y-102005467D01*
X177483561Y-102034467D01*
X177485000Y-102063750D01*
X177485000Y-102736250D01*
X177483561Y-102765533D01*
X177479260Y-102794533D01*
X177472136Y-102822973D01*
X177462259Y-102850577D01*
X177449724Y-102877080D01*
X177434652Y-102902227D01*
X177417187Y-102925775D01*
X177397498Y-102947498D01*
X177375775Y-102967187D01*
X177352227Y-102984652D01*
X177327080Y-102999724D01*
X177300577Y-103012259D01*
X177272973Y-103022136D01*
X177244533Y-103029260D01*
X177215533Y-103033561D01*
X177186250Y-103035000D01*
X176588750Y-103035000D01*
X176559467Y-103033561D01*
X176530467Y-103029260D01*
X176502027Y-103022136D01*
X176474423Y-103012259D01*
X176447920Y-102999724D01*
X176422773Y-102984652D01*
X176399225Y-102967187D01*
X176377502Y-102947498D01*
X176357813Y-102925775D01*
X176340348Y-102902227D01*
X176325276Y-102877080D01*
X176312741Y-102850577D01*
X176302864Y-102822973D01*
X176295740Y-102794533D01*
X176291439Y-102765533D01*
X176290000Y-102736250D01*
X176290000Y-102063750D01*
X176291439Y-102034467D01*
X176295740Y-102005467D01*
X176302864Y-101977027D01*
X176312741Y-101949423D01*
X176325276Y-101922920D01*
X176340348Y-101897773D01*
X176357813Y-101874225D01*
X176377502Y-101852502D01*
X176399225Y-101832813D01*
X176422773Y-101815348D01*
X176447920Y-101800276D01*
X176474423Y-101787741D01*
X176502027Y-101777864D01*
X176530467Y-101770740D01*
X176559467Y-101766439D01*
X176588750Y-101765000D01*
X177186250Y-101765000D01*
X177215533Y-101766439D01*
X177215533Y-101766439D01*
G37*
D15*
X176887500Y-102400000D03*
G04 #@! TD*
D14*
G04 #@! TO.C,C14*
G36*
X177215533Y-100266439D02*
X177244533Y-100270740D01*
X177272973Y-100277864D01*
X177300577Y-100287741D01*
X177327080Y-100300276D01*
X177352227Y-100315348D01*
X177375775Y-100332813D01*
X177397498Y-100352502D01*
X177417187Y-100374225D01*
X177434652Y-100397773D01*
X177449724Y-100422920D01*
X177462259Y-100449423D01*
X177472136Y-100477027D01*
X177479260Y-100505467D01*
X177483561Y-100534467D01*
X177485000Y-100563750D01*
X177485000Y-101236250D01*
X177483561Y-101265533D01*
X177479260Y-101294533D01*
X177472136Y-101322973D01*
X177462259Y-101350577D01*
X177449724Y-101377080D01*
X177434652Y-101402227D01*
X177417187Y-101425775D01*
X177397498Y-101447498D01*
X177375775Y-101467187D01*
X177352227Y-101484652D01*
X177327080Y-101499724D01*
X177300577Y-101512259D01*
X177272973Y-101522136D01*
X177244533Y-101529260D01*
X177215533Y-101533561D01*
X177186250Y-101535000D01*
X176588750Y-101535000D01*
X176559467Y-101533561D01*
X176530467Y-101529260D01*
X176502027Y-101522136D01*
X176474423Y-101512259D01*
X176447920Y-101499724D01*
X176422773Y-101484652D01*
X176399225Y-101467187D01*
X176377502Y-101447498D01*
X176357813Y-101425775D01*
X176340348Y-101402227D01*
X176325276Y-101377080D01*
X176312741Y-101350577D01*
X176302864Y-101322973D01*
X176295740Y-101294533D01*
X176291439Y-101265533D01*
X176290000Y-101236250D01*
X176290000Y-100563750D01*
X176291439Y-100534467D01*
X176295740Y-100505467D01*
X176302864Y-100477027D01*
X176312741Y-100449423D01*
X176325276Y-100422920D01*
X176340348Y-100397773D01*
X176357813Y-100374225D01*
X176377502Y-100352502D01*
X176399225Y-100332813D01*
X176422773Y-100315348D01*
X176447920Y-100300276D01*
X176474423Y-100287741D01*
X176502027Y-100277864D01*
X176530467Y-100270740D01*
X176559467Y-100266439D01*
X176588750Y-100265000D01*
X177186250Y-100265000D01*
X177215533Y-100266439D01*
X177215533Y-100266439D01*
G37*
D15*
X176887500Y-100900000D03*
D14*
G36*
X175640533Y-100266439D02*
X175669533Y-100270740D01*
X175697973Y-100277864D01*
X175725577Y-100287741D01*
X175752080Y-100300276D01*
X175777227Y-100315348D01*
X175800775Y-100332813D01*
X175822498Y-100352502D01*
X175842187Y-100374225D01*
X175859652Y-100397773D01*
X175874724Y-100422920D01*
X175887259Y-100449423D01*
X175897136Y-100477027D01*
X175904260Y-100505467D01*
X175908561Y-100534467D01*
X175910000Y-100563750D01*
X175910000Y-101236250D01*
X175908561Y-101265533D01*
X175904260Y-101294533D01*
X175897136Y-101322973D01*
X175887259Y-101350577D01*
X175874724Y-101377080D01*
X175859652Y-101402227D01*
X175842187Y-101425775D01*
X175822498Y-101447498D01*
X175800775Y-101467187D01*
X175777227Y-101484652D01*
X175752080Y-101499724D01*
X175725577Y-101512259D01*
X175697973Y-101522136D01*
X175669533Y-101529260D01*
X175640533Y-101533561D01*
X175611250Y-101535000D01*
X175013750Y-101535000D01*
X174984467Y-101533561D01*
X174955467Y-101529260D01*
X174927027Y-101522136D01*
X174899423Y-101512259D01*
X174872920Y-101499724D01*
X174847773Y-101484652D01*
X174824225Y-101467187D01*
X174802502Y-101447498D01*
X174782813Y-101425775D01*
X174765348Y-101402227D01*
X174750276Y-101377080D01*
X174737741Y-101350577D01*
X174727864Y-101322973D01*
X174720740Y-101294533D01*
X174716439Y-101265533D01*
X174715000Y-101236250D01*
X174715000Y-100563750D01*
X174716439Y-100534467D01*
X174720740Y-100505467D01*
X174727864Y-100477027D01*
X174737741Y-100449423D01*
X174750276Y-100422920D01*
X174765348Y-100397773D01*
X174782813Y-100374225D01*
X174802502Y-100352502D01*
X174824225Y-100332813D01*
X174847773Y-100315348D01*
X174872920Y-100300276D01*
X174899423Y-100287741D01*
X174927027Y-100277864D01*
X174955467Y-100270740D01*
X174984467Y-100266439D01*
X175013750Y-100265000D01*
X175611250Y-100265000D01*
X175640533Y-100266439D01*
X175640533Y-100266439D01*
G37*
D15*
X175312500Y-100900000D03*
G04 #@! TD*
D14*
G04 #@! TO.C,C15*
G36*
X175640533Y-98766439D02*
X175669533Y-98770740D01*
X175697973Y-98777864D01*
X175725577Y-98787741D01*
X175752080Y-98800276D01*
X175777227Y-98815348D01*
X175800775Y-98832813D01*
X175822498Y-98852502D01*
X175842187Y-98874225D01*
X175859652Y-98897773D01*
X175874724Y-98922920D01*
X175887259Y-98949423D01*
X175897136Y-98977027D01*
X175904260Y-99005467D01*
X175908561Y-99034467D01*
X175910000Y-99063750D01*
X175910000Y-99736250D01*
X175908561Y-99765533D01*
X175904260Y-99794533D01*
X175897136Y-99822973D01*
X175887259Y-99850577D01*
X175874724Y-99877080D01*
X175859652Y-99902227D01*
X175842187Y-99925775D01*
X175822498Y-99947498D01*
X175800775Y-99967187D01*
X175777227Y-99984652D01*
X175752080Y-99999724D01*
X175725577Y-100012259D01*
X175697973Y-100022136D01*
X175669533Y-100029260D01*
X175640533Y-100033561D01*
X175611250Y-100035000D01*
X175013750Y-100035000D01*
X174984467Y-100033561D01*
X174955467Y-100029260D01*
X174927027Y-100022136D01*
X174899423Y-100012259D01*
X174872920Y-99999724D01*
X174847773Y-99984652D01*
X174824225Y-99967187D01*
X174802502Y-99947498D01*
X174782813Y-99925775D01*
X174765348Y-99902227D01*
X174750276Y-99877080D01*
X174737741Y-99850577D01*
X174727864Y-99822973D01*
X174720740Y-99794533D01*
X174716439Y-99765533D01*
X174715000Y-99736250D01*
X174715000Y-99063750D01*
X174716439Y-99034467D01*
X174720740Y-99005467D01*
X174727864Y-98977027D01*
X174737741Y-98949423D01*
X174750276Y-98922920D01*
X174765348Y-98897773D01*
X174782813Y-98874225D01*
X174802502Y-98852502D01*
X174824225Y-98832813D01*
X174847773Y-98815348D01*
X174872920Y-98800276D01*
X174899423Y-98787741D01*
X174927027Y-98777864D01*
X174955467Y-98770740D01*
X174984467Y-98766439D01*
X175013750Y-98765000D01*
X175611250Y-98765000D01*
X175640533Y-98766439D01*
X175640533Y-98766439D01*
G37*
D15*
X175312500Y-99400000D03*
D14*
G36*
X177215533Y-98766439D02*
X177244533Y-98770740D01*
X177272973Y-98777864D01*
X177300577Y-98787741D01*
X177327080Y-98800276D01*
X177352227Y-98815348D01*
X177375775Y-98832813D01*
X177397498Y-98852502D01*
X177417187Y-98874225D01*
X177434652Y-98897773D01*
X177449724Y-98922920D01*
X177462259Y-98949423D01*
X177472136Y-98977027D01*
X177479260Y-99005467D01*
X177483561Y-99034467D01*
X177485000Y-99063750D01*
X177485000Y-99736250D01*
X177483561Y-99765533D01*
X177479260Y-99794533D01*
X177472136Y-99822973D01*
X177462259Y-99850577D01*
X177449724Y-99877080D01*
X177434652Y-99902227D01*
X177417187Y-99925775D01*
X177397498Y-99947498D01*
X177375775Y-99967187D01*
X177352227Y-99984652D01*
X177327080Y-99999724D01*
X177300577Y-100012259D01*
X177272973Y-100022136D01*
X177244533Y-100029260D01*
X177215533Y-100033561D01*
X177186250Y-100035000D01*
X176588750Y-100035000D01*
X176559467Y-100033561D01*
X176530467Y-100029260D01*
X176502027Y-100022136D01*
X176474423Y-100012259D01*
X176447920Y-99999724D01*
X176422773Y-99984652D01*
X176399225Y-99967187D01*
X176377502Y-99947498D01*
X176357813Y-99925775D01*
X176340348Y-99902227D01*
X176325276Y-99877080D01*
X176312741Y-99850577D01*
X176302864Y-99822973D01*
X176295740Y-99794533D01*
X176291439Y-99765533D01*
X176290000Y-99736250D01*
X176290000Y-99063750D01*
X176291439Y-99034467D01*
X176295740Y-99005467D01*
X176302864Y-98977027D01*
X176312741Y-98949423D01*
X176325276Y-98922920D01*
X176340348Y-98897773D01*
X176357813Y-98874225D01*
X176377502Y-98852502D01*
X176399225Y-98832813D01*
X176422773Y-98815348D01*
X176447920Y-98800276D01*
X176474423Y-98787741D01*
X176502027Y-98777864D01*
X176530467Y-98770740D01*
X176559467Y-98766439D01*
X176588750Y-98765000D01*
X177186250Y-98765000D01*
X177215533Y-98766439D01*
X177215533Y-98766439D01*
G37*
D15*
X176887500Y-99400000D03*
G04 #@! TD*
D14*
G04 #@! TO.C,C16*
G36*
X169165533Y-89616439D02*
X169194533Y-89620740D01*
X169222973Y-89627864D01*
X169250577Y-89637741D01*
X169277080Y-89650276D01*
X169302227Y-89665348D01*
X169325775Y-89682813D01*
X169347498Y-89702502D01*
X169367187Y-89724225D01*
X169384652Y-89747773D01*
X169399724Y-89772920D01*
X169412259Y-89799423D01*
X169422136Y-89827027D01*
X169429260Y-89855467D01*
X169433561Y-89884467D01*
X169435000Y-89913750D01*
X169435000Y-90511250D01*
X169433561Y-90540533D01*
X169429260Y-90569533D01*
X169422136Y-90597973D01*
X169412259Y-90625577D01*
X169399724Y-90652080D01*
X169384652Y-90677227D01*
X169367187Y-90700775D01*
X169347498Y-90722498D01*
X169325775Y-90742187D01*
X169302227Y-90759652D01*
X169277080Y-90774724D01*
X169250577Y-90787259D01*
X169222973Y-90797136D01*
X169194533Y-90804260D01*
X169165533Y-90808561D01*
X169136250Y-90810000D01*
X168463750Y-90810000D01*
X168434467Y-90808561D01*
X168405467Y-90804260D01*
X168377027Y-90797136D01*
X168349423Y-90787259D01*
X168322920Y-90774724D01*
X168297773Y-90759652D01*
X168274225Y-90742187D01*
X168252502Y-90722498D01*
X168232813Y-90700775D01*
X168215348Y-90677227D01*
X168200276Y-90652080D01*
X168187741Y-90625577D01*
X168177864Y-90597973D01*
X168170740Y-90569533D01*
X168166439Y-90540533D01*
X168165000Y-90511250D01*
X168165000Y-89913750D01*
X168166439Y-89884467D01*
X168170740Y-89855467D01*
X168177864Y-89827027D01*
X168187741Y-89799423D01*
X168200276Y-89772920D01*
X168215348Y-89747773D01*
X168232813Y-89724225D01*
X168252502Y-89702502D01*
X168274225Y-89682813D01*
X168297773Y-89665348D01*
X168322920Y-89650276D01*
X168349423Y-89637741D01*
X168377027Y-89627864D01*
X168405467Y-89620740D01*
X168434467Y-89616439D01*
X168463750Y-89615000D01*
X169136250Y-89615000D01*
X169165533Y-89616439D01*
X169165533Y-89616439D01*
G37*
D15*
X168800000Y-90212500D03*
D14*
G36*
X169165533Y-91191439D02*
X169194533Y-91195740D01*
X169222973Y-91202864D01*
X169250577Y-91212741D01*
X169277080Y-91225276D01*
X169302227Y-91240348D01*
X169325775Y-91257813D01*
X169347498Y-91277502D01*
X169367187Y-91299225D01*
X169384652Y-91322773D01*
X169399724Y-91347920D01*
X169412259Y-91374423D01*
X169422136Y-91402027D01*
X169429260Y-91430467D01*
X169433561Y-91459467D01*
X169435000Y-91488750D01*
X169435000Y-92086250D01*
X169433561Y-92115533D01*
X169429260Y-92144533D01*
X169422136Y-92172973D01*
X169412259Y-92200577D01*
X169399724Y-92227080D01*
X169384652Y-92252227D01*
X169367187Y-92275775D01*
X169347498Y-92297498D01*
X169325775Y-92317187D01*
X169302227Y-92334652D01*
X169277080Y-92349724D01*
X169250577Y-92362259D01*
X169222973Y-92372136D01*
X169194533Y-92379260D01*
X169165533Y-92383561D01*
X169136250Y-92385000D01*
X168463750Y-92385000D01*
X168434467Y-92383561D01*
X168405467Y-92379260D01*
X168377027Y-92372136D01*
X168349423Y-92362259D01*
X168322920Y-92349724D01*
X168297773Y-92334652D01*
X168274225Y-92317187D01*
X168252502Y-92297498D01*
X168232813Y-92275775D01*
X168215348Y-92252227D01*
X168200276Y-92227080D01*
X168187741Y-92200577D01*
X168177864Y-92172973D01*
X168170740Y-92144533D01*
X168166439Y-92115533D01*
X168165000Y-92086250D01*
X168165000Y-91488750D01*
X168166439Y-91459467D01*
X168170740Y-91430467D01*
X168177864Y-91402027D01*
X168187741Y-91374423D01*
X168200276Y-91347920D01*
X168215348Y-91322773D01*
X168232813Y-91299225D01*
X168252502Y-91277502D01*
X168274225Y-91257813D01*
X168297773Y-91240348D01*
X168322920Y-91225276D01*
X168349423Y-91212741D01*
X168377027Y-91202864D01*
X168405467Y-91195740D01*
X168434467Y-91191439D01*
X168463750Y-91190000D01*
X169136250Y-91190000D01*
X169165533Y-91191439D01*
X169165533Y-91191439D01*
G37*
D15*
X168800000Y-91787500D03*
G04 #@! TD*
D14*
G04 #@! TO.C,C17*
G36*
X170965533Y-91191439D02*
X170994533Y-91195740D01*
X171022973Y-91202864D01*
X171050577Y-91212741D01*
X171077080Y-91225276D01*
X171102227Y-91240348D01*
X171125775Y-91257813D01*
X171147498Y-91277502D01*
X171167187Y-91299225D01*
X171184652Y-91322773D01*
X171199724Y-91347920D01*
X171212259Y-91374423D01*
X171222136Y-91402027D01*
X171229260Y-91430467D01*
X171233561Y-91459467D01*
X171235000Y-91488750D01*
X171235000Y-92086250D01*
X171233561Y-92115533D01*
X171229260Y-92144533D01*
X171222136Y-92172973D01*
X171212259Y-92200577D01*
X171199724Y-92227080D01*
X171184652Y-92252227D01*
X171167187Y-92275775D01*
X171147498Y-92297498D01*
X171125775Y-92317187D01*
X171102227Y-92334652D01*
X171077080Y-92349724D01*
X171050577Y-92362259D01*
X171022973Y-92372136D01*
X170994533Y-92379260D01*
X170965533Y-92383561D01*
X170936250Y-92385000D01*
X170263750Y-92385000D01*
X170234467Y-92383561D01*
X170205467Y-92379260D01*
X170177027Y-92372136D01*
X170149423Y-92362259D01*
X170122920Y-92349724D01*
X170097773Y-92334652D01*
X170074225Y-92317187D01*
X170052502Y-92297498D01*
X170032813Y-92275775D01*
X170015348Y-92252227D01*
X170000276Y-92227080D01*
X169987741Y-92200577D01*
X169977864Y-92172973D01*
X169970740Y-92144533D01*
X169966439Y-92115533D01*
X169965000Y-92086250D01*
X169965000Y-91488750D01*
X169966439Y-91459467D01*
X169970740Y-91430467D01*
X169977864Y-91402027D01*
X169987741Y-91374423D01*
X170000276Y-91347920D01*
X170015348Y-91322773D01*
X170032813Y-91299225D01*
X170052502Y-91277502D01*
X170074225Y-91257813D01*
X170097773Y-91240348D01*
X170122920Y-91225276D01*
X170149423Y-91212741D01*
X170177027Y-91202864D01*
X170205467Y-91195740D01*
X170234467Y-91191439D01*
X170263750Y-91190000D01*
X170936250Y-91190000D01*
X170965533Y-91191439D01*
X170965533Y-91191439D01*
G37*
D15*
X170600000Y-91787500D03*
D14*
G36*
X170965533Y-89616439D02*
X170994533Y-89620740D01*
X171022973Y-89627864D01*
X171050577Y-89637741D01*
X171077080Y-89650276D01*
X171102227Y-89665348D01*
X171125775Y-89682813D01*
X171147498Y-89702502D01*
X171167187Y-89724225D01*
X171184652Y-89747773D01*
X171199724Y-89772920D01*
X171212259Y-89799423D01*
X171222136Y-89827027D01*
X171229260Y-89855467D01*
X171233561Y-89884467D01*
X171235000Y-89913750D01*
X171235000Y-90511250D01*
X171233561Y-90540533D01*
X171229260Y-90569533D01*
X171222136Y-90597973D01*
X171212259Y-90625577D01*
X171199724Y-90652080D01*
X171184652Y-90677227D01*
X171167187Y-90700775D01*
X171147498Y-90722498D01*
X171125775Y-90742187D01*
X171102227Y-90759652D01*
X171077080Y-90774724D01*
X171050577Y-90787259D01*
X171022973Y-90797136D01*
X170994533Y-90804260D01*
X170965533Y-90808561D01*
X170936250Y-90810000D01*
X170263750Y-90810000D01*
X170234467Y-90808561D01*
X170205467Y-90804260D01*
X170177027Y-90797136D01*
X170149423Y-90787259D01*
X170122920Y-90774724D01*
X170097773Y-90759652D01*
X170074225Y-90742187D01*
X170052502Y-90722498D01*
X170032813Y-90700775D01*
X170015348Y-90677227D01*
X170000276Y-90652080D01*
X169987741Y-90625577D01*
X169977864Y-90597973D01*
X169970740Y-90569533D01*
X169966439Y-90540533D01*
X169965000Y-90511250D01*
X169965000Y-89913750D01*
X169966439Y-89884467D01*
X169970740Y-89855467D01*
X169977864Y-89827027D01*
X169987741Y-89799423D01*
X170000276Y-89772920D01*
X170015348Y-89747773D01*
X170032813Y-89724225D01*
X170052502Y-89702502D01*
X170074225Y-89682813D01*
X170097773Y-89665348D01*
X170122920Y-89650276D01*
X170149423Y-89637741D01*
X170177027Y-89627864D01*
X170205467Y-89620740D01*
X170234467Y-89616439D01*
X170263750Y-89615000D01*
X170936250Y-89615000D01*
X170965533Y-89616439D01*
X170965533Y-89616439D01*
G37*
D15*
X170600000Y-90212500D03*
G04 #@! TD*
D14*
G04 #@! TO.C,C18*
G36*
X154315533Y-102941439D02*
X154344533Y-102945740D01*
X154372973Y-102952864D01*
X154400577Y-102962741D01*
X154427080Y-102975276D01*
X154452227Y-102990348D01*
X154475775Y-103007813D01*
X154497498Y-103027502D01*
X154517187Y-103049225D01*
X154534652Y-103072773D01*
X154549724Y-103097920D01*
X154562259Y-103124423D01*
X154572136Y-103152027D01*
X154579260Y-103180467D01*
X154583561Y-103209467D01*
X154585000Y-103238750D01*
X154585000Y-103836250D01*
X154583561Y-103865533D01*
X154579260Y-103894533D01*
X154572136Y-103922973D01*
X154562259Y-103950577D01*
X154549724Y-103977080D01*
X154534652Y-104002227D01*
X154517187Y-104025775D01*
X154497498Y-104047498D01*
X154475775Y-104067187D01*
X154452227Y-104084652D01*
X154427080Y-104099724D01*
X154400577Y-104112259D01*
X154372973Y-104122136D01*
X154344533Y-104129260D01*
X154315533Y-104133561D01*
X154286250Y-104135000D01*
X153613750Y-104135000D01*
X153584467Y-104133561D01*
X153555467Y-104129260D01*
X153527027Y-104122136D01*
X153499423Y-104112259D01*
X153472920Y-104099724D01*
X153447773Y-104084652D01*
X153424225Y-104067187D01*
X153402502Y-104047498D01*
X153382813Y-104025775D01*
X153365348Y-104002227D01*
X153350276Y-103977080D01*
X153337741Y-103950577D01*
X153327864Y-103922973D01*
X153320740Y-103894533D01*
X153316439Y-103865533D01*
X153315000Y-103836250D01*
X153315000Y-103238750D01*
X153316439Y-103209467D01*
X153320740Y-103180467D01*
X153327864Y-103152027D01*
X153337741Y-103124423D01*
X153350276Y-103097920D01*
X153365348Y-103072773D01*
X153382813Y-103049225D01*
X153402502Y-103027502D01*
X153424225Y-103007813D01*
X153447773Y-102990348D01*
X153472920Y-102975276D01*
X153499423Y-102962741D01*
X153527027Y-102952864D01*
X153555467Y-102945740D01*
X153584467Y-102941439D01*
X153613750Y-102940000D01*
X154286250Y-102940000D01*
X154315533Y-102941439D01*
X154315533Y-102941439D01*
G37*
D15*
X153950000Y-103537500D03*
D14*
G36*
X154315533Y-101366439D02*
X154344533Y-101370740D01*
X154372973Y-101377864D01*
X154400577Y-101387741D01*
X154427080Y-101400276D01*
X154452227Y-101415348D01*
X154475775Y-101432813D01*
X154497498Y-101452502D01*
X154517187Y-101474225D01*
X154534652Y-101497773D01*
X154549724Y-101522920D01*
X154562259Y-101549423D01*
X154572136Y-101577027D01*
X154579260Y-101605467D01*
X154583561Y-101634467D01*
X154585000Y-101663750D01*
X154585000Y-102261250D01*
X154583561Y-102290533D01*
X154579260Y-102319533D01*
X154572136Y-102347973D01*
X154562259Y-102375577D01*
X154549724Y-102402080D01*
X154534652Y-102427227D01*
X154517187Y-102450775D01*
X154497498Y-102472498D01*
X154475775Y-102492187D01*
X154452227Y-102509652D01*
X154427080Y-102524724D01*
X154400577Y-102537259D01*
X154372973Y-102547136D01*
X154344533Y-102554260D01*
X154315533Y-102558561D01*
X154286250Y-102560000D01*
X153613750Y-102560000D01*
X153584467Y-102558561D01*
X153555467Y-102554260D01*
X153527027Y-102547136D01*
X153499423Y-102537259D01*
X153472920Y-102524724D01*
X153447773Y-102509652D01*
X153424225Y-102492187D01*
X153402502Y-102472498D01*
X153382813Y-102450775D01*
X153365348Y-102427227D01*
X153350276Y-102402080D01*
X153337741Y-102375577D01*
X153327864Y-102347973D01*
X153320740Y-102319533D01*
X153316439Y-102290533D01*
X153315000Y-102261250D01*
X153315000Y-101663750D01*
X153316439Y-101634467D01*
X153320740Y-101605467D01*
X153327864Y-101577027D01*
X153337741Y-101549423D01*
X153350276Y-101522920D01*
X153365348Y-101497773D01*
X153382813Y-101474225D01*
X153402502Y-101452502D01*
X153424225Y-101432813D01*
X153447773Y-101415348D01*
X153472920Y-101400276D01*
X153499423Y-101387741D01*
X153527027Y-101377864D01*
X153555467Y-101370740D01*
X153584467Y-101366439D01*
X153613750Y-101365000D01*
X154286250Y-101365000D01*
X154315533Y-101366439D01*
X154315533Y-101366439D01*
G37*
D15*
X153950000Y-101962500D03*
G04 #@! TD*
D14*
G04 #@! TO.C,C9*
G36*
X159065533Y-91191439D02*
X159094533Y-91195740D01*
X159122973Y-91202864D01*
X159150577Y-91212741D01*
X159177080Y-91225276D01*
X159202227Y-91240348D01*
X159225775Y-91257813D01*
X159247498Y-91277502D01*
X159267187Y-91299225D01*
X159284652Y-91322773D01*
X159299724Y-91347920D01*
X159312259Y-91374423D01*
X159322136Y-91402027D01*
X159329260Y-91430467D01*
X159333561Y-91459467D01*
X159335000Y-91488750D01*
X159335000Y-92086250D01*
X159333561Y-92115533D01*
X159329260Y-92144533D01*
X159322136Y-92172973D01*
X159312259Y-92200577D01*
X159299724Y-92227080D01*
X159284652Y-92252227D01*
X159267187Y-92275775D01*
X159247498Y-92297498D01*
X159225775Y-92317187D01*
X159202227Y-92334652D01*
X159177080Y-92349724D01*
X159150577Y-92362259D01*
X159122973Y-92372136D01*
X159094533Y-92379260D01*
X159065533Y-92383561D01*
X159036250Y-92385000D01*
X158363750Y-92385000D01*
X158334467Y-92383561D01*
X158305467Y-92379260D01*
X158277027Y-92372136D01*
X158249423Y-92362259D01*
X158222920Y-92349724D01*
X158197773Y-92334652D01*
X158174225Y-92317187D01*
X158152502Y-92297498D01*
X158132813Y-92275775D01*
X158115348Y-92252227D01*
X158100276Y-92227080D01*
X158087741Y-92200577D01*
X158077864Y-92172973D01*
X158070740Y-92144533D01*
X158066439Y-92115533D01*
X158065000Y-92086250D01*
X158065000Y-91488750D01*
X158066439Y-91459467D01*
X158070740Y-91430467D01*
X158077864Y-91402027D01*
X158087741Y-91374423D01*
X158100276Y-91347920D01*
X158115348Y-91322773D01*
X158132813Y-91299225D01*
X158152502Y-91277502D01*
X158174225Y-91257813D01*
X158197773Y-91240348D01*
X158222920Y-91225276D01*
X158249423Y-91212741D01*
X158277027Y-91202864D01*
X158305467Y-91195740D01*
X158334467Y-91191439D01*
X158363750Y-91190000D01*
X159036250Y-91190000D01*
X159065533Y-91191439D01*
X159065533Y-91191439D01*
G37*
D15*
X158700000Y-91787500D03*
D14*
G36*
X159065533Y-89616439D02*
X159094533Y-89620740D01*
X159122973Y-89627864D01*
X159150577Y-89637741D01*
X159177080Y-89650276D01*
X159202227Y-89665348D01*
X159225775Y-89682813D01*
X159247498Y-89702502D01*
X159267187Y-89724225D01*
X159284652Y-89747773D01*
X159299724Y-89772920D01*
X159312259Y-89799423D01*
X159322136Y-89827027D01*
X159329260Y-89855467D01*
X159333561Y-89884467D01*
X159335000Y-89913750D01*
X159335000Y-90511250D01*
X159333561Y-90540533D01*
X159329260Y-90569533D01*
X159322136Y-90597973D01*
X159312259Y-90625577D01*
X159299724Y-90652080D01*
X159284652Y-90677227D01*
X159267187Y-90700775D01*
X159247498Y-90722498D01*
X159225775Y-90742187D01*
X159202227Y-90759652D01*
X159177080Y-90774724D01*
X159150577Y-90787259D01*
X159122973Y-90797136D01*
X159094533Y-90804260D01*
X159065533Y-90808561D01*
X159036250Y-90810000D01*
X158363750Y-90810000D01*
X158334467Y-90808561D01*
X158305467Y-90804260D01*
X158277027Y-90797136D01*
X158249423Y-90787259D01*
X158222920Y-90774724D01*
X158197773Y-90759652D01*
X158174225Y-90742187D01*
X158152502Y-90722498D01*
X158132813Y-90700775D01*
X158115348Y-90677227D01*
X158100276Y-90652080D01*
X158087741Y-90625577D01*
X158077864Y-90597973D01*
X158070740Y-90569533D01*
X158066439Y-90540533D01*
X158065000Y-90511250D01*
X158065000Y-89913750D01*
X158066439Y-89884467D01*
X158070740Y-89855467D01*
X158077864Y-89827027D01*
X158087741Y-89799423D01*
X158100276Y-89772920D01*
X158115348Y-89747773D01*
X158132813Y-89724225D01*
X158152502Y-89702502D01*
X158174225Y-89682813D01*
X158197773Y-89665348D01*
X158222920Y-89650276D01*
X158249423Y-89637741D01*
X158277027Y-89627864D01*
X158305467Y-89620740D01*
X158334467Y-89616439D01*
X158363750Y-89615000D01*
X159036250Y-89615000D01*
X159065533Y-89616439D01*
X159065533Y-89616439D01*
G37*
D15*
X158700000Y-90212500D03*
G04 #@! TD*
D25*
G04 #@! TO.C,SW4*
X147525000Y-102075000D03*
X147525000Y-105425000D03*
D26*
X146225000Y-101500000D03*
X146225000Y-106000000D03*
D27*
X145625000Y-105775000D03*
X145625000Y-101725000D03*
D28*
X146325000Y-104600000D03*
X146325000Y-102900000D03*
G04 #@! TD*
G04 #@! TO.C,SW3*
X181675000Y-89600000D03*
X181675000Y-87900000D03*
D27*
X182375000Y-90775000D03*
X182375000Y-86725000D03*
D26*
X181775000Y-86500000D03*
X181775000Y-91000000D03*
D25*
X180475000Y-87075000D03*
X180475000Y-90425000D03*
G04 #@! TD*
G04 #@! TO.C,SW2*
X180425000Y-105425000D03*
X180425000Y-102075000D03*
D26*
X181725000Y-106000000D03*
X181725000Y-101500000D03*
D27*
X182325000Y-101725000D03*
X182325000Y-105775000D03*
D28*
X181625000Y-102900000D03*
X181625000Y-104600000D03*
G04 #@! TD*
G04 #@! TO.C,SW1*
X181675000Y-74550000D03*
X181675000Y-72850000D03*
D27*
X182375000Y-75725000D03*
X182375000Y-71675000D03*
D26*
X181775000Y-71450000D03*
X181775000Y-75950000D03*
D25*
X180475000Y-72025000D03*
X180475000Y-75375000D03*
G04 #@! TD*
D29*
G04 #@! TO.C,BT1*
X166400000Y-78700000D03*
D30*
X177850000Y-78800000D03*
X154950000Y-78800000D03*
G04 #@! TD*
D31*
G04 #@! TO.C,U6*
X156910000Y-96025000D03*
X171490000Y-96025000D03*
D32*
X158450000Y-93700000D03*
X158950000Y-93700000D03*
X159450000Y-93700000D03*
X159950000Y-93700000D03*
X160450000Y-93700000D03*
X160950000Y-93700000D03*
X161450000Y-93700000D03*
X161950000Y-93700000D03*
X162450000Y-93700000D03*
X162950000Y-93700000D03*
X163450000Y-93700000D03*
X163950000Y-93700000D03*
X164450000Y-93700000D03*
X164950000Y-93700000D03*
X165450000Y-93700000D03*
X165950000Y-93700000D03*
X166450000Y-93700000D03*
X166950000Y-93700000D03*
X167450000Y-93700000D03*
X167950000Y-93700000D03*
X168450000Y-93700000D03*
X168950000Y-93700000D03*
X169450000Y-93700000D03*
X169950000Y-93700000D03*
G04 #@! TD*
M02*
