G04 #@! TF.GenerationSoftware,KiCad,Pcbnew,(6.0.0-rc1-dev-332-g00d912f0b)*
G04 #@! TF.CreationDate,2018-09-23T23:35:21+02:00*
G04 #@! TF.ProjectId,xilwatch2,78696C7761746368322E6B696361645F,rev?*
G04 #@! TF.SameCoordinates,Original*
G04 #@! TF.FileFunction,Paste,Bot*
G04 #@! TF.FilePolarity,Positive*
%FSLAX46Y46*%
G04 Gerber Fmt 4.6, Leading zero omitted, Abs format (unit mm)*
G04 Created by KiCad (PCBNEW (6.0.0-rc1-dev-332-g00d912f0b)) date 09/23/18 23:35:21*
%MOMM*%
%LPD*%
G01*
G04 APERTURE LIST*
%ADD10R,2.700000X0.800000*%
%ADD11C,1.524000*%
%ADD12C,0.100000*%
%ADD13C,0.875000*%
%ADD14R,0.900000X0.800000*%
%ADD15R,0.800000X0.900000*%
%ADD16R,0.500000X0.500000*%
%ADD17R,0.900000X1.200000*%
%ADD18R,1.900000X1.500000*%
%ADD19R,1.350000X0.400000*%
%ADD20R,1.100000X0.750000*%
%ADD21R,0.600000X0.600000*%
%ADD22R,0.600000X1.050000*%
%ADD23C,15.000000*%
%ADD24R,2.500000X5.100000*%
%ADD25R,2.000000X3.000000*%
%ADD26R,0.300000X1.250000*%
G04 APERTURE END LIST*
D10*
G04 #@! TO.C,L1*
X175800000Y-93500000D03*
X175800000Y-95700000D03*
G04 #@! TD*
D11*
G04 #@! TO.C,M1*
X149026181Y-99863127D03*
D12*
G36*
X150038823Y-99494556D02*
X149394752Y-100875769D01*
X148013539Y-100231698D01*
X148657610Y-98850485D01*
X150038823Y-99494556D01*
X150038823Y-99494556D01*
G37*
D11*
X147304196Y-99060152D03*
D12*
G36*
X148316838Y-98691581D02*
X147672767Y-100072794D01*
X146291554Y-99428723D01*
X146935625Y-98047510D01*
X148316838Y-98691581D01*
X148316838Y-98691581D01*
G37*
G04 #@! TD*
G04 #@! TO.C,R4*
G36*
X177177691Y-89776053D02*
X177198926Y-89779203D01*
X177219750Y-89784419D01*
X177239962Y-89791651D01*
X177259368Y-89800830D01*
X177277781Y-89811866D01*
X177295024Y-89824654D01*
X177310930Y-89839070D01*
X177325346Y-89854976D01*
X177338134Y-89872219D01*
X177349170Y-89890632D01*
X177358349Y-89910038D01*
X177365581Y-89930250D01*
X177370797Y-89951074D01*
X177373947Y-89972309D01*
X177375000Y-89993750D01*
X177375000Y-90431250D01*
X177373947Y-90452691D01*
X177370797Y-90473926D01*
X177365581Y-90494750D01*
X177358349Y-90514962D01*
X177349170Y-90534368D01*
X177338134Y-90552781D01*
X177325346Y-90570024D01*
X177310930Y-90585930D01*
X177295024Y-90600346D01*
X177277781Y-90613134D01*
X177259368Y-90624170D01*
X177239962Y-90633349D01*
X177219750Y-90640581D01*
X177198926Y-90645797D01*
X177177691Y-90648947D01*
X177156250Y-90650000D01*
X176643750Y-90650000D01*
X176622309Y-90648947D01*
X176601074Y-90645797D01*
X176580250Y-90640581D01*
X176560038Y-90633349D01*
X176540632Y-90624170D01*
X176522219Y-90613134D01*
X176504976Y-90600346D01*
X176489070Y-90585930D01*
X176474654Y-90570024D01*
X176461866Y-90552781D01*
X176450830Y-90534368D01*
X176441651Y-90514962D01*
X176434419Y-90494750D01*
X176429203Y-90473926D01*
X176426053Y-90452691D01*
X176425000Y-90431250D01*
X176425000Y-89993750D01*
X176426053Y-89972309D01*
X176429203Y-89951074D01*
X176434419Y-89930250D01*
X176441651Y-89910038D01*
X176450830Y-89890632D01*
X176461866Y-89872219D01*
X176474654Y-89854976D01*
X176489070Y-89839070D01*
X176504976Y-89824654D01*
X176522219Y-89811866D01*
X176540632Y-89800830D01*
X176560038Y-89791651D01*
X176580250Y-89784419D01*
X176601074Y-89779203D01*
X176622309Y-89776053D01*
X176643750Y-89775000D01*
X177156250Y-89775000D01*
X177177691Y-89776053D01*
X177177691Y-89776053D01*
G37*
D13*
X176900000Y-90212500D03*
D12*
G36*
X177177691Y-91351053D02*
X177198926Y-91354203D01*
X177219750Y-91359419D01*
X177239962Y-91366651D01*
X177259368Y-91375830D01*
X177277781Y-91386866D01*
X177295024Y-91399654D01*
X177310930Y-91414070D01*
X177325346Y-91429976D01*
X177338134Y-91447219D01*
X177349170Y-91465632D01*
X177358349Y-91485038D01*
X177365581Y-91505250D01*
X177370797Y-91526074D01*
X177373947Y-91547309D01*
X177375000Y-91568750D01*
X177375000Y-92006250D01*
X177373947Y-92027691D01*
X177370797Y-92048926D01*
X177365581Y-92069750D01*
X177358349Y-92089962D01*
X177349170Y-92109368D01*
X177338134Y-92127781D01*
X177325346Y-92145024D01*
X177310930Y-92160930D01*
X177295024Y-92175346D01*
X177277781Y-92188134D01*
X177259368Y-92199170D01*
X177239962Y-92208349D01*
X177219750Y-92215581D01*
X177198926Y-92220797D01*
X177177691Y-92223947D01*
X177156250Y-92225000D01*
X176643750Y-92225000D01*
X176622309Y-92223947D01*
X176601074Y-92220797D01*
X176580250Y-92215581D01*
X176560038Y-92208349D01*
X176540632Y-92199170D01*
X176522219Y-92188134D01*
X176504976Y-92175346D01*
X176489070Y-92160930D01*
X176474654Y-92145024D01*
X176461866Y-92127781D01*
X176450830Y-92109368D01*
X176441651Y-92089962D01*
X176434419Y-92069750D01*
X176429203Y-92048926D01*
X176426053Y-92027691D01*
X176425000Y-92006250D01*
X176425000Y-91568750D01*
X176426053Y-91547309D01*
X176429203Y-91526074D01*
X176434419Y-91505250D01*
X176441651Y-91485038D01*
X176450830Y-91465632D01*
X176461866Y-91447219D01*
X176474654Y-91429976D01*
X176489070Y-91414070D01*
X176504976Y-91399654D01*
X176522219Y-91386866D01*
X176540632Y-91375830D01*
X176560038Y-91366651D01*
X176580250Y-91359419D01*
X176601074Y-91354203D01*
X176622309Y-91351053D01*
X176643750Y-91350000D01*
X177156250Y-91350000D01*
X177177691Y-91351053D01*
X177177691Y-91351053D01*
G37*
D13*
X176900000Y-91787500D03*
G04 #@! TD*
D12*
G04 #@! TO.C,R3*
G36*
X175327691Y-87826053D02*
X175348926Y-87829203D01*
X175369750Y-87834419D01*
X175389962Y-87841651D01*
X175409368Y-87850830D01*
X175427781Y-87861866D01*
X175445024Y-87874654D01*
X175460930Y-87889070D01*
X175475346Y-87904976D01*
X175488134Y-87922219D01*
X175499170Y-87940632D01*
X175508349Y-87960038D01*
X175515581Y-87980250D01*
X175520797Y-88001074D01*
X175523947Y-88022309D01*
X175525000Y-88043750D01*
X175525000Y-88556250D01*
X175523947Y-88577691D01*
X175520797Y-88598926D01*
X175515581Y-88619750D01*
X175508349Y-88639962D01*
X175499170Y-88659368D01*
X175488134Y-88677781D01*
X175475346Y-88695024D01*
X175460930Y-88710930D01*
X175445024Y-88725346D01*
X175427781Y-88738134D01*
X175409368Y-88749170D01*
X175389962Y-88758349D01*
X175369750Y-88765581D01*
X175348926Y-88770797D01*
X175327691Y-88773947D01*
X175306250Y-88775000D01*
X174868750Y-88775000D01*
X174847309Y-88773947D01*
X174826074Y-88770797D01*
X174805250Y-88765581D01*
X174785038Y-88758349D01*
X174765632Y-88749170D01*
X174747219Y-88738134D01*
X174729976Y-88725346D01*
X174714070Y-88710930D01*
X174699654Y-88695024D01*
X174686866Y-88677781D01*
X174675830Y-88659368D01*
X174666651Y-88639962D01*
X174659419Y-88619750D01*
X174654203Y-88598926D01*
X174651053Y-88577691D01*
X174650000Y-88556250D01*
X174650000Y-88043750D01*
X174651053Y-88022309D01*
X174654203Y-88001074D01*
X174659419Y-87980250D01*
X174666651Y-87960038D01*
X174675830Y-87940632D01*
X174686866Y-87922219D01*
X174699654Y-87904976D01*
X174714070Y-87889070D01*
X174729976Y-87874654D01*
X174747219Y-87861866D01*
X174765632Y-87850830D01*
X174785038Y-87841651D01*
X174805250Y-87834419D01*
X174826074Y-87829203D01*
X174847309Y-87826053D01*
X174868750Y-87825000D01*
X175306250Y-87825000D01*
X175327691Y-87826053D01*
X175327691Y-87826053D01*
G37*
D13*
X175087500Y-88300000D03*
D12*
G36*
X173752691Y-87826053D02*
X173773926Y-87829203D01*
X173794750Y-87834419D01*
X173814962Y-87841651D01*
X173834368Y-87850830D01*
X173852781Y-87861866D01*
X173870024Y-87874654D01*
X173885930Y-87889070D01*
X173900346Y-87904976D01*
X173913134Y-87922219D01*
X173924170Y-87940632D01*
X173933349Y-87960038D01*
X173940581Y-87980250D01*
X173945797Y-88001074D01*
X173948947Y-88022309D01*
X173950000Y-88043750D01*
X173950000Y-88556250D01*
X173948947Y-88577691D01*
X173945797Y-88598926D01*
X173940581Y-88619750D01*
X173933349Y-88639962D01*
X173924170Y-88659368D01*
X173913134Y-88677781D01*
X173900346Y-88695024D01*
X173885930Y-88710930D01*
X173870024Y-88725346D01*
X173852781Y-88738134D01*
X173834368Y-88749170D01*
X173814962Y-88758349D01*
X173794750Y-88765581D01*
X173773926Y-88770797D01*
X173752691Y-88773947D01*
X173731250Y-88775000D01*
X173293750Y-88775000D01*
X173272309Y-88773947D01*
X173251074Y-88770797D01*
X173230250Y-88765581D01*
X173210038Y-88758349D01*
X173190632Y-88749170D01*
X173172219Y-88738134D01*
X173154976Y-88725346D01*
X173139070Y-88710930D01*
X173124654Y-88695024D01*
X173111866Y-88677781D01*
X173100830Y-88659368D01*
X173091651Y-88639962D01*
X173084419Y-88619750D01*
X173079203Y-88598926D01*
X173076053Y-88577691D01*
X173075000Y-88556250D01*
X173075000Y-88043750D01*
X173076053Y-88022309D01*
X173079203Y-88001074D01*
X173084419Y-87980250D01*
X173091651Y-87960038D01*
X173100830Y-87940632D01*
X173111866Y-87922219D01*
X173124654Y-87904976D01*
X173139070Y-87889070D01*
X173154976Y-87874654D01*
X173172219Y-87861866D01*
X173190632Y-87850830D01*
X173210038Y-87841651D01*
X173230250Y-87834419D01*
X173251074Y-87829203D01*
X173272309Y-87826053D01*
X173293750Y-87825000D01*
X173731250Y-87825000D01*
X173752691Y-87826053D01*
X173752691Y-87826053D01*
G37*
D13*
X173512500Y-88300000D03*
G04 #@! TD*
D14*
G04 #@! TO.C,U1*
X152800000Y-73416046D03*
X152800000Y-71516046D03*
X154800000Y-72466046D03*
G04 #@! TD*
D15*
G04 #@! TO.C,Q2*
X151300000Y-101500000D03*
X150350000Y-103500000D03*
X152250000Y-103500000D03*
G04 #@! TD*
G04 #@! TO.C,Q1*
X173350000Y-89900000D03*
X175250000Y-89900000D03*
X174300000Y-91900000D03*
G04 #@! TD*
D16*
G04 #@! TO.C,D2*
X152000000Y-75000000D03*
X152000000Y-77200000D03*
G04 #@! TD*
G04 #@! TO.C,D1*
X154900000Y-69666046D03*
X152700000Y-69666046D03*
G04 #@! TD*
D17*
G04 #@! TO.C,D5*
X178550000Y-99400000D03*
X181850000Y-99400000D03*
G04 #@! TD*
G04 #@! TO.C,D4*
X178550000Y-97000000D03*
X181850000Y-97000000D03*
G04 #@! TD*
G04 #@! TO.C,D3*
X181850000Y-92900000D03*
X178550000Y-92900000D03*
G04 #@! TD*
D18*
G04 #@! TO.C,J1*
X146862500Y-73600000D03*
D19*
X149562500Y-75250000D03*
X149562500Y-75900000D03*
X149562500Y-73300000D03*
X149562500Y-73950000D03*
X149562500Y-74600000D03*
D18*
X146862500Y-75600000D03*
G04 #@! TD*
D12*
G04 #@! TO.C,C8*
G36*
X165477691Y-89776053D02*
X165498926Y-89779203D01*
X165519750Y-89784419D01*
X165539962Y-89791651D01*
X165559368Y-89800830D01*
X165577781Y-89811866D01*
X165595024Y-89824654D01*
X165610930Y-89839070D01*
X165625346Y-89854976D01*
X165638134Y-89872219D01*
X165649170Y-89890632D01*
X165658349Y-89910038D01*
X165665581Y-89930250D01*
X165670797Y-89951074D01*
X165673947Y-89972309D01*
X165675000Y-89993750D01*
X165675000Y-90431250D01*
X165673947Y-90452691D01*
X165670797Y-90473926D01*
X165665581Y-90494750D01*
X165658349Y-90514962D01*
X165649170Y-90534368D01*
X165638134Y-90552781D01*
X165625346Y-90570024D01*
X165610930Y-90585930D01*
X165595024Y-90600346D01*
X165577781Y-90613134D01*
X165559368Y-90624170D01*
X165539962Y-90633349D01*
X165519750Y-90640581D01*
X165498926Y-90645797D01*
X165477691Y-90648947D01*
X165456250Y-90650000D01*
X164943750Y-90650000D01*
X164922309Y-90648947D01*
X164901074Y-90645797D01*
X164880250Y-90640581D01*
X164860038Y-90633349D01*
X164840632Y-90624170D01*
X164822219Y-90613134D01*
X164804976Y-90600346D01*
X164789070Y-90585930D01*
X164774654Y-90570024D01*
X164761866Y-90552781D01*
X164750830Y-90534368D01*
X164741651Y-90514962D01*
X164734419Y-90494750D01*
X164729203Y-90473926D01*
X164726053Y-90452691D01*
X164725000Y-90431250D01*
X164725000Y-89993750D01*
X164726053Y-89972309D01*
X164729203Y-89951074D01*
X164734419Y-89930250D01*
X164741651Y-89910038D01*
X164750830Y-89890632D01*
X164761866Y-89872219D01*
X164774654Y-89854976D01*
X164789070Y-89839070D01*
X164804976Y-89824654D01*
X164822219Y-89811866D01*
X164840632Y-89800830D01*
X164860038Y-89791651D01*
X164880250Y-89784419D01*
X164901074Y-89779203D01*
X164922309Y-89776053D01*
X164943750Y-89775000D01*
X165456250Y-89775000D01*
X165477691Y-89776053D01*
X165477691Y-89776053D01*
G37*
D13*
X165200000Y-90212500D03*
D12*
G36*
X165477691Y-91351053D02*
X165498926Y-91354203D01*
X165519750Y-91359419D01*
X165539962Y-91366651D01*
X165559368Y-91375830D01*
X165577781Y-91386866D01*
X165595024Y-91399654D01*
X165610930Y-91414070D01*
X165625346Y-91429976D01*
X165638134Y-91447219D01*
X165649170Y-91465632D01*
X165658349Y-91485038D01*
X165665581Y-91505250D01*
X165670797Y-91526074D01*
X165673947Y-91547309D01*
X165675000Y-91568750D01*
X165675000Y-92006250D01*
X165673947Y-92027691D01*
X165670797Y-92048926D01*
X165665581Y-92069750D01*
X165658349Y-92089962D01*
X165649170Y-92109368D01*
X165638134Y-92127781D01*
X165625346Y-92145024D01*
X165610930Y-92160930D01*
X165595024Y-92175346D01*
X165577781Y-92188134D01*
X165559368Y-92199170D01*
X165539962Y-92208349D01*
X165519750Y-92215581D01*
X165498926Y-92220797D01*
X165477691Y-92223947D01*
X165456250Y-92225000D01*
X164943750Y-92225000D01*
X164922309Y-92223947D01*
X164901074Y-92220797D01*
X164880250Y-92215581D01*
X164860038Y-92208349D01*
X164840632Y-92199170D01*
X164822219Y-92188134D01*
X164804976Y-92175346D01*
X164789070Y-92160930D01*
X164774654Y-92145024D01*
X164761866Y-92127781D01*
X164750830Y-92109368D01*
X164741651Y-92089962D01*
X164734419Y-92069750D01*
X164729203Y-92048926D01*
X164726053Y-92027691D01*
X164725000Y-92006250D01*
X164725000Y-91568750D01*
X164726053Y-91547309D01*
X164729203Y-91526074D01*
X164734419Y-91505250D01*
X164741651Y-91485038D01*
X164750830Y-91465632D01*
X164761866Y-91447219D01*
X164774654Y-91429976D01*
X164789070Y-91414070D01*
X164804976Y-91399654D01*
X164822219Y-91386866D01*
X164840632Y-91375830D01*
X164860038Y-91366651D01*
X164880250Y-91359419D01*
X164901074Y-91354203D01*
X164922309Y-91351053D01*
X164943750Y-91350000D01*
X165456250Y-91350000D01*
X165477691Y-91351053D01*
X165477691Y-91351053D01*
G37*
D13*
X165200000Y-91787500D03*
G04 #@! TD*
D12*
G04 #@! TO.C,C10*
G36*
X160677691Y-91351053D02*
X160698926Y-91354203D01*
X160719750Y-91359419D01*
X160739962Y-91366651D01*
X160759368Y-91375830D01*
X160777781Y-91386866D01*
X160795024Y-91399654D01*
X160810930Y-91414070D01*
X160825346Y-91429976D01*
X160838134Y-91447219D01*
X160849170Y-91465632D01*
X160858349Y-91485038D01*
X160865581Y-91505250D01*
X160870797Y-91526074D01*
X160873947Y-91547309D01*
X160875000Y-91568750D01*
X160875000Y-92006250D01*
X160873947Y-92027691D01*
X160870797Y-92048926D01*
X160865581Y-92069750D01*
X160858349Y-92089962D01*
X160849170Y-92109368D01*
X160838134Y-92127781D01*
X160825346Y-92145024D01*
X160810930Y-92160930D01*
X160795024Y-92175346D01*
X160777781Y-92188134D01*
X160759368Y-92199170D01*
X160739962Y-92208349D01*
X160719750Y-92215581D01*
X160698926Y-92220797D01*
X160677691Y-92223947D01*
X160656250Y-92225000D01*
X160143750Y-92225000D01*
X160122309Y-92223947D01*
X160101074Y-92220797D01*
X160080250Y-92215581D01*
X160060038Y-92208349D01*
X160040632Y-92199170D01*
X160022219Y-92188134D01*
X160004976Y-92175346D01*
X159989070Y-92160930D01*
X159974654Y-92145024D01*
X159961866Y-92127781D01*
X159950830Y-92109368D01*
X159941651Y-92089962D01*
X159934419Y-92069750D01*
X159929203Y-92048926D01*
X159926053Y-92027691D01*
X159925000Y-92006250D01*
X159925000Y-91568750D01*
X159926053Y-91547309D01*
X159929203Y-91526074D01*
X159934419Y-91505250D01*
X159941651Y-91485038D01*
X159950830Y-91465632D01*
X159961866Y-91447219D01*
X159974654Y-91429976D01*
X159989070Y-91414070D01*
X160004976Y-91399654D01*
X160022219Y-91386866D01*
X160040632Y-91375830D01*
X160060038Y-91366651D01*
X160080250Y-91359419D01*
X160101074Y-91354203D01*
X160122309Y-91351053D01*
X160143750Y-91350000D01*
X160656250Y-91350000D01*
X160677691Y-91351053D01*
X160677691Y-91351053D01*
G37*
D13*
X160400000Y-91787500D03*
D12*
G36*
X160677691Y-89776053D02*
X160698926Y-89779203D01*
X160719750Y-89784419D01*
X160739962Y-89791651D01*
X160759368Y-89800830D01*
X160777781Y-89811866D01*
X160795024Y-89824654D01*
X160810930Y-89839070D01*
X160825346Y-89854976D01*
X160838134Y-89872219D01*
X160849170Y-89890632D01*
X160858349Y-89910038D01*
X160865581Y-89930250D01*
X160870797Y-89951074D01*
X160873947Y-89972309D01*
X160875000Y-89993750D01*
X160875000Y-90431250D01*
X160873947Y-90452691D01*
X160870797Y-90473926D01*
X160865581Y-90494750D01*
X160858349Y-90514962D01*
X160849170Y-90534368D01*
X160838134Y-90552781D01*
X160825346Y-90570024D01*
X160810930Y-90585930D01*
X160795024Y-90600346D01*
X160777781Y-90613134D01*
X160759368Y-90624170D01*
X160739962Y-90633349D01*
X160719750Y-90640581D01*
X160698926Y-90645797D01*
X160677691Y-90648947D01*
X160656250Y-90650000D01*
X160143750Y-90650000D01*
X160122309Y-90648947D01*
X160101074Y-90645797D01*
X160080250Y-90640581D01*
X160060038Y-90633349D01*
X160040632Y-90624170D01*
X160022219Y-90613134D01*
X160004976Y-90600346D01*
X159989070Y-90585930D01*
X159974654Y-90570024D01*
X159961866Y-90552781D01*
X159950830Y-90534368D01*
X159941651Y-90514962D01*
X159934419Y-90494750D01*
X159929203Y-90473926D01*
X159926053Y-90452691D01*
X159925000Y-90431250D01*
X159925000Y-89993750D01*
X159926053Y-89972309D01*
X159929203Y-89951074D01*
X159934419Y-89930250D01*
X159941651Y-89910038D01*
X159950830Y-89890632D01*
X159961866Y-89872219D01*
X159974654Y-89854976D01*
X159989070Y-89839070D01*
X160004976Y-89824654D01*
X160022219Y-89811866D01*
X160040632Y-89800830D01*
X160060038Y-89791651D01*
X160080250Y-89784419D01*
X160101074Y-89779203D01*
X160122309Y-89776053D01*
X160143750Y-89775000D01*
X160656250Y-89775000D01*
X160677691Y-89776053D01*
X160677691Y-89776053D01*
G37*
D13*
X160400000Y-90212500D03*
G04 #@! TD*
D12*
G04 #@! TO.C,C1*
G36*
X149652691Y-68426053D02*
X149673926Y-68429203D01*
X149694750Y-68434419D01*
X149714962Y-68441651D01*
X149734368Y-68450830D01*
X149752781Y-68461866D01*
X149770024Y-68474654D01*
X149785930Y-68489070D01*
X149800346Y-68504976D01*
X149813134Y-68522219D01*
X149824170Y-68540632D01*
X149833349Y-68560038D01*
X149840581Y-68580250D01*
X149845797Y-68601074D01*
X149848947Y-68622309D01*
X149850000Y-68643750D01*
X149850000Y-69156250D01*
X149848947Y-69177691D01*
X149845797Y-69198926D01*
X149840581Y-69219750D01*
X149833349Y-69239962D01*
X149824170Y-69259368D01*
X149813134Y-69277781D01*
X149800346Y-69295024D01*
X149785930Y-69310930D01*
X149770024Y-69325346D01*
X149752781Y-69338134D01*
X149734368Y-69349170D01*
X149714962Y-69358349D01*
X149694750Y-69365581D01*
X149673926Y-69370797D01*
X149652691Y-69373947D01*
X149631250Y-69375000D01*
X149193750Y-69375000D01*
X149172309Y-69373947D01*
X149151074Y-69370797D01*
X149130250Y-69365581D01*
X149110038Y-69358349D01*
X149090632Y-69349170D01*
X149072219Y-69338134D01*
X149054976Y-69325346D01*
X149039070Y-69310930D01*
X149024654Y-69295024D01*
X149011866Y-69277781D01*
X149000830Y-69259368D01*
X148991651Y-69239962D01*
X148984419Y-69219750D01*
X148979203Y-69198926D01*
X148976053Y-69177691D01*
X148975000Y-69156250D01*
X148975000Y-68643750D01*
X148976053Y-68622309D01*
X148979203Y-68601074D01*
X148984419Y-68580250D01*
X148991651Y-68560038D01*
X149000830Y-68540632D01*
X149011866Y-68522219D01*
X149024654Y-68504976D01*
X149039070Y-68489070D01*
X149054976Y-68474654D01*
X149072219Y-68461866D01*
X149090632Y-68450830D01*
X149110038Y-68441651D01*
X149130250Y-68434419D01*
X149151074Y-68429203D01*
X149172309Y-68426053D01*
X149193750Y-68425000D01*
X149631250Y-68425000D01*
X149652691Y-68426053D01*
X149652691Y-68426053D01*
G37*
D13*
X149412500Y-68900000D03*
D12*
G36*
X151227691Y-68426053D02*
X151248926Y-68429203D01*
X151269750Y-68434419D01*
X151289962Y-68441651D01*
X151309368Y-68450830D01*
X151327781Y-68461866D01*
X151345024Y-68474654D01*
X151360930Y-68489070D01*
X151375346Y-68504976D01*
X151388134Y-68522219D01*
X151399170Y-68540632D01*
X151408349Y-68560038D01*
X151415581Y-68580250D01*
X151420797Y-68601074D01*
X151423947Y-68622309D01*
X151425000Y-68643750D01*
X151425000Y-69156250D01*
X151423947Y-69177691D01*
X151420797Y-69198926D01*
X151415581Y-69219750D01*
X151408349Y-69239962D01*
X151399170Y-69259368D01*
X151388134Y-69277781D01*
X151375346Y-69295024D01*
X151360930Y-69310930D01*
X151345024Y-69325346D01*
X151327781Y-69338134D01*
X151309368Y-69349170D01*
X151289962Y-69358349D01*
X151269750Y-69365581D01*
X151248926Y-69370797D01*
X151227691Y-69373947D01*
X151206250Y-69375000D01*
X150768750Y-69375000D01*
X150747309Y-69373947D01*
X150726074Y-69370797D01*
X150705250Y-69365581D01*
X150685038Y-69358349D01*
X150665632Y-69349170D01*
X150647219Y-69338134D01*
X150629976Y-69325346D01*
X150614070Y-69310930D01*
X150599654Y-69295024D01*
X150586866Y-69277781D01*
X150575830Y-69259368D01*
X150566651Y-69239962D01*
X150559419Y-69219750D01*
X150554203Y-69198926D01*
X150551053Y-69177691D01*
X150550000Y-69156250D01*
X150550000Y-68643750D01*
X150551053Y-68622309D01*
X150554203Y-68601074D01*
X150559419Y-68580250D01*
X150566651Y-68560038D01*
X150575830Y-68540632D01*
X150586866Y-68522219D01*
X150599654Y-68504976D01*
X150614070Y-68489070D01*
X150629976Y-68474654D01*
X150647219Y-68461866D01*
X150665632Y-68450830D01*
X150685038Y-68441651D01*
X150705250Y-68434419D01*
X150726074Y-68429203D01*
X150747309Y-68426053D01*
X150768750Y-68425000D01*
X151206250Y-68425000D01*
X151227691Y-68426053D01*
X151227691Y-68426053D01*
G37*
D13*
X150987500Y-68900000D03*
G04 #@! TD*
D12*
G04 #@! TO.C,C2*
G36*
X149652691Y-66826053D02*
X149673926Y-66829203D01*
X149694750Y-66834419D01*
X149714962Y-66841651D01*
X149734368Y-66850830D01*
X149752781Y-66861866D01*
X149770024Y-66874654D01*
X149785930Y-66889070D01*
X149800346Y-66904976D01*
X149813134Y-66922219D01*
X149824170Y-66940632D01*
X149833349Y-66960038D01*
X149840581Y-66980250D01*
X149845797Y-67001074D01*
X149848947Y-67022309D01*
X149850000Y-67043750D01*
X149850000Y-67556250D01*
X149848947Y-67577691D01*
X149845797Y-67598926D01*
X149840581Y-67619750D01*
X149833349Y-67639962D01*
X149824170Y-67659368D01*
X149813134Y-67677781D01*
X149800346Y-67695024D01*
X149785930Y-67710930D01*
X149770024Y-67725346D01*
X149752781Y-67738134D01*
X149734368Y-67749170D01*
X149714962Y-67758349D01*
X149694750Y-67765581D01*
X149673926Y-67770797D01*
X149652691Y-67773947D01*
X149631250Y-67775000D01*
X149193750Y-67775000D01*
X149172309Y-67773947D01*
X149151074Y-67770797D01*
X149130250Y-67765581D01*
X149110038Y-67758349D01*
X149090632Y-67749170D01*
X149072219Y-67738134D01*
X149054976Y-67725346D01*
X149039070Y-67710930D01*
X149024654Y-67695024D01*
X149011866Y-67677781D01*
X149000830Y-67659368D01*
X148991651Y-67639962D01*
X148984419Y-67619750D01*
X148979203Y-67598926D01*
X148976053Y-67577691D01*
X148975000Y-67556250D01*
X148975000Y-67043750D01*
X148976053Y-67022309D01*
X148979203Y-67001074D01*
X148984419Y-66980250D01*
X148991651Y-66960038D01*
X149000830Y-66940632D01*
X149011866Y-66922219D01*
X149024654Y-66904976D01*
X149039070Y-66889070D01*
X149054976Y-66874654D01*
X149072219Y-66861866D01*
X149090632Y-66850830D01*
X149110038Y-66841651D01*
X149130250Y-66834419D01*
X149151074Y-66829203D01*
X149172309Y-66826053D01*
X149193750Y-66825000D01*
X149631250Y-66825000D01*
X149652691Y-66826053D01*
X149652691Y-66826053D01*
G37*
D13*
X149412500Y-67300000D03*
D12*
G36*
X151227691Y-66826053D02*
X151248926Y-66829203D01*
X151269750Y-66834419D01*
X151289962Y-66841651D01*
X151309368Y-66850830D01*
X151327781Y-66861866D01*
X151345024Y-66874654D01*
X151360930Y-66889070D01*
X151375346Y-66904976D01*
X151388134Y-66922219D01*
X151399170Y-66940632D01*
X151408349Y-66960038D01*
X151415581Y-66980250D01*
X151420797Y-67001074D01*
X151423947Y-67022309D01*
X151425000Y-67043750D01*
X151425000Y-67556250D01*
X151423947Y-67577691D01*
X151420797Y-67598926D01*
X151415581Y-67619750D01*
X151408349Y-67639962D01*
X151399170Y-67659368D01*
X151388134Y-67677781D01*
X151375346Y-67695024D01*
X151360930Y-67710930D01*
X151345024Y-67725346D01*
X151327781Y-67738134D01*
X151309368Y-67749170D01*
X151289962Y-67758349D01*
X151269750Y-67765581D01*
X151248926Y-67770797D01*
X151227691Y-67773947D01*
X151206250Y-67775000D01*
X150768750Y-67775000D01*
X150747309Y-67773947D01*
X150726074Y-67770797D01*
X150705250Y-67765581D01*
X150685038Y-67758349D01*
X150665632Y-67749170D01*
X150647219Y-67738134D01*
X150629976Y-67725346D01*
X150614070Y-67710930D01*
X150599654Y-67695024D01*
X150586866Y-67677781D01*
X150575830Y-67659368D01*
X150566651Y-67639962D01*
X150559419Y-67619750D01*
X150554203Y-67598926D01*
X150551053Y-67577691D01*
X150550000Y-67556250D01*
X150550000Y-67043750D01*
X150551053Y-67022309D01*
X150554203Y-67001074D01*
X150559419Y-66980250D01*
X150566651Y-66960038D01*
X150575830Y-66940632D01*
X150586866Y-66922219D01*
X150599654Y-66904976D01*
X150614070Y-66889070D01*
X150629976Y-66874654D01*
X150647219Y-66861866D01*
X150665632Y-66850830D01*
X150685038Y-66841651D01*
X150705250Y-66834419D01*
X150726074Y-66829203D01*
X150747309Y-66826053D01*
X150768750Y-66825000D01*
X151206250Y-66825000D01*
X151227691Y-66826053D01*
X151227691Y-66826053D01*
G37*
D13*
X150987500Y-67300000D03*
G04 #@! TD*
D12*
G04 #@! TO.C,C3*
G36*
X176827691Y-96826053D02*
X176848926Y-96829203D01*
X176869750Y-96834419D01*
X176889962Y-96841651D01*
X176909368Y-96850830D01*
X176927781Y-96861866D01*
X176945024Y-96874654D01*
X176960930Y-96889070D01*
X176975346Y-96904976D01*
X176988134Y-96922219D01*
X176999170Y-96940632D01*
X177008349Y-96960038D01*
X177015581Y-96980250D01*
X177020797Y-97001074D01*
X177023947Y-97022309D01*
X177025000Y-97043750D01*
X177025000Y-97556250D01*
X177023947Y-97577691D01*
X177020797Y-97598926D01*
X177015581Y-97619750D01*
X177008349Y-97639962D01*
X176999170Y-97659368D01*
X176988134Y-97677781D01*
X176975346Y-97695024D01*
X176960930Y-97710930D01*
X176945024Y-97725346D01*
X176927781Y-97738134D01*
X176909368Y-97749170D01*
X176889962Y-97758349D01*
X176869750Y-97765581D01*
X176848926Y-97770797D01*
X176827691Y-97773947D01*
X176806250Y-97775000D01*
X176368750Y-97775000D01*
X176347309Y-97773947D01*
X176326074Y-97770797D01*
X176305250Y-97765581D01*
X176285038Y-97758349D01*
X176265632Y-97749170D01*
X176247219Y-97738134D01*
X176229976Y-97725346D01*
X176214070Y-97710930D01*
X176199654Y-97695024D01*
X176186866Y-97677781D01*
X176175830Y-97659368D01*
X176166651Y-97639962D01*
X176159419Y-97619750D01*
X176154203Y-97598926D01*
X176151053Y-97577691D01*
X176150000Y-97556250D01*
X176150000Y-97043750D01*
X176151053Y-97022309D01*
X176154203Y-97001074D01*
X176159419Y-96980250D01*
X176166651Y-96960038D01*
X176175830Y-96940632D01*
X176186866Y-96922219D01*
X176199654Y-96904976D01*
X176214070Y-96889070D01*
X176229976Y-96874654D01*
X176247219Y-96861866D01*
X176265632Y-96850830D01*
X176285038Y-96841651D01*
X176305250Y-96834419D01*
X176326074Y-96829203D01*
X176347309Y-96826053D01*
X176368750Y-96825000D01*
X176806250Y-96825000D01*
X176827691Y-96826053D01*
X176827691Y-96826053D01*
G37*
D13*
X176587500Y-97300000D03*
D12*
G36*
X175252691Y-96826053D02*
X175273926Y-96829203D01*
X175294750Y-96834419D01*
X175314962Y-96841651D01*
X175334368Y-96850830D01*
X175352781Y-96861866D01*
X175370024Y-96874654D01*
X175385930Y-96889070D01*
X175400346Y-96904976D01*
X175413134Y-96922219D01*
X175424170Y-96940632D01*
X175433349Y-96960038D01*
X175440581Y-96980250D01*
X175445797Y-97001074D01*
X175448947Y-97022309D01*
X175450000Y-97043750D01*
X175450000Y-97556250D01*
X175448947Y-97577691D01*
X175445797Y-97598926D01*
X175440581Y-97619750D01*
X175433349Y-97639962D01*
X175424170Y-97659368D01*
X175413134Y-97677781D01*
X175400346Y-97695024D01*
X175385930Y-97710930D01*
X175370024Y-97725346D01*
X175352781Y-97738134D01*
X175334368Y-97749170D01*
X175314962Y-97758349D01*
X175294750Y-97765581D01*
X175273926Y-97770797D01*
X175252691Y-97773947D01*
X175231250Y-97775000D01*
X174793750Y-97775000D01*
X174772309Y-97773947D01*
X174751074Y-97770797D01*
X174730250Y-97765581D01*
X174710038Y-97758349D01*
X174690632Y-97749170D01*
X174672219Y-97738134D01*
X174654976Y-97725346D01*
X174639070Y-97710930D01*
X174624654Y-97695024D01*
X174611866Y-97677781D01*
X174600830Y-97659368D01*
X174591651Y-97639962D01*
X174584419Y-97619750D01*
X174579203Y-97598926D01*
X174576053Y-97577691D01*
X174575000Y-97556250D01*
X174575000Y-97043750D01*
X174576053Y-97022309D01*
X174579203Y-97001074D01*
X174584419Y-96980250D01*
X174591651Y-96960038D01*
X174600830Y-96940632D01*
X174611866Y-96922219D01*
X174624654Y-96904976D01*
X174639070Y-96889070D01*
X174654976Y-96874654D01*
X174672219Y-96861866D01*
X174690632Y-96850830D01*
X174710038Y-96841651D01*
X174730250Y-96834419D01*
X174751074Y-96829203D01*
X174772309Y-96826053D01*
X174793750Y-96825000D01*
X175231250Y-96825000D01*
X175252691Y-96826053D01*
X175252691Y-96826053D01*
G37*
D13*
X175012500Y-97300000D03*
G04 #@! TD*
D12*
G04 #@! TO.C,C7*
G36*
X179652691Y-94426053D02*
X179673926Y-94429203D01*
X179694750Y-94434419D01*
X179714962Y-94441651D01*
X179734368Y-94450830D01*
X179752781Y-94461866D01*
X179770024Y-94474654D01*
X179785930Y-94489070D01*
X179800346Y-94504976D01*
X179813134Y-94522219D01*
X179824170Y-94540632D01*
X179833349Y-94560038D01*
X179840581Y-94580250D01*
X179845797Y-94601074D01*
X179848947Y-94622309D01*
X179850000Y-94643750D01*
X179850000Y-95156250D01*
X179848947Y-95177691D01*
X179845797Y-95198926D01*
X179840581Y-95219750D01*
X179833349Y-95239962D01*
X179824170Y-95259368D01*
X179813134Y-95277781D01*
X179800346Y-95295024D01*
X179785930Y-95310930D01*
X179770024Y-95325346D01*
X179752781Y-95338134D01*
X179734368Y-95349170D01*
X179714962Y-95358349D01*
X179694750Y-95365581D01*
X179673926Y-95370797D01*
X179652691Y-95373947D01*
X179631250Y-95375000D01*
X179193750Y-95375000D01*
X179172309Y-95373947D01*
X179151074Y-95370797D01*
X179130250Y-95365581D01*
X179110038Y-95358349D01*
X179090632Y-95349170D01*
X179072219Y-95338134D01*
X179054976Y-95325346D01*
X179039070Y-95310930D01*
X179024654Y-95295024D01*
X179011866Y-95277781D01*
X179000830Y-95259368D01*
X178991651Y-95239962D01*
X178984419Y-95219750D01*
X178979203Y-95198926D01*
X178976053Y-95177691D01*
X178975000Y-95156250D01*
X178975000Y-94643750D01*
X178976053Y-94622309D01*
X178979203Y-94601074D01*
X178984419Y-94580250D01*
X178991651Y-94560038D01*
X179000830Y-94540632D01*
X179011866Y-94522219D01*
X179024654Y-94504976D01*
X179039070Y-94489070D01*
X179054976Y-94474654D01*
X179072219Y-94461866D01*
X179090632Y-94450830D01*
X179110038Y-94441651D01*
X179130250Y-94434419D01*
X179151074Y-94429203D01*
X179172309Y-94426053D01*
X179193750Y-94425000D01*
X179631250Y-94425000D01*
X179652691Y-94426053D01*
X179652691Y-94426053D01*
G37*
D13*
X179412500Y-94900000D03*
D12*
G36*
X181227691Y-94426053D02*
X181248926Y-94429203D01*
X181269750Y-94434419D01*
X181289962Y-94441651D01*
X181309368Y-94450830D01*
X181327781Y-94461866D01*
X181345024Y-94474654D01*
X181360930Y-94489070D01*
X181375346Y-94504976D01*
X181388134Y-94522219D01*
X181399170Y-94540632D01*
X181408349Y-94560038D01*
X181415581Y-94580250D01*
X181420797Y-94601074D01*
X181423947Y-94622309D01*
X181425000Y-94643750D01*
X181425000Y-95156250D01*
X181423947Y-95177691D01*
X181420797Y-95198926D01*
X181415581Y-95219750D01*
X181408349Y-95239962D01*
X181399170Y-95259368D01*
X181388134Y-95277781D01*
X181375346Y-95295024D01*
X181360930Y-95310930D01*
X181345024Y-95325346D01*
X181327781Y-95338134D01*
X181309368Y-95349170D01*
X181289962Y-95358349D01*
X181269750Y-95365581D01*
X181248926Y-95370797D01*
X181227691Y-95373947D01*
X181206250Y-95375000D01*
X180768750Y-95375000D01*
X180747309Y-95373947D01*
X180726074Y-95370797D01*
X180705250Y-95365581D01*
X180685038Y-95358349D01*
X180665632Y-95349170D01*
X180647219Y-95338134D01*
X180629976Y-95325346D01*
X180614070Y-95310930D01*
X180599654Y-95295024D01*
X180586866Y-95277781D01*
X180575830Y-95259368D01*
X180566651Y-95239962D01*
X180559419Y-95219750D01*
X180554203Y-95198926D01*
X180551053Y-95177691D01*
X180550000Y-95156250D01*
X180550000Y-94643750D01*
X180551053Y-94622309D01*
X180554203Y-94601074D01*
X180559419Y-94580250D01*
X180566651Y-94560038D01*
X180575830Y-94540632D01*
X180586866Y-94522219D01*
X180599654Y-94504976D01*
X180614070Y-94489070D01*
X180629976Y-94474654D01*
X180647219Y-94461866D01*
X180665632Y-94450830D01*
X180685038Y-94441651D01*
X180705250Y-94434419D01*
X180726074Y-94429203D01*
X180747309Y-94426053D01*
X180768750Y-94425000D01*
X181206250Y-94425000D01*
X181227691Y-94426053D01*
X181227691Y-94426053D01*
G37*
D13*
X180987500Y-94900000D03*
G04 #@! TD*
D12*
G04 #@! TO.C,C11*
G36*
X175552691Y-103426053D02*
X175573926Y-103429203D01*
X175594750Y-103434419D01*
X175614962Y-103441651D01*
X175634368Y-103450830D01*
X175652781Y-103461866D01*
X175670024Y-103474654D01*
X175685930Y-103489070D01*
X175700346Y-103504976D01*
X175713134Y-103522219D01*
X175724170Y-103540632D01*
X175733349Y-103560038D01*
X175740581Y-103580250D01*
X175745797Y-103601074D01*
X175748947Y-103622309D01*
X175750000Y-103643750D01*
X175750000Y-104156250D01*
X175748947Y-104177691D01*
X175745797Y-104198926D01*
X175740581Y-104219750D01*
X175733349Y-104239962D01*
X175724170Y-104259368D01*
X175713134Y-104277781D01*
X175700346Y-104295024D01*
X175685930Y-104310930D01*
X175670024Y-104325346D01*
X175652781Y-104338134D01*
X175634368Y-104349170D01*
X175614962Y-104358349D01*
X175594750Y-104365581D01*
X175573926Y-104370797D01*
X175552691Y-104373947D01*
X175531250Y-104375000D01*
X175093750Y-104375000D01*
X175072309Y-104373947D01*
X175051074Y-104370797D01*
X175030250Y-104365581D01*
X175010038Y-104358349D01*
X174990632Y-104349170D01*
X174972219Y-104338134D01*
X174954976Y-104325346D01*
X174939070Y-104310930D01*
X174924654Y-104295024D01*
X174911866Y-104277781D01*
X174900830Y-104259368D01*
X174891651Y-104239962D01*
X174884419Y-104219750D01*
X174879203Y-104198926D01*
X174876053Y-104177691D01*
X174875000Y-104156250D01*
X174875000Y-103643750D01*
X174876053Y-103622309D01*
X174879203Y-103601074D01*
X174884419Y-103580250D01*
X174891651Y-103560038D01*
X174900830Y-103540632D01*
X174911866Y-103522219D01*
X174924654Y-103504976D01*
X174939070Y-103489070D01*
X174954976Y-103474654D01*
X174972219Y-103461866D01*
X174990632Y-103450830D01*
X175010038Y-103441651D01*
X175030250Y-103434419D01*
X175051074Y-103429203D01*
X175072309Y-103426053D01*
X175093750Y-103425000D01*
X175531250Y-103425000D01*
X175552691Y-103426053D01*
X175552691Y-103426053D01*
G37*
D13*
X175312500Y-103900000D03*
D12*
G36*
X177127691Y-103426053D02*
X177148926Y-103429203D01*
X177169750Y-103434419D01*
X177189962Y-103441651D01*
X177209368Y-103450830D01*
X177227781Y-103461866D01*
X177245024Y-103474654D01*
X177260930Y-103489070D01*
X177275346Y-103504976D01*
X177288134Y-103522219D01*
X177299170Y-103540632D01*
X177308349Y-103560038D01*
X177315581Y-103580250D01*
X177320797Y-103601074D01*
X177323947Y-103622309D01*
X177325000Y-103643750D01*
X177325000Y-104156250D01*
X177323947Y-104177691D01*
X177320797Y-104198926D01*
X177315581Y-104219750D01*
X177308349Y-104239962D01*
X177299170Y-104259368D01*
X177288134Y-104277781D01*
X177275346Y-104295024D01*
X177260930Y-104310930D01*
X177245024Y-104325346D01*
X177227781Y-104338134D01*
X177209368Y-104349170D01*
X177189962Y-104358349D01*
X177169750Y-104365581D01*
X177148926Y-104370797D01*
X177127691Y-104373947D01*
X177106250Y-104375000D01*
X176668750Y-104375000D01*
X176647309Y-104373947D01*
X176626074Y-104370797D01*
X176605250Y-104365581D01*
X176585038Y-104358349D01*
X176565632Y-104349170D01*
X176547219Y-104338134D01*
X176529976Y-104325346D01*
X176514070Y-104310930D01*
X176499654Y-104295024D01*
X176486866Y-104277781D01*
X176475830Y-104259368D01*
X176466651Y-104239962D01*
X176459419Y-104219750D01*
X176454203Y-104198926D01*
X176451053Y-104177691D01*
X176450000Y-104156250D01*
X176450000Y-103643750D01*
X176451053Y-103622309D01*
X176454203Y-103601074D01*
X176459419Y-103580250D01*
X176466651Y-103560038D01*
X176475830Y-103540632D01*
X176486866Y-103522219D01*
X176499654Y-103504976D01*
X176514070Y-103489070D01*
X176529976Y-103474654D01*
X176547219Y-103461866D01*
X176565632Y-103450830D01*
X176585038Y-103441651D01*
X176605250Y-103434419D01*
X176626074Y-103429203D01*
X176647309Y-103426053D01*
X176668750Y-103425000D01*
X177106250Y-103425000D01*
X177127691Y-103426053D01*
X177127691Y-103426053D01*
G37*
D13*
X176887500Y-103900000D03*
G04 #@! TD*
D12*
G04 #@! TO.C,C12*
G36*
X167277691Y-89776053D02*
X167298926Y-89779203D01*
X167319750Y-89784419D01*
X167339962Y-89791651D01*
X167359368Y-89800830D01*
X167377781Y-89811866D01*
X167395024Y-89824654D01*
X167410930Y-89839070D01*
X167425346Y-89854976D01*
X167438134Y-89872219D01*
X167449170Y-89890632D01*
X167458349Y-89910038D01*
X167465581Y-89930250D01*
X167470797Y-89951074D01*
X167473947Y-89972309D01*
X167475000Y-89993750D01*
X167475000Y-90431250D01*
X167473947Y-90452691D01*
X167470797Y-90473926D01*
X167465581Y-90494750D01*
X167458349Y-90514962D01*
X167449170Y-90534368D01*
X167438134Y-90552781D01*
X167425346Y-90570024D01*
X167410930Y-90585930D01*
X167395024Y-90600346D01*
X167377781Y-90613134D01*
X167359368Y-90624170D01*
X167339962Y-90633349D01*
X167319750Y-90640581D01*
X167298926Y-90645797D01*
X167277691Y-90648947D01*
X167256250Y-90650000D01*
X166743750Y-90650000D01*
X166722309Y-90648947D01*
X166701074Y-90645797D01*
X166680250Y-90640581D01*
X166660038Y-90633349D01*
X166640632Y-90624170D01*
X166622219Y-90613134D01*
X166604976Y-90600346D01*
X166589070Y-90585930D01*
X166574654Y-90570024D01*
X166561866Y-90552781D01*
X166550830Y-90534368D01*
X166541651Y-90514962D01*
X166534419Y-90494750D01*
X166529203Y-90473926D01*
X166526053Y-90452691D01*
X166525000Y-90431250D01*
X166525000Y-89993750D01*
X166526053Y-89972309D01*
X166529203Y-89951074D01*
X166534419Y-89930250D01*
X166541651Y-89910038D01*
X166550830Y-89890632D01*
X166561866Y-89872219D01*
X166574654Y-89854976D01*
X166589070Y-89839070D01*
X166604976Y-89824654D01*
X166622219Y-89811866D01*
X166640632Y-89800830D01*
X166660038Y-89791651D01*
X166680250Y-89784419D01*
X166701074Y-89779203D01*
X166722309Y-89776053D01*
X166743750Y-89775000D01*
X167256250Y-89775000D01*
X167277691Y-89776053D01*
X167277691Y-89776053D01*
G37*
D13*
X167000000Y-90212500D03*
D12*
G36*
X167277691Y-91351053D02*
X167298926Y-91354203D01*
X167319750Y-91359419D01*
X167339962Y-91366651D01*
X167359368Y-91375830D01*
X167377781Y-91386866D01*
X167395024Y-91399654D01*
X167410930Y-91414070D01*
X167425346Y-91429976D01*
X167438134Y-91447219D01*
X167449170Y-91465632D01*
X167458349Y-91485038D01*
X167465581Y-91505250D01*
X167470797Y-91526074D01*
X167473947Y-91547309D01*
X167475000Y-91568750D01*
X167475000Y-92006250D01*
X167473947Y-92027691D01*
X167470797Y-92048926D01*
X167465581Y-92069750D01*
X167458349Y-92089962D01*
X167449170Y-92109368D01*
X167438134Y-92127781D01*
X167425346Y-92145024D01*
X167410930Y-92160930D01*
X167395024Y-92175346D01*
X167377781Y-92188134D01*
X167359368Y-92199170D01*
X167339962Y-92208349D01*
X167319750Y-92215581D01*
X167298926Y-92220797D01*
X167277691Y-92223947D01*
X167256250Y-92225000D01*
X166743750Y-92225000D01*
X166722309Y-92223947D01*
X166701074Y-92220797D01*
X166680250Y-92215581D01*
X166660038Y-92208349D01*
X166640632Y-92199170D01*
X166622219Y-92188134D01*
X166604976Y-92175346D01*
X166589070Y-92160930D01*
X166574654Y-92145024D01*
X166561866Y-92127781D01*
X166550830Y-92109368D01*
X166541651Y-92089962D01*
X166534419Y-92069750D01*
X166529203Y-92048926D01*
X166526053Y-92027691D01*
X166525000Y-92006250D01*
X166525000Y-91568750D01*
X166526053Y-91547309D01*
X166529203Y-91526074D01*
X166534419Y-91505250D01*
X166541651Y-91485038D01*
X166550830Y-91465632D01*
X166561866Y-91447219D01*
X166574654Y-91429976D01*
X166589070Y-91414070D01*
X166604976Y-91399654D01*
X166622219Y-91386866D01*
X166640632Y-91375830D01*
X166660038Y-91366651D01*
X166680250Y-91359419D01*
X166701074Y-91354203D01*
X166722309Y-91351053D01*
X166743750Y-91350000D01*
X167256250Y-91350000D01*
X167277691Y-91351053D01*
X167277691Y-91351053D01*
G37*
D13*
X167000000Y-91787500D03*
G04 #@! TD*
D12*
G04 #@! TO.C,C13*
G36*
X175552691Y-101926053D02*
X175573926Y-101929203D01*
X175594750Y-101934419D01*
X175614962Y-101941651D01*
X175634368Y-101950830D01*
X175652781Y-101961866D01*
X175670024Y-101974654D01*
X175685930Y-101989070D01*
X175700346Y-102004976D01*
X175713134Y-102022219D01*
X175724170Y-102040632D01*
X175733349Y-102060038D01*
X175740581Y-102080250D01*
X175745797Y-102101074D01*
X175748947Y-102122309D01*
X175750000Y-102143750D01*
X175750000Y-102656250D01*
X175748947Y-102677691D01*
X175745797Y-102698926D01*
X175740581Y-102719750D01*
X175733349Y-102739962D01*
X175724170Y-102759368D01*
X175713134Y-102777781D01*
X175700346Y-102795024D01*
X175685930Y-102810930D01*
X175670024Y-102825346D01*
X175652781Y-102838134D01*
X175634368Y-102849170D01*
X175614962Y-102858349D01*
X175594750Y-102865581D01*
X175573926Y-102870797D01*
X175552691Y-102873947D01*
X175531250Y-102875000D01*
X175093750Y-102875000D01*
X175072309Y-102873947D01*
X175051074Y-102870797D01*
X175030250Y-102865581D01*
X175010038Y-102858349D01*
X174990632Y-102849170D01*
X174972219Y-102838134D01*
X174954976Y-102825346D01*
X174939070Y-102810930D01*
X174924654Y-102795024D01*
X174911866Y-102777781D01*
X174900830Y-102759368D01*
X174891651Y-102739962D01*
X174884419Y-102719750D01*
X174879203Y-102698926D01*
X174876053Y-102677691D01*
X174875000Y-102656250D01*
X174875000Y-102143750D01*
X174876053Y-102122309D01*
X174879203Y-102101074D01*
X174884419Y-102080250D01*
X174891651Y-102060038D01*
X174900830Y-102040632D01*
X174911866Y-102022219D01*
X174924654Y-102004976D01*
X174939070Y-101989070D01*
X174954976Y-101974654D01*
X174972219Y-101961866D01*
X174990632Y-101950830D01*
X175010038Y-101941651D01*
X175030250Y-101934419D01*
X175051074Y-101929203D01*
X175072309Y-101926053D01*
X175093750Y-101925000D01*
X175531250Y-101925000D01*
X175552691Y-101926053D01*
X175552691Y-101926053D01*
G37*
D13*
X175312500Y-102400000D03*
D12*
G36*
X177127691Y-101926053D02*
X177148926Y-101929203D01*
X177169750Y-101934419D01*
X177189962Y-101941651D01*
X177209368Y-101950830D01*
X177227781Y-101961866D01*
X177245024Y-101974654D01*
X177260930Y-101989070D01*
X177275346Y-102004976D01*
X177288134Y-102022219D01*
X177299170Y-102040632D01*
X177308349Y-102060038D01*
X177315581Y-102080250D01*
X177320797Y-102101074D01*
X177323947Y-102122309D01*
X177325000Y-102143750D01*
X177325000Y-102656250D01*
X177323947Y-102677691D01*
X177320797Y-102698926D01*
X177315581Y-102719750D01*
X177308349Y-102739962D01*
X177299170Y-102759368D01*
X177288134Y-102777781D01*
X177275346Y-102795024D01*
X177260930Y-102810930D01*
X177245024Y-102825346D01*
X177227781Y-102838134D01*
X177209368Y-102849170D01*
X177189962Y-102858349D01*
X177169750Y-102865581D01*
X177148926Y-102870797D01*
X177127691Y-102873947D01*
X177106250Y-102875000D01*
X176668750Y-102875000D01*
X176647309Y-102873947D01*
X176626074Y-102870797D01*
X176605250Y-102865581D01*
X176585038Y-102858349D01*
X176565632Y-102849170D01*
X176547219Y-102838134D01*
X176529976Y-102825346D01*
X176514070Y-102810930D01*
X176499654Y-102795024D01*
X176486866Y-102777781D01*
X176475830Y-102759368D01*
X176466651Y-102739962D01*
X176459419Y-102719750D01*
X176454203Y-102698926D01*
X176451053Y-102677691D01*
X176450000Y-102656250D01*
X176450000Y-102143750D01*
X176451053Y-102122309D01*
X176454203Y-102101074D01*
X176459419Y-102080250D01*
X176466651Y-102060038D01*
X176475830Y-102040632D01*
X176486866Y-102022219D01*
X176499654Y-102004976D01*
X176514070Y-101989070D01*
X176529976Y-101974654D01*
X176547219Y-101961866D01*
X176565632Y-101950830D01*
X176585038Y-101941651D01*
X176605250Y-101934419D01*
X176626074Y-101929203D01*
X176647309Y-101926053D01*
X176668750Y-101925000D01*
X177106250Y-101925000D01*
X177127691Y-101926053D01*
X177127691Y-101926053D01*
G37*
D13*
X176887500Y-102400000D03*
G04 #@! TD*
D12*
G04 #@! TO.C,C14*
G36*
X177127691Y-100426053D02*
X177148926Y-100429203D01*
X177169750Y-100434419D01*
X177189962Y-100441651D01*
X177209368Y-100450830D01*
X177227781Y-100461866D01*
X177245024Y-100474654D01*
X177260930Y-100489070D01*
X177275346Y-100504976D01*
X177288134Y-100522219D01*
X177299170Y-100540632D01*
X177308349Y-100560038D01*
X177315581Y-100580250D01*
X177320797Y-100601074D01*
X177323947Y-100622309D01*
X177325000Y-100643750D01*
X177325000Y-101156250D01*
X177323947Y-101177691D01*
X177320797Y-101198926D01*
X177315581Y-101219750D01*
X177308349Y-101239962D01*
X177299170Y-101259368D01*
X177288134Y-101277781D01*
X177275346Y-101295024D01*
X177260930Y-101310930D01*
X177245024Y-101325346D01*
X177227781Y-101338134D01*
X177209368Y-101349170D01*
X177189962Y-101358349D01*
X177169750Y-101365581D01*
X177148926Y-101370797D01*
X177127691Y-101373947D01*
X177106250Y-101375000D01*
X176668750Y-101375000D01*
X176647309Y-101373947D01*
X176626074Y-101370797D01*
X176605250Y-101365581D01*
X176585038Y-101358349D01*
X176565632Y-101349170D01*
X176547219Y-101338134D01*
X176529976Y-101325346D01*
X176514070Y-101310930D01*
X176499654Y-101295024D01*
X176486866Y-101277781D01*
X176475830Y-101259368D01*
X176466651Y-101239962D01*
X176459419Y-101219750D01*
X176454203Y-101198926D01*
X176451053Y-101177691D01*
X176450000Y-101156250D01*
X176450000Y-100643750D01*
X176451053Y-100622309D01*
X176454203Y-100601074D01*
X176459419Y-100580250D01*
X176466651Y-100560038D01*
X176475830Y-100540632D01*
X176486866Y-100522219D01*
X176499654Y-100504976D01*
X176514070Y-100489070D01*
X176529976Y-100474654D01*
X176547219Y-100461866D01*
X176565632Y-100450830D01*
X176585038Y-100441651D01*
X176605250Y-100434419D01*
X176626074Y-100429203D01*
X176647309Y-100426053D01*
X176668750Y-100425000D01*
X177106250Y-100425000D01*
X177127691Y-100426053D01*
X177127691Y-100426053D01*
G37*
D13*
X176887500Y-100900000D03*
D12*
G36*
X175552691Y-100426053D02*
X175573926Y-100429203D01*
X175594750Y-100434419D01*
X175614962Y-100441651D01*
X175634368Y-100450830D01*
X175652781Y-100461866D01*
X175670024Y-100474654D01*
X175685930Y-100489070D01*
X175700346Y-100504976D01*
X175713134Y-100522219D01*
X175724170Y-100540632D01*
X175733349Y-100560038D01*
X175740581Y-100580250D01*
X175745797Y-100601074D01*
X175748947Y-100622309D01*
X175750000Y-100643750D01*
X175750000Y-101156250D01*
X175748947Y-101177691D01*
X175745797Y-101198926D01*
X175740581Y-101219750D01*
X175733349Y-101239962D01*
X175724170Y-101259368D01*
X175713134Y-101277781D01*
X175700346Y-101295024D01*
X175685930Y-101310930D01*
X175670024Y-101325346D01*
X175652781Y-101338134D01*
X175634368Y-101349170D01*
X175614962Y-101358349D01*
X175594750Y-101365581D01*
X175573926Y-101370797D01*
X175552691Y-101373947D01*
X175531250Y-101375000D01*
X175093750Y-101375000D01*
X175072309Y-101373947D01*
X175051074Y-101370797D01*
X175030250Y-101365581D01*
X175010038Y-101358349D01*
X174990632Y-101349170D01*
X174972219Y-101338134D01*
X174954976Y-101325346D01*
X174939070Y-101310930D01*
X174924654Y-101295024D01*
X174911866Y-101277781D01*
X174900830Y-101259368D01*
X174891651Y-101239962D01*
X174884419Y-101219750D01*
X174879203Y-101198926D01*
X174876053Y-101177691D01*
X174875000Y-101156250D01*
X174875000Y-100643750D01*
X174876053Y-100622309D01*
X174879203Y-100601074D01*
X174884419Y-100580250D01*
X174891651Y-100560038D01*
X174900830Y-100540632D01*
X174911866Y-100522219D01*
X174924654Y-100504976D01*
X174939070Y-100489070D01*
X174954976Y-100474654D01*
X174972219Y-100461866D01*
X174990632Y-100450830D01*
X175010038Y-100441651D01*
X175030250Y-100434419D01*
X175051074Y-100429203D01*
X175072309Y-100426053D01*
X175093750Y-100425000D01*
X175531250Y-100425000D01*
X175552691Y-100426053D01*
X175552691Y-100426053D01*
G37*
D13*
X175312500Y-100900000D03*
G04 #@! TD*
D12*
G04 #@! TO.C,C15*
G36*
X175552691Y-98926053D02*
X175573926Y-98929203D01*
X175594750Y-98934419D01*
X175614962Y-98941651D01*
X175634368Y-98950830D01*
X175652781Y-98961866D01*
X175670024Y-98974654D01*
X175685930Y-98989070D01*
X175700346Y-99004976D01*
X175713134Y-99022219D01*
X175724170Y-99040632D01*
X175733349Y-99060038D01*
X175740581Y-99080250D01*
X175745797Y-99101074D01*
X175748947Y-99122309D01*
X175750000Y-99143750D01*
X175750000Y-99656250D01*
X175748947Y-99677691D01*
X175745797Y-99698926D01*
X175740581Y-99719750D01*
X175733349Y-99739962D01*
X175724170Y-99759368D01*
X175713134Y-99777781D01*
X175700346Y-99795024D01*
X175685930Y-99810930D01*
X175670024Y-99825346D01*
X175652781Y-99838134D01*
X175634368Y-99849170D01*
X175614962Y-99858349D01*
X175594750Y-99865581D01*
X175573926Y-99870797D01*
X175552691Y-99873947D01*
X175531250Y-99875000D01*
X175093750Y-99875000D01*
X175072309Y-99873947D01*
X175051074Y-99870797D01*
X175030250Y-99865581D01*
X175010038Y-99858349D01*
X174990632Y-99849170D01*
X174972219Y-99838134D01*
X174954976Y-99825346D01*
X174939070Y-99810930D01*
X174924654Y-99795024D01*
X174911866Y-99777781D01*
X174900830Y-99759368D01*
X174891651Y-99739962D01*
X174884419Y-99719750D01*
X174879203Y-99698926D01*
X174876053Y-99677691D01*
X174875000Y-99656250D01*
X174875000Y-99143750D01*
X174876053Y-99122309D01*
X174879203Y-99101074D01*
X174884419Y-99080250D01*
X174891651Y-99060038D01*
X174900830Y-99040632D01*
X174911866Y-99022219D01*
X174924654Y-99004976D01*
X174939070Y-98989070D01*
X174954976Y-98974654D01*
X174972219Y-98961866D01*
X174990632Y-98950830D01*
X175010038Y-98941651D01*
X175030250Y-98934419D01*
X175051074Y-98929203D01*
X175072309Y-98926053D01*
X175093750Y-98925000D01*
X175531250Y-98925000D01*
X175552691Y-98926053D01*
X175552691Y-98926053D01*
G37*
D13*
X175312500Y-99400000D03*
D12*
G36*
X177127691Y-98926053D02*
X177148926Y-98929203D01*
X177169750Y-98934419D01*
X177189962Y-98941651D01*
X177209368Y-98950830D01*
X177227781Y-98961866D01*
X177245024Y-98974654D01*
X177260930Y-98989070D01*
X177275346Y-99004976D01*
X177288134Y-99022219D01*
X177299170Y-99040632D01*
X177308349Y-99060038D01*
X177315581Y-99080250D01*
X177320797Y-99101074D01*
X177323947Y-99122309D01*
X177325000Y-99143750D01*
X177325000Y-99656250D01*
X177323947Y-99677691D01*
X177320797Y-99698926D01*
X177315581Y-99719750D01*
X177308349Y-99739962D01*
X177299170Y-99759368D01*
X177288134Y-99777781D01*
X177275346Y-99795024D01*
X177260930Y-99810930D01*
X177245024Y-99825346D01*
X177227781Y-99838134D01*
X177209368Y-99849170D01*
X177189962Y-99858349D01*
X177169750Y-99865581D01*
X177148926Y-99870797D01*
X177127691Y-99873947D01*
X177106250Y-99875000D01*
X176668750Y-99875000D01*
X176647309Y-99873947D01*
X176626074Y-99870797D01*
X176605250Y-99865581D01*
X176585038Y-99858349D01*
X176565632Y-99849170D01*
X176547219Y-99838134D01*
X176529976Y-99825346D01*
X176514070Y-99810930D01*
X176499654Y-99795024D01*
X176486866Y-99777781D01*
X176475830Y-99759368D01*
X176466651Y-99739962D01*
X176459419Y-99719750D01*
X176454203Y-99698926D01*
X176451053Y-99677691D01*
X176450000Y-99656250D01*
X176450000Y-99143750D01*
X176451053Y-99122309D01*
X176454203Y-99101074D01*
X176459419Y-99080250D01*
X176466651Y-99060038D01*
X176475830Y-99040632D01*
X176486866Y-99022219D01*
X176499654Y-99004976D01*
X176514070Y-98989070D01*
X176529976Y-98974654D01*
X176547219Y-98961866D01*
X176565632Y-98950830D01*
X176585038Y-98941651D01*
X176605250Y-98934419D01*
X176626074Y-98929203D01*
X176647309Y-98926053D01*
X176668750Y-98925000D01*
X177106250Y-98925000D01*
X177127691Y-98926053D01*
X177127691Y-98926053D01*
G37*
D13*
X176887500Y-99400000D03*
G04 #@! TD*
D12*
G04 #@! TO.C,C16*
G36*
X169077691Y-89776053D02*
X169098926Y-89779203D01*
X169119750Y-89784419D01*
X169139962Y-89791651D01*
X169159368Y-89800830D01*
X169177781Y-89811866D01*
X169195024Y-89824654D01*
X169210930Y-89839070D01*
X169225346Y-89854976D01*
X169238134Y-89872219D01*
X169249170Y-89890632D01*
X169258349Y-89910038D01*
X169265581Y-89930250D01*
X169270797Y-89951074D01*
X169273947Y-89972309D01*
X169275000Y-89993750D01*
X169275000Y-90431250D01*
X169273947Y-90452691D01*
X169270797Y-90473926D01*
X169265581Y-90494750D01*
X169258349Y-90514962D01*
X169249170Y-90534368D01*
X169238134Y-90552781D01*
X169225346Y-90570024D01*
X169210930Y-90585930D01*
X169195024Y-90600346D01*
X169177781Y-90613134D01*
X169159368Y-90624170D01*
X169139962Y-90633349D01*
X169119750Y-90640581D01*
X169098926Y-90645797D01*
X169077691Y-90648947D01*
X169056250Y-90650000D01*
X168543750Y-90650000D01*
X168522309Y-90648947D01*
X168501074Y-90645797D01*
X168480250Y-90640581D01*
X168460038Y-90633349D01*
X168440632Y-90624170D01*
X168422219Y-90613134D01*
X168404976Y-90600346D01*
X168389070Y-90585930D01*
X168374654Y-90570024D01*
X168361866Y-90552781D01*
X168350830Y-90534368D01*
X168341651Y-90514962D01*
X168334419Y-90494750D01*
X168329203Y-90473926D01*
X168326053Y-90452691D01*
X168325000Y-90431250D01*
X168325000Y-89993750D01*
X168326053Y-89972309D01*
X168329203Y-89951074D01*
X168334419Y-89930250D01*
X168341651Y-89910038D01*
X168350830Y-89890632D01*
X168361866Y-89872219D01*
X168374654Y-89854976D01*
X168389070Y-89839070D01*
X168404976Y-89824654D01*
X168422219Y-89811866D01*
X168440632Y-89800830D01*
X168460038Y-89791651D01*
X168480250Y-89784419D01*
X168501074Y-89779203D01*
X168522309Y-89776053D01*
X168543750Y-89775000D01*
X169056250Y-89775000D01*
X169077691Y-89776053D01*
X169077691Y-89776053D01*
G37*
D13*
X168800000Y-90212500D03*
D12*
G36*
X169077691Y-91351053D02*
X169098926Y-91354203D01*
X169119750Y-91359419D01*
X169139962Y-91366651D01*
X169159368Y-91375830D01*
X169177781Y-91386866D01*
X169195024Y-91399654D01*
X169210930Y-91414070D01*
X169225346Y-91429976D01*
X169238134Y-91447219D01*
X169249170Y-91465632D01*
X169258349Y-91485038D01*
X169265581Y-91505250D01*
X169270797Y-91526074D01*
X169273947Y-91547309D01*
X169275000Y-91568750D01*
X169275000Y-92006250D01*
X169273947Y-92027691D01*
X169270797Y-92048926D01*
X169265581Y-92069750D01*
X169258349Y-92089962D01*
X169249170Y-92109368D01*
X169238134Y-92127781D01*
X169225346Y-92145024D01*
X169210930Y-92160930D01*
X169195024Y-92175346D01*
X169177781Y-92188134D01*
X169159368Y-92199170D01*
X169139962Y-92208349D01*
X169119750Y-92215581D01*
X169098926Y-92220797D01*
X169077691Y-92223947D01*
X169056250Y-92225000D01*
X168543750Y-92225000D01*
X168522309Y-92223947D01*
X168501074Y-92220797D01*
X168480250Y-92215581D01*
X168460038Y-92208349D01*
X168440632Y-92199170D01*
X168422219Y-92188134D01*
X168404976Y-92175346D01*
X168389070Y-92160930D01*
X168374654Y-92145024D01*
X168361866Y-92127781D01*
X168350830Y-92109368D01*
X168341651Y-92089962D01*
X168334419Y-92069750D01*
X168329203Y-92048926D01*
X168326053Y-92027691D01*
X168325000Y-92006250D01*
X168325000Y-91568750D01*
X168326053Y-91547309D01*
X168329203Y-91526074D01*
X168334419Y-91505250D01*
X168341651Y-91485038D01*
X168350830Y-91465632D01*
X168361866Y-91447219D01*
X168374654Y-91429976D01*
X168389070Y-91414070D01*
X168404976Y-91399654D01*
X168422219Y-91386866D01*
X168440632Y-91375830D01*
X168460038Y-91366651D01*
X168480250Y-91359419D01*
X168501074Y-91354203D01*
X168522309Y-91351053D01*
X168543750Y-91350000D01*
X169056250Y-91350000D01*
X169077691Y-91351053D01*
X169077691Y-91351053D01*
G37*
D13*
X168800000Y-91787500D03*
G04 #@! TD*
D12*
G04 #@! TO.C,C17*
G36*
X170877691Y-91351053D02*
X170898926Y-91354203D01*
X170919750Y-91359419D01*
X170939962Y-91366651D01*
X170959368Y-91375830D01*
X170977781Y-91386866D01*
X170995024Y-91399654D01*
X171010930Y-91414070D01*
X171025346Y-91429976D01*
X171038134Y-91447219D01*
X171049170Y-91465632D01*
X171058349Y-91485038D01*
X171065581Y-91505250D01*
X171070797Y-91526074D01*
X171073947Y-91547309D01*
X171075000Y-91568750D01*
X171075000Y-92006250D01*
X171073947Y-92027691D01*
X171070797Y-92048926D01*
X171065581Y-92069750D01*
X171058349Y-92089962D01*
X171049170Y-92109368D01*
X171038134Y-92127781D01*
X171025346Y-92145024D01*
X171010930Y-92160930D01*
X170995024Y-92175346D01*
X170977781Y-92188134D01*
X170959368Y-92199170D01*
X170939962Y-92208349D01*
X170919750Y-92215581D01*
X170898926Y-92220797D01*
X170877691Y-92223947D01*
X170856250Y-92225000D01*
X170343750Y-92225000D01*
X170322309Y-92223947D01*
X170301074Y-92220797D01*
X170280250Y-92215581D01*
X170260038Y-92208349D01*
X170240632Y-92199170D01*
X170222219Y-92188134D01*
X170204976Y-92175346D01*
X170189070Y-92160930D01*
X170174654Y-92145024D01*
X170161866Y-92127781D01*
X170150830Y-92109368D01*
X170141651Y-92089962D01*
X170134419Y-92069750D01*
X170129203Y-92048926D01*
X170126053Y-92027691D01*
X170125000Y-92006250D01*
X170125000Y-91568750D01*
X170126053Y-91547309D01*
X170129203Y-91526074D01*
X170134419Y-91505250D01*
X170141651Y-91485038D01*
X170150830Y-91465632D01*
X170161866Y-91447219D01*
X170174654Y-91429976D01*
X170189070Y-91414070D01*
X170204976Y-91399654D01*
X170222219Y-91386866D01*
X170240632Y-91375830D01*
X170260038Y-91366651D01*
X170280250Y-91359419D01*
X170301074Y-91354203D01*
X170322309Y-91351053D01*
X170343750Y-91350000D01*
X170856250Y-91350000D01*
X170877691Y-91351053D01*
X170877691Y-91351053D01*
G37*
D13*
X170600000Y-91787500D03*
D12*
G36*
X170877691Y-89776053D02*
X170898926Y-89779203D01*
X170919750Y-89784419D01*
X170939962Y-89791651D01*
X170959368Y-89800830D01*
X170977781Y-89811866D01*
X170995024Y-89824654D01*
X171010930Y-89839070D01*
X171025346Y-89854976D01*
X171038134Y-89872219D01*
X171049170Y-89890632D01*
X171058349Y-89910038D01*
X171065581Y-89930250D01*
X171070797Y-89951074D01*
X171073947Y-89972309D01*
X171075000Y-89993750D01*
X171075000Y-90431250D01*
X171073947Y-90452691D01*
X171070797Y-90473926D01*
X171065581Y-90494750D01*
X171058349Y-90514962D01*
X171049170Y-90534368D01*
X171038134Y-90552781D01*
X171025346Y-90570024D01*
X171010930Y-90585930D01*
X170995024Y-90600346D01*
X170977781Y-90613134D01*
X170959368Y-90624170D01*
X170939962Y-90633349D01*
X170919750Y-90640581D01*
X170898926Y-90645797D01*
X170877691Y-90648947D01*
X170856250Y-90650000D01*
X170343750Y-90650000D01*
X170322309Y-90648947D01*
X170301074Y-90645797D01*
X170280250Y-90640581D01*
X170260038Y-90633349D01*
X170240632Y-90624170D01*
X170222219Y-90613134D01*
X170204976Y-90600346D01*
X170189070Y-90585930D01*
X170174654Y-90570024D01*
X170161866Y-90552781D01*
X170150830Y-90534368D01*
X170141651Y-90514962D01*
X170134419Y-90494750D01*
X170129203Y-90473926D01*
X170126053Y-90452691D01*
X170125000Y-90431250D01*
X170125000Y-89993750D01*
X170126053Y-89972309D01*
X170129203Y-89951074D01*
X170134419Y-89930250D01*
X170141651Y-89910038D01*
X170150830Y-89890632D01*
X170161866Y-89872219D01*
X170174654Y-89854976D01*
X170189070Y-89839070D01*
X170204976Y-89824654D01*
X170222219Y-89811866D01*
X170240632Y-89800830D01*
X170260038Y-89791651D01*
X170280250Y-89784419D01*
X170301074Y-89779203D01*
X170322309Y-89776053D01*
X170343750Y-89775000D01*
X170856250Y-89775000D01*
X170877691Y-89776053D01*
X170877691Y-89776053D01*
G37*
D13*
X170600000Y-90212500D03*
G04 #@! TD*
D12*
G04 #@! TO.C,C18*
G36*
X154227691Y-103101053D02*
X154248926Y-103104203D01*
X154269750Y-103109419D01*
X154289962Y-103116651D01*
X154309368Y-103125830D01*
X154327781Y-103136866D01*
X154345024Y-103149654D01*
X154360930Y-103164070D01*
X154375346Y-103179976D01*
X154388134Y-103197219D01*
X154399170Y-103215632D01*
X154408349Y-103235038D01*
X154415581Y-103255250D01*
X154420797Y-103276074D01*
X154423947Y-103297309D01*
X154425000Y-103318750D01*
X154425000Y-103756250D01*
X154423947Y-103777691D01*
X154420797Y-103798926D01*
X154415581Y-103819750D01*
X154408349Y-103839962D01*
X154399170Y-103859368D01*
X154388134Y-103877781D01*
X154375346Y-103895024D01*
X154360930Y-103910930D01*
X154345024Y-103925346D01*
X154327781Y-103938134D01*
X154309368Y-103949170D01*
X154289962Y-103958349D01*
X154269750Y-103965581D01*
X154248926Y-103970797D01*
X154227691Y-103973947D01*
X154206250Y-103975000D01*
X153693750Y-103975000D01*
X153672309Y-103973947D01*
X153651074Y-103970797D01*
X153630250Y-103965581D01*
X153610038Y-103958349D01*
X153590632Y-103949170D01*
X153572219Y-103938134D01*
X153554976Y-103925346D01*
X153539070Y-103910930D01*
X153524654Y-103895024D01*
X153511866Y-103877781D01*
X153500830Y-103859368D01*
X153491651Y-103839962D01*
X153484419Y-103819750D01*
X153479203Y-103798926D01*
X153476053Y-103777691D01*
X153475000Y-103756250D01*
X153475000Y-103318750D01*
X153476053Y-103297309D01*
X153479203Y-103276074D01*
X153484419Y-103255250D01*
X153491651Y-103235038D01*
X153500830Y-103215632D01*
X153511866Y-103197219D01*
X153524654Y-103179976D01*
X153539070Y-103164070D01*
X153554976Y-103149654D01*
X153572219Y-103136866D01*
X153590632Y-103125830D01*
X153610038Y-103116651D01*
X153630250Y-103109419D01*
X153651074Y-103104203D01*
X153672309Y-103101053D01*
X153693750Y-103100000D01*
X154206250Y-103100000D01*
X154227691Y-103101053D01*
X154227691Y-103101053D01*
G37*
D13*
X153950000Y-103537500D03*
D12*
G36*
X154227691Y-101526053D02*
X154248926Y-101529203D01*
X154269750Y-101534419D01*
X154289962Y-101541651D01*
X154309368Y-101550830D01*
X154327781Y-101561866D01*
X154345024Y-101574654D01*
X154360930Y-101589070D01*
X154375346Y-101604976D01*
X154388134Y-101622219D01*
X154399170Y-101640632D01*
X154408349Y-101660038D01*
X154415581Y-101680250D01*
X154420797Y-101701074D01*
X154423947Y-101722309D01*
X154425000Y-101743750D01*
X154425000Y-102181250D01*
X154423947Y-102202691D01*
X154420797Y-102223926D01*
X154415581Y-102244750D01*
X154408349Y-102264962D01*
X154399170Y-102284368D01*
X154388134Y-102302781D01*
X154375346Y-102320024D01*
X154360930Y-102335930D01*
X154345024Y-102350346D01*
X154327781Y-102363134D01*
X154309368Y-102374170D01*
X154289962Y-102383349D01*
X154269750Y-102390581D01*
X154248926Y-102395797D01*
X154227691Y-102398947D01*
X154206250Y-102400000D01*
X153693750Y-102400000D01*
X153672309Y-102398947D01*
X153651074Y-102395797D01*
X153630250Y-102390581D01*
X153610038Y-102383349D01*
X153590632Y-102374170D01*
X153572219Y-102363134D01*
X153554976Y-102350346D01*
X153539070Y-102335930D01*
X153524654Y-102320024D01*
X153511866Y-102302781D01*
X153500830Y-102284368D01*
X153491651Y-102264962D01*
X153484419Y-102244750D01*
X153479203Y-102223926D01*
X153476053Y-102202691D01*
X153475000Y-102181250D01*
X153475000Y-101743750D01*
X153476053Y-101722309D01*
X153479203Y-101701074D01*
X153484419Y-101680250D01*
X153491651Y-101660038D01*
X153500830Y-101640632D01*
X153511866Y-101622219D01*
X153524654Y-101604976D01*
X153539070Y-101589070D01*
X153554976Y-101574654D01*
X153572219Y-101561866D01*
X153590632Y-101550830D01*
X153610038Y-101541651D01*
X153630250Y-101534419D01*
X153651074Y-101529203D01*
X153672309Y-101526053D01*
X153693750Y-101525000D01*
X154206250Y-101525000D01*
X154227691Y-101526053D01*
X154227691Y-101526053D01*
G37*
D13*
X153950000Y-101962500D03*
G04 #@! TD*
D12*
G04 #@! TO.C,C9*
G36*
X158977691Y-91351053D02*
X158998926Y-91354203D01*
X159019750Y-91359419D01*
X159039962Y-91366651D01*
X159059368Y-91375830D01*
X159077781Y-91386866D01*
X159095024Y-91399654D01*
X159110930Y-91414070D01*
X159125346Y-91429976D01*
X159138134Y-91447219D01*
X159149170Y-91465632D01*
X159158349Y-91485038D01*
X159165581Y-91505250D01*
X159170797Y-91526074D01*
X159173947Y-91547309D01*
X159175000Y-91568750D01*
X159175000Y-92006250D01*
X159173947Y-92027691D01*
X159170797Y-92048926D01*
X159165581Y-92069750D01*
X159158349Y-92089962D01*
X159149170Y-92109368D01*
X159138134Y-92127781D01*
X159125346Y-92145024D01*
X159110930Y-92160930D01*
X159095024Y-92175346D01*
X159077781Y-92188134D01*
X159059368Y-92199170D01*
X159039962Y-92208349D01*
X159019750Y-92215581D01*
X158998926Y-92220797D01*
X158977691Y-92223947D01*
X158956250Y-92225000D01*
X158443750Y-92225000D01*
X158422309Y-92223947D01*
X158401074Y-92220797D01*
X158380250Y-92215581D01*
X158360038Y-92208349D01*
X158340632Y-92199170D01*
X158322219Y-92188134D01*
X158304976Y-92175346D01*
X158289070Y-92160930D01*
X158274654Y-92145024D01*
X158261866Y-92127781D01*
X158250830Y-92109368D01*
X158241651Y-92089962D01*
X158234419Y-92069750D01*
X158229203Y-92048926D01*
X158226053Y-92027691D01*
X158225000Y-92006250D01*
X158225000Y-91568750D01*
X158226053Y-91547309D01*
X158229203Y-91526074D01*
X158234419Y-91505250D01*
X158241651Y-91485038D01*
X158250830Y-91465632D01*
X158261866Y-91447219D01*
X158274654Y-91429976D01*
X158289070Y-91414070D01*
X158304976Y-91399654D01*
X158322219Y-91386866D01*
X158340632Y-91375830D01*
X158360038Y-91366651D01*
X158380250Y-91359419D01*
X158401074Y-91354203D01*
X158422309Y-91351053D01*
X158443750Y-91350000D01*
X158956250Y-91350000D01*
X158977691Y-91351053D01*
X158977691Y-91351053D01*
G37*
D13*
X158700000Y-91787500D03*
D12*
G36*
X158977691Y-89776053D02*
X158998926Y-89779203D01*
X159019750Y-89784419D01*
X159039962Y-89791651D01*
X159059368Y-89800830D01*
X159077781Y-89811866D01*
X159095024Y-89824654D01*
X159110930Y-89839070D01*
X159125346Y-89854976D01*
X159138134Y-89872219D01*
X159149170Y-89890632D01*
X159158349Y-89910038D01*
X159165581Y-89930250D01*
X159170797Y-89951074D01*
X159173947Y-89972309D01*
X159175000Y-89993750D01*
X159175000Y-90431250D01*
X159173947Y-90452691D01*
X159170797Y-90473926D01*
X159165581Y-90494750D01*
X159158349Y-90514962D01*
X159149170Y-90534368D01*
X159138134Y-90552781D01*
X159125346Y-90570024D01*
X159110930Y-90585930D01*
X159095024Y-90600346D01*
X159077781Y-90613134D01*
X159059368Y-90624170D01*
X159039962Y-90633349D01*
X159019750Y-90640581D01*
X158998926Y-90645797D01*
X158977691Y-90648947D01*
X158956250Y-90650000D01*
X158443750Y-90650000D01*
X158422309Y-90648947D01*
X158401074Y-90645797D01*
X158380250Y-90640581D01*
X158360038Y-90633349D01*
X158340632Y-90624170D01*
X158322219Y-90613134D01*
X158304976Y-90600346D01*
X158289070Y-90585930D01*
X158274654Y-90570024D01*
X158261866Y-90552781D01*
X158250830Y-90534368D01*
X158241651Y-90514962D01*
X158234419Y-90494750D01*
X158229203Y-90473926D01*
X158226053Y-90452691D01*
X158225000Y-90431250D01*
X158225000Y-89993750D01*
X158226053Y-89972309D01*
X158229203Y-89951074D01*
X158234419Y-89930250D01*
X158241651Y-89910038D01*
X158250830Y-89890632D01*
X158261866Y-89872219D01*
X158274654Y-89854976D01*
X158289070Y-89839070D01*
X158304976Y-89824654D01*
X158322219Y-89811866D01*
X158340632Y-89800830D01*
X158360038Y-89791651D01*
X158380250Y-89784419D01*
X158401074Y-89779203D01*
X158422309Y-89776053D01*
X158443750Y-89775000D01*
X158956250Y-89775000D01*
X158977691Y-89776053D01*
X158977691Y-89776053D01*
G37*
D13*
X158700000Y-90212500D03*
G04 #@! TD*
D20*
G04 #@! TO.C,SW4*
X147525000Y-102075000D03*
X147525000Y-105425000D03*
D21*
X146225000Y-101500000D03*
X146225000Y-106000000D03*
D22*
X145625000Y-105775000D03*
X145625000Y-101725000D03*
G04 #@! TD*
G04 #@! TO.C,SW3*
X182375000Y-90775000D03*
X182375000Y-86725000D03*
D21*
X181775000Y-86500000D03*
X181775000Y-91000000D03*
D20*
X180475000Y-87075000D03*
X180475000Y-90425000D03*
G04 #@! TD*
G04 #@! TO.C,SW2*
X180425000Y-105425000D03*
X180425000Y-102075000D03*
D21*
X181725000Y-106000000D03*
X181725000Y-101500000D03*
D22*
X182325000Y-101725000D03*
X182325000Y-105775000D03*
G04 #@! TD*
G04 #@! TO.C,SW1*
X182375000Y-75725000D03*
X182375000Y-71675000D03*
D21*
X181775000Y-71450000D03*
X181775000Y-75950000D03*
D20*
X180475000Y-72025000D03*
X180475000Y-75375000D03*
G04 #@! TD*
D23*
G04 #@! TO.C,BT1*
X166400000Y-78700000D03*
D24*
X177850000Y-78800000D03*
X154950000Y-78800000D03*
G04 #@! TD*
D25*
G04 #@! TO.C,U6*
X156910000Y-96025000D03*
X171490000Y-96025000D03*
D26*
X158450000Y-93700000D03*
X158950000Y-93700000D03*
X159450000Y-93700000D03*
X159950000Y-93700000D03*
X160450000Y-93700000D03*
X160950000Y-93700000D03*
X161450000Y-93700000D03*
X161950000Y-93700000D03*
X162450000Y-93700000D03*
X162950000Y-93700000D03*
X163450000Y-93700000D03*
X163950000Y-93700000D03*
X164450000Y-93700000D03*
X164950000Y-93700000D03*
X165450000Y-93700000D03*
X165950000Y-93700000D03*
X166450000Y-93700000D03*
X166950000Y-93700000D03*
X167450000Y-93700000D03*
X167950000Y-93700000D03*
X168450000Y-93700000D03*
X168950000Y-93700000D03*
X169450000Y-93700000D03*
X169950000Y-93700000D03*
G04 #@! TD*
M02*
