G04 #@! TF.GenerationSoftware,KiCad,Pcbnew,(6.0.0-rc1-dev-332-g00d912f0b)*
G04 #@! TF.CreationDate,2018-09-23T23:35:21+02:00*
G04 #@! TF.ProjectId,xilwatch2,78696C7761746368322E6B696361645F,rev?*
G04 #@! TF.SameCoordinates,Original*
G04 #@! TF.FileFunction,Paste,Top*
G04 #@! TF.FilePolarity,Positive*
%FSLAX46Y46*%
G04 Gerber Fmt 4.6, Leading zero omitted, Abs format (unit mm)*
G04 Created by KiCad (PCBNEW (6.0.0-rc1-dev-332-g00d912f0b)) date 09/23/18 23:35:21*
%MOMM*%
%LPD*%
G01*
G04 APERTURE LIST*
%ADD10C,0.100000*%
%ADD11C,0.875000*%
%ADD12R,0.800000X1.000000*%
%ADD13O,1.700000X0.850000*%
%ADD14O,0.850000X1.700000*%
%ADD15R,0.650000X1.060000*%
%ADD16R,0.350000X0.600000*%
%ADD17R,0.600000X0.350000*%
%ADD18R,0.800000X0.600000*%
%ADD19C,0.500000*%
%ADD20C,1.370000*%
%ADD21R,1.000000X1.700000*%
G04 APERTURE END LIST*
D10*
G04 #@! TO.C,R2*
G36*
X165852691Y-84188553D02*
X165873926Y-84191703D01*
X165894750Y-84196919D01*
X165914962Y-84204151D01*
X165934368Y-84213330D01*
X165952781Y-84224366D01*
X165970024Y-84237154D01*
X165985930Y-84251570D01*
X166000346Y-84267476D01*
X166013134Y-84284719D01*
X166024170Y-84303132D01*
X166033349Y-84322538D01*
X166040581Y-84342750D01*
X166045797Y-84363574D01*
X166048947Y-84384809D01*
X166050000Y-84406250D01*
X166050000Y-84918750D01*
X166048947Y-84940191D01*
X166045797Y-84961426D01*
X166040581Y-84982250D01*
X166033349Y-85002462D01*
X166024170Y-85021868D01*
X166013134Y-85040281D01*
X166000346Y-85057524D01*
X165985930Y-85073430D01*
X165970024Y-85087846D01*
X165952781Y-85100634D01*
X165934368Y-85111670D01*
X165914962Y-85120849D01*
X165894750Y-85128081D01*
X165873926Y-85133297D01*
X165852691Y-85136447D01*
X165831250Y-85137500D01*
X165393750Y-85137500D01*
X165372309Y-85136447D01*
X165351074Y-85133297D01*
X165330250Y-85128081D01*
X165310038Y-85120849D01*
X165290632Y-85111670D01*
X165272219Y-85100634D01*
X165254976Y-85087846D01*
X165239070Y-85073430D01*
X165224654Y-85057524D01*
X165211866Y-85040281D01*
X165200830Y-85021868D01*
X165191651Y-85002462D01*
X165184419Y-84982250D01*
X165179203Y-84961426D01*
X165176053Y-84940191D01*
X165175000Y-84918750D01*
X165175000Y-84406250D01*
X165176053Y-84384809D01*
X165179203Y-84363574D01*
X165184419Y-84342750D01*
X165191651Y-84322538D01*
X165200830Y-84303132D01*
X165211866Y-84284719D01*
X165224654Y-84267476D01*
X165239070Y-84251570D01*
X165254976Y-84237154D01*
X165272219Y-84224366D01*
X165290632Y-84213330D01*
X165310038Y-84204151D01*
X165330250Y-84196919D01*
X165351074Y-84191703D01*
X165372309Y-84188553D01*
X165393750Y-84187500D01*
X165831250Y-84187500D01*
X165852691Y-84188553D01*
X165852691Y-84188553D01*
G37*
D11*
X165612500Y-84662500D03*
D10*
G36*
X167427691Y-84188553D02*
X167448926Y-84191703D01*
X167469750Y-84196919D01*
X167489962Y-84204151D01*
X167509368Y-84213330D01*
X167527781Y-84224366D01*
X167545024Y-84237154D01*
X167560930Y-84251570D01*
X167575346Y-84267476D01*
X167588134Y-84284719D01*
X167599170Y-84303132D01*
X167608349Y-84322538D01*
X167615581Y-84342750D01*
X167620797Y-84363574D01*
X167623947Y-84384809D01*
X167625000Y-84406250D01*
X167625000Y-84918750D01*
X167623947Y-84940191D01*
X167620797Y-84961426D01*
X167615581Y-84982250D01*
X167608349Y-85002462D01*
X167599170Y-85021868D01*
X167588134Y-85040281D01*
X167575346Y-85057524D01*
X167560930Y-85073430D01*
X167545024Y-85087846D01*
X167527781Y-85100634D01*
X167509368Y-85111670D01*
X167489962Y-85120849D01*
X167469750Y-85128081D01*
X167448926Y-85133297D01*
X167427691Y-85136447D01*
X167406250Y-85137500D01*
X166968750Y-85137500D01*
X166947309Y-85136447D01*
X166926074Y-85133297D01*
X166905250Y-85128081D01*
X166885038Y-85120849D01*
X166865632Y-85111670D01*
X166847219Y-85100634D01*
X166829976Y-85087846D01*
X166814070Y-85073430D01*
X166799654Y-85057524D01*
X166786866Y-85040281D01*
X166775830Y-85021868D01*
X166766651Y-85002462D01*
X166759419Y-84982250D01*
X166754203Y-84961426D01*
X166751053Y-84940191D01*
X166750000Y-84918750D01*
X166750000Y-84406250D01*
X166751053Y-84384809D01*
X166754203Y-84363574D01*
X166759419Y-84342750D01*
X166766651Y-84322538D01*
X166775830Y-84303132D01*
X166786866Y-84284719D01*
X166799654Y-84267476D01*
X166814070Y-84251570D01*
X166829976Y-84237154D01*
X166847219Y-84224366D01*
X166865632Y-84213330D01*
X166885038Y-84204151D01*
X166905250Y-84196919D01*
X166926074Y-84191703D01*
X166947309Y-84188553D01*
X166968750Y-84187500D01*
X167406250Y-84187500D01*
X167427691Y-84188553D01*
X167427691Y-84188553D01*
G37*
D11*
X167187500Y-84662500D03*
G04 #@! TD*
D10*
G04 #@! TO.C,R1*
G36*
X165852691Y-82663553D02*
X165873926Y-82666703D01*
X165894750Y-82671919D01*
X165914962Y-82679151D01*
X165934368Y-82688330D01*
X165952781Y-82699366D01*
X165970024Y-82712154D01*
X165985930Y-82726570D01*
X166000346Y-82742476D01*
X166013134Y-82759719D01*
X166024170Y-82778132D01*
X166033349Y-82797538D01*
X166040581Y-82817750D01*
X166045797Y-82838574D01*
X166048947Y-82859809D01*
X166050000Y-82881250D01*
X166050000Y-83393750D01*
X166048947Y-83415191D01*
X166045797Y-83436426D01*
X166040581Y-83457250D01*
X166033349Y-83477462D01*
X166024170Y-83496868D01*
X166013134Y-83515281D01*
X166000346Y-83532524D01*
X165985930Y-83548430D01*
X165970024Y-83562846D01*
X165952781Y-83575634D01*
X165934368Y-83586670D01*
X165914962Y-83595849D01*
X165894750Y-83603081D01*
X165873926Y-83608297D01*
X165852691Y-83611447D01*
X165831250Y-83612500D01*
X165393750Y-83612500D01*
X165372309Y-83611447D01*
X165351074Y-83608297D01*
X165330250Y-83603081D01*
X165310038Y-83595849D01*
X165290632Y-83586670D01*
X165272219Y-83575634D01*
X165254976Y-83562846D01*
X165239070Y-83548430D01*
X165224654Y-83532524D01*
X165211866Y-83515281D01*
X165200830Y-83496868D01*
X165191651Y-83477462D01*
X165184419Y-83457250D01*
X165179203Y-83436426D01*
X165176053Y-83415191D01*
X165175000Y-83393750D01*
X165175000Y-82881250D01*
X165176053Y-82859809D01*
X165179203Y-82838574D01*
X165184419Y-82817750D01*
X165191651Y-82797538D01*
X165200830Y-82778132D01*
X165211866Y-82759719D01*
X165224654Y-82742476D01*
X165239070Y-82726570D01*
X165254976Y-82712154D01*
X165272219Y-82699366D01*
X165290632Y-82688330D01*
X165310038Y-82679151D01*
X165330250Y-82671919D01*
X165351074Y-82666703D01*
X165372309Y-82663553D01*
X165393750Y-82662500D01*
X165831250Y-82662500D01*
X165852691Y-82663553D01*
X165852691Y-82663553D01*
G37*
D11*
X165612500Y-83137500D03*
D10*
G36*
X167427691Y-82663553D02*
X167448926Y-82666703D01*
X167469750Y-82671919D01*
X167489962Y-82679151D01*
X167509368Y-82688330D01*
X167527781Y-82699366D01*
X167545024Y-82712154D01*
X167560930Y-82726570D01*
X167575346Y-82742476D01*
X167588134Y-82759719D01*
X167599170Y-82778132D01*
X167608349Y-82797538D01*
X167615581Y-82817750D01*
X167620797Y-82838574D01*
X167623947Y-82859809D01*
X167625000Y-82881250D01*
X167625000Y-83393750D01*
X167623947Y-83415191D01*
X167620797Y-83436426D01*
X167615581Y-83457250D01*
X167608349Y-83477462D01*
X167599170Y-83496868D01*
X167588134Y-83515281D01*
X167575346Y-83532524D01*
X167560930Y-83548430D01*
X167545024Y-83562846D01*
X167527781Y-83575634D01*
X167509368Y-83586670D01*
X167489962Y-83595849D01*
X167469750Y-83603081D01*
X167448926Y-83608297D01*
X167427691Y-83611447D01*
X167406250Y-83612500D01*
X166968750Y-83612500D01*
X166947309Y-83611447D01*
X166926074Y-83608297D01*
X166905250Y-83603081D01*
X166885038Y-83595849D01*
X166865632Y-83586670D01*
X166847219Y-83575634D01*
X166829976Y-83562846D01*
X166814070Y-83548430D01*
X166799654Y-83532524D01*
X166786866Y-83515281D01*
X166775830Y-83496868D01*
X166766651Y-83477462D01*
X166759419Y-83457250D01*
X166754203Y-83436426D01*
X166751053Y-83415191D01*
X166750000Y-83393750D01*
X166750000Y-82881250D01*
X166751053Y-82859809D01*
X166754203Y-82838574D01*
X166759419Y-82817750D01*
X166766651Y-82797538D01*
X166775830Y-82778132D01*
X166786866Y-82759719D01*
X166799654Y-82742476D01*
X166814070Y-82726570D01*
X166829976Y-82712154D01*
X166847219Y-82699366D01*
X166865632Y-82688330D01*
X166885038Y-82679151D01*
X166905250Y-82671919D01*
X166926074Y-82666703D01*
X166947309Y-82663553D01*
X166968750Y-82662500D01*
X167406250Y-82662500D01*
X167427691Y-82663553D01*
X167427691Y-82663553D01*
G37*
D11*
X167187500Y-83137500D03*
G04 #@! TD*
D12*
G04 #@! TO.C,U2*
X159700000Y-84550000D03*
X158600000Y-84550000D03*
X157500000Y-84550000D03*
X156400000Y-84550000D03*
X155300000Y-84550000D03*
X154200000Y-84550000D03*
X153100000Y-84550000D03*
X152000000Y-84550000D03*
X150900000Y-84550000D03*
X150900000Y-93050000D03*
X152000000Y-93050000D03*
X153100000Y-93050000D03*
X154200000Y-93050000D03*
X155300000Y-93050000D03*
X156400000Y-93050000D03*
X157500000Y-93050000D03*
X158600000Y-93050000D03*
X159700000Y-93050000D03*
D13*
X163400000Y-94300000D03*
X163400000Y-93200000D03*
X163400000Y-92100000D03*
X163400000Y-91000000D03*
X163400000Y-89900000D03*
X163400000Y-88800000D03*
X163400000Y-87700000D03*
X163400000Y-86600000D03*
X163400000Y-85500000D03*
X163400000Y-84400000D03*
X163400000Y-83300000D03*
D14*
X161900000Y-82050000D03*
X160800000Y-82050000D03*
X159700000Y-82050000D03*
X158600000Y-82050000D03*
X157500000Y-82050000D03*
X156400000Y-82050000D03*
X155300000Y-82050000D03*
X154200000Y-82050000D03*
X153100000Y-82050000D03*
X152000000Y-82050000D03*
X150900000Y-82050000D03*
X149800000Y-82050000D03*
X148700000Y-82050000D03*
X161900000Y-95550000D03*
X160800000Y-95550000D03*
X159700000Y-95550000D03*
X158600000Y-95550000D03*
X157500000Y-95550000D03*
X156400000Y-95550000D03*
X155300000Y-95550000D03*
X154200000Y-95550000D03*
X153100000Y-95550000D03*
X152000000Y-95550000D03*
X150900000Y-95550000D03*
X149800000Y-95550000D03*
X148700000Y-95550000D03*
G04 #@! TD*
D10*
G04 #@! TO.C,R7*
G36*
X173727691Y-91026053D02*
X173748926Y-91029203D01*
X173769750Y-91034419D01*
X173789962Y-91041651D01*
X173809368Y-91050830D01*
X173827781Y-91061866D01*
X173845024Y-91074654D01*
X173860930Y-91089070D01*
X173875346Y-91104976D01*
X173888134Y-91122219D01*
X173899170Y-91140632D01*
X173908349Y-91160038D01*
X173915581Y-91180250D01*
X173920797Y-91201074D01*
X173923947Y-91222309D01*
X173925000Y-91243750D01*
X173925000Y-91756250D01*
X173923947Y-91777691D01*
X173920797Y-91798926D01*
X173915581Y-91819750D01*
X173908349Y-91839962D01*
X173899170Y-91859368D01*
X173888134Y-91877781D01*
X173875346Y-91895024D01*
X173860930Y-91910930D01*
X173845024Y-91925346D01*
X173827781Y-91938134D01*
X173809368Y-91949170D01*
X173789962Y-91958349D01*
X173769750Y-91965581D01*
X173748926Y-91970797D01*
X173727691Y-91973947D01*
X173706250Y-91975000D01*
X173268750Y-91975000D01*
X173247309Y-91973947D01*
X173226074Y-91970797D01*
X173205250Y-91965581D01*
X173185038Y-91958349D01*
X173165632Y-91949170D01*
X173147219Y-91938134D01*
X173129976Y-91925346D01*
X173114070Y-91910930D01*
X173099654Y-91895024D01*
X173086866Y-91877781D01*
X173075830Y-91859368D01*
X173066651Y-91839962D01*
X173059419Y-91819750D01*
X173054203Y-91798926D01*
X173051053Y-91777691D01*
X173050000Y-91756250D01*
X173050000Y-91243750D01*
X173051053Y-91222309D01*
X173054203Y-91201074D01*
X173059419Y-91180250D01*
X173066651Y-91160038D01*
X173075830Y-91140632D01*
X173086866Y-91122219D01*
X173099654Y-91104976D01*
X173114070Y-91089070D01*
X173129976Y-91074654D01*
X173147219Y-91061866D01*
X173165632Y-91050830D01*
X173185038Y-91041651D01*
X173205250Y-91034419D01*
X173226074Y-91029203D01*
X173247309Y-91026053D01*
X173268750Y-91025000D01*
X173706250Y-91025000D01*
X173727691Y-91026053D01*
X173727691Y-91026053D01*
G37*
D11*
X173487500Y-91500000D03*
D10*
G36*
X172152691Y-91026053D02*
X172173926Y-91029203D01*
X172194750Y-91034419D01*
X172214962Y-91041651D01*
X172234368Y-91050830D01*
X172252781Y-91061866D01*
X172270024Y-91074654D01*
X172285930Y-91089070D01*
X172300346Y-91104976D01*
X172313134Y-91122219D01*
X172324170Y-91140632D01*
X172333349Y-91160038D01*
X172340581Y-91180250D01*
X172345797Y-91201074D01*
X172348947Y-91222309D01*
X172350000Y-91243750D01*
X172350000Y-91756250D01*
X172348947Y-91777691D01*
X172345797Y-91798926D01*
X172340581Y-91819750D01*
X172333349Y-91839962D01*
X172324170Y-91859368D01*
X172313134Y-91877781D01*
X172300346Y-91895024D01*
X172285930Y-91910930D01*
X172270024Y-91925346D01*
X172252781Y-91938134D01*
X172234368Y-91949170D01*
X172214962Y-91958349D01*
X172194750Y-91965581D01*
X172173926Y-91970797D01*
X172152691Y-91973947D01*
X172131250Y-91975000D01*
X171693750Y-91975000D01*
X171672309Y-91973947D01*
X171651074Y-91970797D01*
X171630250Y-91965581D01*
X171610038Y-91958349D01*
X171590632Y-91949170D01*
X171572219Y-91938134D01*
X171554976Y-91925346D01*
X171539070Y-91910930D01*
X171524654Y-91895024D01*
X171511866Y-91877781D01*
X171500830Y-91859368D01*
X171491651Y-91839962D01*
X171484419Y-91819750D01*
X171479203Y-91798926D01*
X171476053Y-91777691D01*
X171475000Y-91756250D01*
X171475000Y-91243750D01*
X171476053Y-91222309D01*
X171479203Y-91201074D01*
X171484419Y-91180250D01*
X171491651Y-91160038D01*
X171500830Y-91140632D01*
X171511866Y-91122219D01*
X171524654Y-91104976D01*
X171539070Y-91089070D01*
X171554976Y-91074654D01*
X171572219Y-91061866D01*
X171590632Y-91050830D01*
X171610038Y-91041651D01*
X171630250Y-91034419D01*
X171651074Y-91029203D01*
X171672309Y-91026053D01*
X171693750Y-91025000D01*
X172131250Y-91025000D01*
X172152691Y-91026053D01*
X172152691Y-91026053D01*
G37*
D11*
X171912500Y-91500000D03*
G04 #@! TD*
D10*
G04 #@! TO.C,R6*
G36*
X170277691Y-89151053D02*
X170298926Y-89154203D01*
X170319750Y-89159419D01*
X170339962Y-89166651D01*
X170359368Y-89175830D01*
X170377781Y-89186866D01*
X170395024Y-89199654D01*
X170410930Y-89214070D01*
X170425346Y-89229976D01*
X170438134Y-89247219D01*
X170449170Y-89265632D01*
X170458349Y-89285038D01*
X170465581Y-89305250D01*
X170470797Y-89326074D01*
X170473947Y-89347309D01*
X170475000Y-89368750D01*
X170475000Y-89806250D01*
X170473947Y-89827691D01*
X170470797Y-89848926D01*
X170465581Y-89869750D01*
X170458349Y-89889962D01*
X170449170Y-89909368D01*
X170438134Y-89927781D01*
X170425346Y-89945024D01*
X170410930Y-89960930D01*
X170395024Y-89975346D01*
X170377781Y-89988134D01*
X170359368Y-89999170D01*
X170339962Y-90008349D01*
X170319750Y-90015581D01*
X170298926Y-90020797D01*
X170277691Y-90023947D01*
X170256250Y-90025000D01*
X169743750Y-90025000D01*
X169722309Y-90023947D01*
X169701074Y-90020797D01*
X169680250Y-90015581D01*
X169660038Y-90008349D01*
X169640632Y-89999170D01*
X169622219Y-89988134D01*
X169604976Y-89975346D01*
X169589070Y-89960930D01*
X169574654Y-89945024D01*
X169561866Y-89927781D01*
X169550830Y-89909368D01*
X169541651Y-89889962D01*
X169534419Y-89869750D01*
X169529203Y-89848926D01*
X169526053Y-89827691D01*
X169525000Y-89806250D01*
X169525000Y-89368750D01*
X169526053Y-89347309D01*
X169529203Y-89326074D01*
X169534419Y-89305250D01*
X169541651Y-89285038D01*
X169550830Y-89265632D01*
X169561866Y-89247219D01*
X169574654Y-89229976D01*
X169589070Y-89214070D01*
X169604976Y-89199654D01*
X169622219Y-89186866D01*
X169640632Y-89175830D01*
X169660038Y-89166651D01*
X169680250Y-89159419D01*
X169701074Y-89154203D01*
X169722309Y-89151053D01*
X169743750Y-89150000D01*
X170256250Y-89150000D01*
X170277691Y-89151053D01*
X170277691Y-89151053D01*
G37*
D11*
X170000000Y-89587500D03*
D10*
G36*
X170277691Y-87576053D02*
X170298926Y-87579203D01*
X170319750Y-87584419D01*
X170339962Y-87591651D01*
X170359368Y-87600830D01*
X170377781Y-87611866D01*
X170395024Y-87624654D01*
X170410930Y-87639070D01*
X170425346Y-87654976D01*
X170438134Y-87672219D01*
X170449170Y-87690632D01*
X170458349Y-87710038D01*
X170465581Y-87730250D01*
X170470797Y-87751074D01*
X170473947Y-87772309D01*
X170475000Y-87793750D01*
X170475000Y-88231250D01*
X170473947Y-88252691D01*
X170470797Y-88273926D01*
X170465581Y-88294750D01*
X170458349Y-88314962D01*
X170449170Y-88334368D01*
X170438134Y-88352781D01*
X170425346Y-88370024D01*
X170410930Y-88385930D01*
X170395024Y-88400346D01*
X170377781Y-88413134D01*
X170359368Y-88424170D01*
X170339962Y-88433349D01*
X170319750Y-88440581D01*
X170298926Y-88445797D01*
X170277691Y-88448947D01*
X170256250Y-88450000D01*
X169743750Y-88450000D01*
X169722309Y-88448947D01*
X169701074Y-88445797D01*
X169680250Y-88440581D01*
X169660038Y-88433349D01*
X169640632Y-88424170D01*
X169622219Y-88413134D01*
X169604976Y-88400346D01*
X169589070Y-88385930D01*
X169574654Y-88370024D01*
X169561866Y-88352781D01*
X169550830Y-88334368D01*
X169541651Y-88314962D01*
X169534419Y-88294750D01*
X169529203Y-88273926D01*
X169526053Y-88252691D01*
X169525000Y-88231250D01*
X169525000Y-87793750D01*
X169526053Y-87772309D01*
X169529203Y-87751074D01*
X169534419Y-87730250D01*
X169541651Y-87710038D01*
X169550830Y-87690632D01*
X169561866Y-87672219D01*
X169574654Y-87654976D01*
X169589070Y-87639070D01*
X169604976Y-87624654D01*
X169622219Y-87611866D01*
X169640632Y-87600830D01*
X169660038Y-87591651D01*
X169680250Y-87584419D01*
X169701074Y-87579203D01*
X169722309Y-87576053D01*
X169743750Y-87575000D01*
X170256250Y-87575000D01*
X170277691Y-87576053D01*
X170277691Y-87576053D01*
G37*
D11*
X170000000Y-88012500D03*
G04 #@! TD*
D10*
G04 #@! TO.C,R9*
G36*
X153127691Y-70926053D02*
X153148926Y-70929203D01*
X153169750Y-70934419D01*
X153189962Y-70941651D01*
X153209368Y-70950830D01*
X153227781Y-70961866D01*
X153245024Y-70974654D01*
X153260930Y-70989070D01*
X153275346Y-71004976D01*
X153288134Y-71022219D01*
X153299170Y-71040632D01*
X153308349Y-71060038D01*
X153315581Y-71080250D01*
X153320797Y-71101074D01*
X153323947Y-71122309D01*
X153325000Y-71143750D01*
X153325000Y-71656250D01*
X153323947Y-71677691D01*
X153320797Y-71698926D01*
X153315581Y-71719750D01*
X153308349Y-71739962D01*
X153299170Y-71759368D01*
X153288134Y-71777781D01*
X153275346Y-71795024D01*
X153260930Y-71810930D01*
X153245024Y-71825346D01*
X153227781Y-71838134D01*
X153209368Y-71849170D01*
X153189962Y-71858349D01*
X153169750Y-71865581D01*
X153148926Y-71870797D01*
X153127691Y-71873947D01*
X153106250Y-71875000D01*
X152668750Y-71875000D01*
X152647309Y-71873947D01*
X152626074Y-71870797D01*
X152605250Y-71865581D01*
X152585038Y-71858349D01*
X152565632Y-71849170D01*
X152547219Y-71838134D01*
X152529976Y-71825346D01*
X152514070Y-71810930D01*
X152499654Y-71795024D01*
X152486866Y-71777781D01*
X152475830Y-71759368D01*
X152466651Y-71739962D01*
X152459419Y-71719750D01*
X152454203Y-71698926D01*
X152451053Y-71677691D01*
X152450000Y-71656250D01*
X152450000Y-71143750D01*
X152451053Y-71122309D01*
X152454203Y-71101074D01*
X152459419Y-71080250D01*
X152466651Y-71060038D01*
X152475830Y-71040632D01*
X152486866Y-71022219D01*
X152499654Y-71004976D01*
X152514070Y-70989070D01*
X152529976Y-70974654D01*
X152547219Y-70961866D01*
X152565632Y-70950830D01*
X152585038Y-70941651D01*
X152605250Y-70934419D01*
X152626074Y-70929203D01*
X152647309Y-70926053D01*
X152668750Y-70925000D01*
X153106250Y-70925000D01*
X153127691Y-70926053D01*
X153127691Y-70926053D01*
G37*
D11*
X152887500Y-71400000D03*
D10*
G36*
X151552691Y-70926053D02*
X151573926Y-70929203D01*
X151594750Y-70934419D01*
X151614962Y-70941651D01*
X151634368Y-70950830D01*
X151652781Y-70961866D01*
X151670024Y-70974654D01*
X151685930Y-70989070D01*
X151700346Y-71004976D01*
X151713134Y-71022219D01*
X151724170Y-71040632D01*
X151733349Y-71060038D01*
X151740581Y-71080250D01*
X151745797Y-71101074D01*
X151748947Y-71122309D01*
X151750000Y-71143750D01*
X151750000Y-71656250D01*
X151748947Y-71677691D01*
X151745797Y-71698926D01*
X151740581Y-71719750D01*
X151733349Y-71739962D01*
X151724170Y-71759368D01*
X151713134Y-71777781D01*
X151700346Y-71795024D01*
X151685930Y-71810930D01*
X151670024Y-71825346D01*
X151652781Y-71838134D01*
X151634368Y-71849170D01*
X151614962Y-71858349D01*
X151594750Y-71865581D01*
X151573926Y-71870797D01*
X151552691Y-71873947D01*
X151531250Y-71875000D01*
X151093750Y-71875000D01*
X151072309Y-71873947D01*
X151051074Y-71870797D01*
X151030250Y-71865581D01*
X151010038Y-71858349D01*
X150990632Y-71849170D01*
X150972219Y-71838134D01*
X150954976Y-71825346D01*
X150939070Y-71810930D01*
X150924654Y-71795024D01*
X150911866Y-71777781D01*
X150900830Y-71759368D01*
X150891651Y-71739962D01*
X150884419Y-71719750D01*
X150879203Y-71698926D01*
X150876053Y-71677691D01*
X150875000Y-71656250D01*
X150875000Y-71143750D01*
X150876053Y-71122309D01*
X150879203Y-71101074D01*
X150884419Y-71080250D01*
X150891651Y-71060038D01*
X150900830Y-71040632D01*
X150911866Y-71022219D01*
X150924654Y-71004976D01*
X150939070Y-70989070D01*
X150954976Y-70974654D01*
X150972219Y-70961866D01*
X150990632Y-70950830D01*
X151010038Y-70941651D01*
X151030250Y-70934419D01*
X151051074Y-70929203D01*
X151072309Y-70926053D01*
X151093750Y-70925000D01*
X151531250Y-70925000D01*
X151552691Y-70926053D01*
X151552691Y-70926053D01*
G37*
D11*
X151312500Y-71400000D03*
G04 #@! TD*
D10*
G04 #@! TO.C,R8*
G36*
X151452691Y-75126053D02*
X151473926Y-75129203D01*
X151494750Y-75134419D01*
X151514962Y-75141651D01*
X151534368Y-75150830D01*
X151552781Y-75161866D01*
X151570024Y-75174654D01*
X151585930Y-75189070D01*
X151600346Y-75204976D01*
X151613134Y-75222219D01*
X151624170Y-75240632D01*
X151633349Y-75260038D01*
X151640581Y-75280250D01*
X151645797Y-75301074D01*
X151648947Y-75322309D01*
X151650000Y-75343750D01*
X151650000Y-75856250D01*
X151648947Y-75877691D01*
X151645797Y-75898926D01*
X151640581Y-75919750D01*
X151633349Y-75939962D01*
X151624170Y-75959368D01*
X151613134Y-75977781D01*
X151600346Y-75995024D01*
X151585930Y-76010930D01*
X151570024Y-76025346D01*
X151552781Y-76038134D01*
X151534368Y-76049170D01*
X151514962Y-76058349D01*
X151494750Y-76065581D01*
X151473926Y-76070797D01*
X151452691Y-76073947D01*
X151431250Y-76075000D01*
X150993750Y-76075000D01*
X150972309Y-76073947D01*
X150951074Y-76070797D01*
X150930250Y-76065581D01*
X150910038Y-76058349D01*
X150890632Y-76049170D01*
X150872219Y-76038134D01*
X150854976Y-76025346D01*
X150839070Y-76010930D01*
X150824654Y-75995024D01*
X150811866Y-75977781D01*
X150800830Y-75959368D01*
X150791651Y-75939962D01*
X150784419Y-75919750D01*
X150779203Y-75898926D01*
X150776053Y-75877691D01*
X150775000Y-75856250D01*
X150775000Y-75343750D01*
X150776053Y-75322309D01*
X150779203Y-75301074D01*
X150784419Y-75280250D01*
X150791651Y-75260038D01*
X150800830Y-75240632D01*
X150811866Y-75222219D01*
X150824654Y-75204976D01*
X150839070Y-75189070D01*
X150854976Y-75174654D01*
X150872219Y-75161866D01*
X150890632Y-75150830D01*
X150910038Y-75141651D01*
X150930250Y-75134419D01*
X150951074Y-75129203D01*
X150972309Y-75126053D01*
X150993750Y-75125000D01*
X151431250Y-75125000D01*
X151452691Y-75126053D01*
X151452691Y-75126053D01*
G37*
D11*
X151212500Y-75600000D03*
D10*
G36*
X153027691Y-75126053D02*
X153048926Y-75129203D01*
X153069750Y-75134419D01*
X153089962Y-75141651D01*
X153109368Y-75150830D01*
X153127781Y-75161866D01*
X153145024Y-75174654D01*
X153160930Y-75189070D01*
X153175346Y-75204976D01*
X153188134Y-75222219D01*
X153199170Y-75240632D01*
X153208349Y-75260038D01*
X153215581Y-75280250D01*
X153220797Y-75301074D01*
X153223947Y-75322309D01*
X153225000Y-75343750D01*
X153225000Y-75856250D01*
X153223947Y-75877691D01*
X153220797Y-75898926D01*
X153215581Y-75919750D01*
X153208349Y-75939962D01*
X153199170Y-75959368D01*
X153188134Y-75977781D01*
X153175346Y-75995024D01*
X153160930Y-76010930D01*
X153145024Y-76025346D01*
X153127781Y-76038134D01*
X153109368Y-76049170D01*
X153089962Y-76058349D01*
X153069750Y-76065581D01*
X153048926Y-76070797D01*
X153027691Y-76073947D01*
X153006250Y-76075000D01*
X152568750Y-76075000D01*
X152547309Y-76073947D01*
X152526074Y-76070797D01*
X152505250Y-76065581D01*
X152485038Y-76058349D01*
X152465632Y-76049170D01*
X152447219Y-76038134D01*
X152429976Y-76025346D01*
X152414070Y-76010930D01*
X152399654Y-75995024D01*
X152386866Y-75977781D01*
X152375830Y-75959368D01*
X152366651Y-75939962D01*
X152359419Y-75919750D01*
X152354203Y-75898926D01*
X152351053Y-75877691D01*
X152350000Y-75856250D01*
X152350000Y-75343750D01*
X152351053Y-75322309D01*
X152354203Y-75301074D01*
X152359419Y-75280250D01*
X152366651Y-75260038D01*
X152375830Y-75240632D01*
X152386866Y-75222219D01*
X152399654Y-75204976D01*
X152414070Y-75189070D01*
X152429976Y-75174654D01*
X152447219Y-75161866D01*
X152465632Y-75150830D01*
X152485038Y-75141651D01*
X152505250Y-75134419D01*
X152526074Y-75129203D01*
X152547309Y-75126053D01*
X152568750Y-75125000D01*
X153006250Y-75125000D01*
X153027691Y-75126053D01*
X153027691Y-75126053D01*
G37*
D11*
X152787500Y-75600000D03*
G04 #@! TD*
D10*
G04 #@! TO.C,R11*
G36*
X175452691Y-75126053D02*
X175473926Y-75129203D01*
X175494750Y-75134419D01*
X175514962Y-75141651D01*
X175534368Y-75150830D01*
X175552781Y-75161866D01*
X175570024Y-75174654D01*
X175585930Y-75189070D01*
X175600346Y-75204976D01*
X175613134Y-75222219D01*
X175624170Y-75240632D01*
X175633349Y-75260038D01*
X175640581Y-75280250D01*
X175645797Y-75301074D01*
X175648947Y-75322309D01*
X175650000Y-75343750D01*
X175650000Y-75856250D01*
X175648947Y-75877691D01*
X175645797Y-75898926D01*
X175640581Y-75919750D01*
X175633349Y-75939962D01*
X175624170Y-75959368D01*
X175613134Y-75977781D01*
X175600346Y-75995024D01*
X175585930Y-76010930D01*
X175570024Y-76025346D01*
X175552781Y-76038134D01*
X175534368Y-76049170D01*
X175514962Y-76058349D01*
X175494750Y-76065581D01*
X175473926Y-76070797D01*
X175452691Y-76073947D01*
X175431250Y-76075000D01*
X174993750Y-76075000D01*
X174972309Y-76073947D01*
X174951074Y-76070797D01*
X174930250Y-76065581D01*
X174910038Y-76058349D01*
X174890632Y-76049170D01*
X174872219Y-76038134D01*
X174854976Y-76025346D01*
X174839070Y-76010930D01*
X174824654Y-75995024D01*
X174811866Y-75977781D01*
X174800830Y-75959368D01*
X174791651Y-75939962D01*
X174784419Y-75919750D01*
X174779203Y-75898926D01*
X174776053Y-75877691D01*
X174775000Y-75856250D01*
X174775000Y-75343750D01*
X174776053Y-75322309D01*
X174779203Y-75301074D01*
X174784419Y-75280250D01*
X174791651Y-75260038D01*
X174800830Y-75240632D01*
X174811866Y-75222219D01*
X174824654Y-75204976D01*
X174839070Y-75189070D01*
X174854976Y-75174654D01*
X174872219Y-75161866D01*
X174890632Y-75150830D01*
X174910038Y-75141651D01*
X174930250Y-75134419D01*
X174951074Y-75129203D01*
X174972309Y-75126053D01*
X174993750Y-75125000D01*
X175431250Y-75125000D01*
X175452691Y-75126053D01*
X175452691Y-75126053D01*
G37*
D11*
X175212500Y-75600000D03*
D10*
G36*
X177027691Y-75126053D02*
X177048926Y-75129203D01*
X177069750Y-75134419D01*
X177089962Y-75141651D01*
X177109368Y-75150830D01*
X177127781Y-75161866D01*
X177145024Y-75174654D01*
X177160930Y-75189070D01*
X177175346Y-75204976D01*
X177188134Y-75222219D01*
X177199170Y-75240632D01*
X177208349Y-75260038D01*
X177215581Y-75280250D01*
X177220797Y-75301074D01*
X177223947Y-75322309D01*
X177225000Y-75343750D01*
X177225000Y-75856250D01*
X177223947Y-75877691D01*
X177220797Y-75898926D01*
X177215581Y-75919750D01*
X177208349Y-75939962D01*
X177199170Y-75959368D01*
X177188134Y-75977781D01*
X177175346Y-75995024D01*
X177160930Y-76010930D01*
X177145024Y-76025346D01*
X177127781Y-76038134D01*
X177109368Y-76049170D01*
X177089962Y-76058349D01*
X177069750Y-76065581D01*
X177048926Y-76070797D01*
X177027691Y-76073947D01*
X177006250Y-76075000D01*
X176568750Y-76075000D01*
X176547309Y-76073947D01*
X176526074Y-76070797D01*
X176505250Y-76065581D01*
X176485038Y-76058349D01*
X176465632Y-76049170D01*
X176447219Y-76038134D01*
X176429976Y-76025346D01*
X176414070Y-76010930D01*
X176399654Y-75995024D01*
X176386866Y-75977781D01*
X176375830Y-75959368D01*
X176366651Y-75939962D01*
X176359419Y-75919750D01*
X176354203Y-75898926D01*
X176351053Y-75877691D01*
X176350000Y-75856250D01*
X176350000Y-75343750D01*
X176351053Y-75322309D01*
X176354203Y-75301074D01*
X176359419Y-75280250D01*
X176366651Y-75260038D01*
X176375830Y-75240632D01*
X176386866Y-75222219D01*
X176399654Y-75204976D01*
X176414070Y-75189070D01*
X176429976Y-75174654D01*
X176447219Y-75161866D01*
X176465632Y-75150830D01*
X176485038Y-75141651D01*
X176505250Y-75134419D01*
X176526074Y-75129203D01*
X176547309Y-75126053D01*
X176568750Y-75125000D01*
X177006250Y-75125000D01*
X177027691Y-75126053D01*
X177027691Y-75126053D01*
G37*
D11*
X176787500Y-75600000D03*
G04 #@! TD*
D10*
G04 #@! TO.C,R5*
G36*
X168977691Y-74151053D02*
X168998926Y-74154203D01*
X169019750Y-74159419D01*
X169039962Y-74166651D01*
X169059368Y-74175830D01*
X169077781Y-74186866D01*
X169095024Y-74199654D01*
X169110930Y-74214070D01*
X169125346Y-74229976D01*
X169138134Y-74247219D01*
X169149170Y-74265632D01*
X169158349Y-74285038D01*
X169165581Y-74305250D01*
X169170797Y-74326074D01*
X169173947Y-74347309D01*
X169175000Y-74368750D01*
X169175000Y-74806250D01*
X169173947Y-74827691D01*
X169170797Y-74848926D01*
X169165581Y-74869750D01*
X169158349Y-74889962D01*
X169149170Y-74909368D01*
X169138134Y-74927781D01*
X169125346Y-74945024D01*
X169110930Y-74960930D01*
X169095024Y-74975346D01*
X169077781Y-74988134D01*
X169059368Y-74999170D01*
X169039962Y-75008349D01*
X169019750Y-75015581D01*
X168998926Y-75020797D01*
X168977691Y-75023947D01*
X168956250Y-75025000D01*
X168443750Y-75025000D01*
X168422309Y-75023947D01*
X168401074Y-75020797D01*
X168380250Y-75015581D01*
X168360038Y-75008349D01*
X168340632Y-74999170D01*
X168322219Y-74988134D01*
X168304976Y-74975346D01*
X168289070Y-74960930D01*
X168274654Y-74945024D01*
X168261866Y-74927781D01*
X168250830Y-74909368D01*
X168241651Y-74889962D01*
X168234419Y-74869750D01*
X168229203Y-74848926D01*
X168226053Y-74827691D01*
X168225000Y-74806250D01*
X168225000Y-74368750D01*
X168226053Y-74347309D01*
X168229203Y-74326074D01*
X168234419Y-74305250D01*
X168241651Y-74285038D01*
X168250830Y-74265632D01*
X168261866Y-74247219D01*
X168274654Y-74229976D01*
X168289070Y-74214070D01*
X168304976Y-74199654D01*
X168322219Y-74186866D01*
X168340632Y-74175830D01*
X168360038Y-74166651D01*
X168380250Y-74159419D01*
X168401074Y-74154203D01*
X168422309Y-74151053D01*
X168443750Y-74150000D01*
X168956250Y-74150000D01*
X168977691Y-74151053D01*
X168977691Y-74151053D01*
G37*
D11*
X168700000Y-74587500D03*
D10*
G36*
X168977691Y-72576053D02*
X168998926Y-72579203D01*
X169019750Y-72584419D01*
X169039962Y-72591651D01*
X169059368Y-72600830D01*
X169077781Y-72611866D01*
X169095024Y-72624654D01*
X169110930Y-72639070D01*
X169125346Y-72654976D01*
X169138134Y-72672219D01*
X169149170Y-72690632D01*
X169158349Y-72710038D01*
X169165581Y-72730250D01*
X169170797Y-72751074D01*
X169173947Y-72772309D01*
X169175000Y-72793750D01*
X169175000Y-73231250D01*
X169173947Y-73252691D01*
X169170797Y-73273926D01*
X169165581Y-73294750D01*
X169158349Y-73314962D01*
X169149170Y-73334368D01*
X169138134Y-73352781D01*
X169125346Y-73370024D01*
X169110930Y-73385930D01*
X169095024Y-73400346D01*
X169077781Y-73413134D01*
X169059368Y-73424170D01*
X169039962Y-73433349D01*
X169019750Y-73440581D01*
X168998926Y-73445797D01*
X168977691Y-73448947D01*
X168956250Y-73450000D01*
X168443750Y-73450000D01*
X168422309Y-73448947D01*
X168401074Y-73445797D01*
X168380250Y-73440581D01*
X168360038Y-73433349D01*
X168340632Y-73424170D01*
X168322219Y-73413134D01*
X168304976Y-73400346D01*
X168289070Y-73385930D01*
X168274654Y-73370024D01*
X168261866Y-73352781D01*
X168250830Y-73334368D01*
X168241651Y-73314962D01*
X168234419Y-73294750D01*
X168229203Y-73273926D01*
X168226053Y-73252691D01*
X168225000Y-73231250D01*
X168225000Y-72793750D01*
X168226053Y-72772309D01*
X168229203Y-72751074D01*
X168234419Y-72730250D01*
X168241651Y-72710038D01*
X168250830Y-72690632D01*
X168261866Y-72672219D01*
X168274654Y-72654976D01*
X168289070Y-72639070D01*
X168304976Y-72624654D01*
X168322219Y-72611866D01*
X168340632Y-72600830D01*
X168360038Y-72591651D01*
X168380250Y-72584419D01*
X168401074Y-72579203D01*
X168422309Y-72576053D01*
X168443750Y-72575000D01*
X168956250Y-72575000D01*
X168977691Y-72576053D01*
X168977691Y-72576053D01*
G37*
D11*
X168700000Y-73012500D03*
G04 #@! TD*
D10*
G04 #@! TO.C,R12*
G36*
X173777691Y-73951053D02*
X173798926Y-73954203D01*
X173819750Y-73959419D01*
X173839962Y-73966651D01*
X173859368Y-73975830D01*
X173877781Y-73986866D01*
X173895024Y-73999654D01*
X173910930Y-74014070D01*
X173925346Y-74029976D01*
X173938134Y-74047219D01*
X173949170Y-74065632D01*
X173958349Y-74085038D01*
X173965581Y-74105250D01*
X173970797Y-74126074D01*
X173973947Y-74147309D01*
X173975000Y-74168750D01*
X173975000Y-74606250D01*
X173973947Y-74627691D01*
X173970797Y-74648926D01*
X173965581Y-74669750D01*
X173958349Y-74689962D01*
X173949170Y-74709368D01*
X173938134Y-74727781D01*
X173925346Y-74745024D01*
X173910930Y-74760930D01*
X173895024Y-74775346D01*
X173877781Y-74788134D01*
X173859368Y-74799170D01*
X173839962Y-74808349D01*
X173819750Y-74815581D01*
X173798926Y-74820797D01*
X173777691Y-74823947D01*
X173756250Y-74825000D01*
X173243750Y-74825000D01*
X173222309Y-74823947D01*
X173201074Y-74820797D01*
X173180250Y-74815581D01*
X173160038Y-74808349D01*
X173140632Y-74799170D01*
X173122219Y-74788134D01*
X173104976Y-74775346D01*
X173089070Y-74760930D01*
X173074654Y-74745024D01*
X173061866Y-74727781D01*
X173050830Y-74709368D01*
X173041651Y-74689962D01*
X173034419Y-74669750D01*
X173029203Y-74648926D01*
X173026053Y-74627691D01*
X173025000Y-74606250D01*
X173025000Y-74168750D01*
X173026053Y-74147309D01*
X173029203Y-74126074D01*
X173034419Y-74105250D01*
X173041651Y-74085038D01*
X173050830Y-74065632D01*
X173061866Y-74047219D01*
X173074654Y-74029976D01*
X173089070Y-74014070D01*
X173104976Y-73999654D01*
X173122219Y-73986866D01*
X173140632Y-73975830D01*
X173160038Y-73966651D01*
X173180250Y-73959419D01*
X173201074Y-73954203D01*
X173222309Y-73951053D01*
X173243750Y-73950000D01*
X173756250Y-73950000D01*
X173777691Y-73951053D01*
X173777691Y-73951053D01*
G37*
D11*
X173500000Y-74387500D03*
D10*
G36*
X173777691Y-72376053D02*
X173798926Y-72379203D01*
X173819750Y-72384419D01*
X173839962Y-72391651D01*
X173859368Y-72400830D01*
X173877781Y-72411866D01*
X173895024Y-72424654D01*
X173910930Y-72439070D01*
X173925346Y-72454976D01*
X173938134Y-72472219D01*
X173949170Y-72490632D01*
X173958349Y-72510038D01*
X173965581Y-72530250D01*
X173970797Y-72551074D01*
X173973947Y-72572309D01*
X173975000Y-72593750D01*
X173975000Y-73031250D01*
X173973947Y-73052691D01*
X173970797Y-73073926D01*
X173965581Y-73094750D01*
X173958349Y-73114962D01*
X173949170Y-73134368D01*
X173938134Y-73152781D01*
X173925346Y-73170024D01*
X173910930Y-73185930D01*
X173895024Y-73200346D01*
X173877781Y-73213134D01*
X173859368Y-73224170D01*
X173839962Y-73233349D01*
X173819750Y-73240581D01*
X173798926Y-73245797D01*
X173777691Y-73248947D01*
X173756250Y-73250000D01*
X173243750Y-73250000D01*
X173222309Y-73248947D01*
X173201074Y-73245797D01*
X173180250Y-73240581D01*
X173160038Y-73233349D01*
X173140632Y-73224170D01*
X173122219Y-73213134D01*
X173104976Y-73200346D01*
X173089070Y-73185930D01*
X173074654Y-73170024D01*
X173061866Y-73152781D01*
X173050830Y-73134368D01*
X173041651Y-73114962D01*
X173034419Y-73094750D01*
X173029203Y-73073926D01*
X173026053Y-73052691D01*
X173025000Y-73031250D01*
X173025000Y-72593750D01*
X173026053Y-72572309D01*
X173029203Y-72551074D01*
X173034419Y-72530250D01*
X173041651Y-72510038D01*
X173050830Y-72490632D01*
X173061866Y-72472219D01*
X173074654Y-72454976D01*
X173089070Y-72439070D01*
X173104976Y-72424654D01*
X173122219Y-72411866D01*
X173140632Y-72400830D01*
X173160038Y-72391651D01*
X173180250Y-72384419D01*
X173201074Y-72379203D01*
X173222309Y-72376053D01*
X173243750Y-72375000D01*
X173756250Y-72375000D01*
X173777691Y-72376053D01*
X173777691Y-72376053D01*
G37*
D11*
X173500000Y-72812500D03*
G04 #@! TD*
D10*
G04 #@! TO.C,R13*
G36*
X177027691Y-71126053D02*
X177048926Y-71129203D01*
X177069750Y-71134419D01*
X177089962Y-71141651D01*
X177109368Y-71150830D01*
X177127781Y-71161866D01*
X177145024Y-71174654D01*
X177160930Y-71189070D01*
X177175346Y-71204976D01*
X177188134Y-71222219D01*
X177199170Y-71240632D01*
X177208349Y-71260038D01*
X177215581Y-71280250D01*
X177220797Y-71301074D01*
X177223947Y-71322309D01*
X177225000Y-71343750D01*
X177225000Y-71856250D01*
X177223947Y-71877691D01*
X177220797Y-71898926D01*
X177215581Y-71919750D01*
X177208349Y-71939962D01*
X177199170Y-71959368D01*
X177188134Y-71977781D01*
X177175346Y-71995024D01*
X177160930Y-72010930D01*
X177145024Y-72025346D01*
X177127781Y-72038134D01*
X177109368Y-72049170D01*
X177089962Y-72058349D01*
X177069750Y-72065581D01*
X177048926Y-72070797D01*
X177027691Y-72073947D01*
X177006250Y-72075000D01*
X176568750Y-72075000D01*
X176547309Y-72073947D01*
X176526074Y-72070797D01*
X176505250Y-72065581D01*
X176485038Y-72058349D01*
X176465632Y-72049170D01*
X176447219Y-72038134D01*
X176429976Y-72025346D01*
X176414070Y-72010930D01*
X176399654Y-71995024D01*
X176386866Y-71977781D01*
X176375830Y-71959368D01*
X176366651Y-71939962D01*
X176359419Y-71919750D01*
X176354203Y-71898926D01*
X176351053Y-71877691D01*
X176350000Y-71856250D01*
X176350000Y-71343750D01*
X176351053Y-71322309D01*
X176354203Y-71301074D01*
X176359419Y-71280250D01*
X176366651Y-71260038D01*
X176375830Y-71240632D01*
X176386866Y-71222219D01*
X176399654Y-71204976D01*
X176414070Y-71189070D01*
X176429976Y-71174654D01*
X176447219Y-71161866D01*
X176465632Y-71150830D01*
X176485038Y-71141651D01*
X176505250Y-71134419D01*
X176526074Y-71129203D01*
X176547309Y-71126053D01*
X176568750Y-71125000D01*
X177006250Y-71125000D01*
X177027691Y-71126053D01*
X177027691Y-71126053D01*
G37*
D11*
X176787500Y-71600000D03*
D10*
G36*
X175452691Y-71126053D02*
X175473926Y-71129203D01*
X175494750Y-71134419D01*
X175514962Y-71141651D01*
X175534368Y-71150830D01*
X175552781Y-71161866D01*
X175570024Y-71174654D01*
X175585930Y-71189070D01*
X175600346Y-71204976D01*
X175613134Y-71222219D01*
X175624170Y-71240632D01*
X175633349Y-71260038D01*
X175640581Y-71280250D01*
X175645797Y-71301074D01*
X175648947Y-71322309D01*
X175650000Y-71343750D01*
X175650000Y-71856250D01*
X175648947Y-71877691D01*
X175645797Y-71898926D01*
X175640581Y-71919750D01*
X175633349Y-71939962D01*
X175624170Y-71959368D01*
X175613134Y-71977781D01*
X175600346Y-71995024D01*
X175585930Y-72010930D01*
X175570024Y-72025346D01*
X175552781Y-72038134D01*
X175534368Y-72049170D01*
X175514962Y-72058349D01*
X175494750Y-72065581D01*
X175473926Y-72070797D01*
X175452691Y-72073947D01*
X175431250Y-72075000D01*
X174993750Y-72075000D01*
X174972309Y-72073947D01*
X174951074Y-72070797D01*
X174930250Y-72065581D01*
X174910038Y-72058349D01*
X174890632Y-72049170D01*
X174872219Y-72038134D01*
X174854976Y-72025346D01*
X174839070Y-72010930D01*
X174824654Y-71995024D01*
X174811866Y-71977781D01*
X174800830Y-71959368D01*
X174791651Y-71939962D01*
X174784419Y-71919750D01*
X174779203Y-71898926D01*
X174776053Y-71877691D01*
X174775000Y-71856250D01*
X174775000Y-71343750D01*
X174776053Y-71322309D01*
X174779203Y-71301074D01*
X174784419Y-71280250D01*
X174791651Y-71260038D01*
X174800830Y-71240632D01*
X174811866Y-71222219D01*
X174824654Y-71204976D01*
X174839070Y-71189070D01*
X174854976Y-71174654D01*
X174872219Y-71161866D01*
X174890632Y-71150830D01*
X174910038Y-71141651D01*
X174930250Y-71134419D01*
X174951074Y-71129203D01*
X174972309Y-71126053D01*
X174993750Y-71125000D01*
X175431250Y-71125000D01*
X175452691Y-71126053D01*
X175452691Y-71126053D01*
G37*
D11*
X175212500Y-71600000D03*
G04 #@! TD*
D10*
G04 #@! TO.C,R18*
G36*
X173777691Y-98751053D02*
X173798926Y-98754203D01*
X173819750Y-98759419D01*
X173839962Y-98766651D01*
X173859368Y-98775830D01*
X173877781Y-98786866D01*
X173895024Y-98799654D01*
X173910930Y-98814070D01*
X173925346Y-98829976D01*
X173938134Y-98847219D01*
X173949170Y-98865632D01*
X173958349Y-98885038D01*
X173965581Y-98905250D01*
X173970797Y-98926074D01*
X173973947Y-98947309D01*
X173975000Y-98968750D01*
X173975000Y-99406250D01*
X173973947Y-99427691D01*
X173970797Y-99448926D01*
X173965581Y-99469750D01*
X173958349Y-99489962D01*
X173949170Y-99509368D01*
X173938134Y-99527781D01*
X173925346Y-99545024D01*
X173910930Y-99560930D01*
X173895024Y-99575346D01*
X173877781Y-99588134D01*
X173859368Y-99599170D01*
X173839962Y-99608349D01*
X173819750Y-99615581D01*
X173798926Y-99620797D01*
X173777691Y-99623947D01*
X173756250Y-99625000D01*
X173243750Y-99625000D01*
X173222309Y-99623947D01*
X173201074Y-99620797D01*
X173180250Y-99615581D01*
X173160038Y-99608349D01*
X173140632Y-99599170D01*
X173122219Y-99588134D01*
X173104976Y-99575346D01*
X173089070Y-99560930D01*
X173074654Y-99545024D01*
X173061866Y-99527781D01*
X173050830Y-99509368D01*
X173041651Y-99489962D01*
X173034419Y-99469750D01*
X173029203Y-99448926D01*
X173026053Y-99427691D01*
X173025000Y-99406250D01*
X173025000Y-98968750D01*
X173026053Y-98947309D01*
X173029203Y-98926074D01*
X173034419Y-98905250D01*
X173041651Y-98885038D01*
X173050830Y-98865632D01*
X173061866Y-98847219D01*
X173074654Y-98829976D01*
X173089070Y-98814070D01*
X173104976Y-98799654D01*
X173122219Y-98786866D01*
X173140632Y-98775830D01*
X173160038Y-98766651D01*
X173180250Y-98759419D01*
X173201074Y-98754203D01*
X173222309Y-98751053D01*
X173243750Y-98750000D01*
X173756250Y-98750000D01*
X173777691Y-98751053D01*
X173777691Y-98751053D01*
G37*
D11*
X173500000Y-99187500D03*
D10*
G36*
X173777691Y-97176053D02*
X173798926Y-97179203D01*
X173819750Y-97184419D01*
X173839962Y-97191651D01*
X173859368Y-97200830D01*
X173877781Y-97211866D01*
X173895024Y-97224654D01*
X173910930Y-97239070D01*
X173925346Y-97254976D01*
X173938134Y-97272219D01*
X173949170Y-97290632D01*
X173958349Y-97310038D01*
X173965581Y-97330250D01*
X173970797Y-97351074D01*
X173973947Y-97372309D01*
X173975000Y-97393750D01*
X173975000Y-97831250D01*
X173973947Y-97852691D01*
X173970797Y-97873926D01*
X173965581Y-97894750D01*
X173958349Y-97914962D01*
X173949170Y-97934368D01*
X173938134Y-97952781D01*
X173925346Y-97970024D01*
X173910930Y-97985930D01*
X173895024Y-98000346D01*
X173877781Y-98013134D01*
X173859368Y-98024170D01*
X173839962Y-98033349D01*
X173819750Y-98040581D01*
X173798926Y-98045797D01*
X173777691Y-98048947D01*
X173756250Y-98050000D01*
X173243750Y-98050000D01*
X173222309Y-98048947D01*
X173201074Y-98045797D01*
X173180250Y-98040581D01*
X173160038Y-98033349D01*
X173140632Y-98024170D01*
X173122219Y-98013134D01*
X173104976Y-98000346D01*
X173089070Y-97985930D01*
X173074654Y-97970024D01*
X173061866Y-97952781D01*
X173050830Y-97934368D01*
X173041651Y-97914962D01*
X173034419Y-97894750D01*
X173029203Y-97873926D01*
X173026053Y-97852691D01*
X173025000Y-97831250D01*
X173025000Y-97393750D01*
X173026053Y-97372309D01*
X173029203Y-97351074D01*
X173034419Y-97330250D01*
X173041651Y-97310038D01*
X173050830Y-97290632D01*
X173061866Y-97272219D01*
X173074654Y-97254976D01*
X173089070Y-97239070D01*
X173104976Y-97224654D01*
X173122219Y-97211866D01*
X173140632Y-97200830D01*
X173160038Y-97191651D01*
X173180250Y-97184419D01*
X173201074Y-97179203D01*
X173222309Y-97176053D01*
X173243750Y-97175000D01*
X173756250Y-97175000D01*
X173777691Y-97176053D01*
X173777691Y-97176053D01*
G37*
D11*
X173500000Y-97612500D03*
G04 #@! TD*
D10*
G04 #@! TO.C,R19*
G36*
X178777691Y-97176053D02*
X178798926Y-97179203D01*
X178819750Y-97184419D01*
X178839962Y-97191651D01*
X178859368Y-97200830D01*
X178877781Y-97211866D01*
X178895024Y-97224654D01*
X178910930Y-97239070D01*
X178925346Y-97254976D01*
X178938134Y-97272219D01*
X178949170Y-97290632D01*
X178958349Y-97310038D01*
X178965581Y-97330250D01*
X178970797Y-97351074D01*
X178973947Y-97372309D01*
X178975000Y-97393750D01*
X178975000Y-97831250D01*
X178973947Y-97852691D01*
X178970797Y-97873926D01*
X178965581Y-97894750D01*
X178958349Y-97914962D01*
X178949170Y-97934368D01*
X178938134Y-97952781D01*
X178925346Y-97970024D01*
X178910930Y-97985930D01*
X178895024Y-98000346D01*
X178877781Y-98013134D01*
X178859368Y-98024170D01*
X178839962Y-98033349D01*
X178819750Y-98040581D01*
X178798926Y-98045797D01*
X178777691Y-98048947D01*
X178756250Y-98050000D01*
X178243750Y-98050000D01*
X178222309Y-98048947D01*
X178201074Y-98045797D01*
X178180250Y-98040581D01*
X178160038Y-98033349D01*
X178140632Y-98024170D01*
X178122219Y-98013134D01*
X178104976Y-98000346D01*
X178089070Y-97985930D01*
X178074654Y-97970024D01*
X178061866Y-97952781D01*
X178050830Y-97934368D01*
X178041651Y-97914962D01*
X178034419Y-97894750D01*
X178029203Y-97873926D01*
X178026053Y-97852691D01*
X178025000Y-97831250D01*
X178025000Y-97393750D01*
X178026053Y-97372309D01*
X178029203Y-97351074D01*
X178034419Y-97330250D01*
X178041651Y-97310038D01*
X178050830Y-97290632D01*
X178061866Y-97272219D01*
X178074654Y-97254976D01*
X178089070Y-97239070D01*
X178104976Y-97224654D01*
X178122219Y-97211866D01*
X178140632Y-97200830D01*
X178160038Y-97191651D01*
X178180250Y-97184419D01*
X178201074Y-97179203D01*
X178222309Y-97176053D01*
X178243750Y-97175000D01*
X178756250Y-97175000D01*
X178777691Y-97176053D01*
X178777691Y-97176053D01*
G37*
D11*
X178500000Y-97612500D03*
D10*
G36*
X178777691Y-98751053D02*
X178798926Y-98754203D01*
X178819750Y-98759419D01*
X178839962Y-98766651D01*
X178859368Y-98775830D01*
X178877781Y-98786866D01*
X178895024Y-98799654D01*
X178910930Y-98814070D01*
X178925346Y-98829976D01*
X178938134Y-98847219D01*
X178949170Y-98865632D01*
X178958349Y-98885038D01*
X178965581Y-98905250D01*
X178970797Y-98926074D01*
X178973947Y-98947309D01*
X178975000Y-98968750D01*
X178975000Y-99406250D01*
X178973947Y-99427691D01*
X178970797Y-99448926D01*
X178965581Y-99469750D01*
X178958349Y-99489962D01*
X178949170Y-99509368D01*
X178938134Y-99527781D01*
X178925346Y-99545024D01*
X178910930Y-99560930D01*
X178895024Y-99575346D01*
X178877781Y-99588134D01*
X178859368Y-99599170D01*
X178839962Y-99608349D01*
X178819750Y-99615581D01*
X178798926Y-99620797D01*
X178777691Y-99623947D01*
X178756250Y-99625000D01*
X178243750Y-99625000D01*
X178222309Y-99623947D01*
X178201074Y-99620797D01*
X178180250Y-99615581D01*
X178160038Y-99608349D01*
X178140632Y-99599170D01*
X178122219Y-99588134D01*
X178104976Y-99575346D01*
X178089070Y-99560930D01*
X178074654Y-99545024D01*
X178061866Y-99527781D01*
X178050830Y-99509368D01*
X178041651Y-99489962D01*
X178034419Y-99469750D01*
X178029203Y-99448926D01*
X178026053Y-99427691D01*
X178025000Y-99406250D01*
X178025000Y-98968750D01*
X178026053Y-98947309D01*
X178029203Y-98926074D01*
X178034419Y-98905250D01*
X178041651Y-98885038D01*
X178050830Y-98865632D01*
X178061866Y-98847219D01*
X178074654Y-98829976D01*
X178089070Y-98814070D01*
X178104976Y-98799654D01*
X178122219Y-98786866D01*
X178140632Y-98775830D01*
X178160038Y-98766651D01*
X178180250Y-98759419D01*
X178201074Y-98754203D01*
X178222309Y-98751053D01*
X178243750Y-98750000D01*
X178756250Y-98750000D01*
X178777691Y-98751053D01*
X178777691Y-98751053D01*
G37*
D11*
X178500000Y-99187500D03*
G04 #@! TD*
D10*
G04 #@! TO.C,R10*
G36*
X154677691Y-73951053D02*
X154698926Y-73954203D01*
X154719750Y-73959419D01*
X154739962Y-73966651D01*
X154759368Y-73975830D01*
X154777781Y-73986866D01*
X154795024Y-73999654D01*
X154810930Y-74014070D01*
X154825346Y-74029976D01*
X154838134Y-74047219D01*
X154849170Y-74065632D01*
X154858349Y-74085038D01*
X154865581Y-74105250D01*
X154870797Y-74126074D01*
X154873947Y-74147309D01*
X154875000Y-74168750D01*
X154875000Y-74606250D01*
X154873947Y-74627691D01*
X154870797Y-74648926D01*
X154865581Y-74669750D01*
X154858349Y-74689962D01*
X154849170Y-74709368D01*
X154838134Y-74727781D01*
X154825346Y-74745024D01*
X154810930Y-74760930D01*
X154795024Y-74775346D01*
X154777781Y-74788134D01*
X154759368Y-74799170D01*
X154739962Y-74808349D01*
X154719750Y-74815581D01*
X154698926Y-74820797D01*
X154677691Y-74823947D01*
X154656250Y-74825000D01*
X154143750Y-74825000D01*
X154122309Y-74823947D01*
X154101074Y-74820797D01*
X154080250Y-74815581D01*
X154060038Y-74808349D01*
X154040632Y-74799170D01*
X154022219Y-74788134D01*
X154004976Y-74775346D01*
X153989070Y-74760930D01*
X153974654Y-74745024D01*
X153961866Y-74727781D01*
X153950830Y-74709368D01*
X153941651Y-74689962D01*
X153934419Y-74669750D01*
X153929203Y-74648926D01*
X153926053Y-74627691D01*
X153925000Y-74606250D01*
X153925000Y-74168750D01*
X153926053Y-74147309D01*
X153929203Y-74126074D01*
X153934419Y-74105250D01*
X153941651Y-74085038D01*
X153950830Y-74065632D01*
X153961866Y-74047219D01*
X153974654Y-74029976D01*
X153989070Y-74014070D01*
X154004976Y-73999654D01*
X154022219Y-73986866D01*
X154040632Y-73975830D01*
X154060038Y-73966651D01*
X154080250Y-73959419D01*
X154101074Y-73954203D01*
X154122309Y-73951053D01*
X154143750Y-73950000D01*
X154656250Y-73950000D01*
X154677691Y-73951053D01*
X154677691Y-73951053D01*
G37*
D11*
X154400000Y-74387500D03*
D10*
G36*
X154677691Y-72376053D02*
X154698926Y-72379203D01*
X154719750Y-72384419D01*
X154739962Y-72391651D01*
X154759368Y-72400830D01*
X154777781Y-72411866D01*
X154795024Y-72424654D01*
X154810930Y-72439070D01*
X154825346Y-72454976D01*
X154838134Y-72472219D01*
X154849170Y-72490632D01*
X154858349Y-72510038D01*
X154865581Y-72530250D01*
X154870797Y-72551074D01*
X154873947Y-72572309D01*
X154875000Y-72593750D01*
X154875000Y-73031250D01*
X154873947Y-73052691D01*
X154870797Y-73073926D01*
X154865581Y-73094750D01*
X154858349Y-73114962D01*
X154849170Y-73134368D01*
X154838134Y-73152781D01*
X154825346Y-73170024D01*
X154810930Y-73185930D01*
X154795024Y-73200346D01*
X154777781Y-73213134D01*
X154759368Y-73224170D01*
X154739962Y-73233349D01*
X154719750Y-73240581D01*
X154698926Y-73245797D01*
X154677691Y-73248947D01*
X154656250Y-73250000D01*
X154143750Y-73250000D01*
X154122309Y-73248947D01*
X154101074Y-73245797D01*
X154080250Y-73240581D01*
X154060038Y-73233349D01*
X154040632Y-73224170D01*
X154022219Y-73213134D01*
X154004976Y-73200346D01*
X153989070Y-73185930D01*
X153974654Y-73170024D01*
X153961866Y-73152781D01*
X153950830Y-73134368D01*
X153941651Y-73114962D01*
X153934419Y-73094750D01*
X153929203Y-73073926D01*
X153926053Y-73052691D01*
X153925000Y-73031250D01*
X153925000Y-72593750D01*
X153926053Y-72572309D01*
X153929203Y-72551074D01*
X153934419Y-72530250D01*
X153941651Y-72510038D01*
X153950830Y-72490632D01*
X153961866Y-72472219D01*
X153974654Y-72454976D01*
X153989070Y-72439070D01*
X154004976Y-72424654D01*
X154022219Y-72411866D01*
X154040632Y-72400830D01*
X154060038Y-72391651D01*
X154080250Y-72384419D01*
X154101074Y-72379203D01*
X154122309Y-72376053D01*
X154143750Y-72375000D01*
X154656250Y-72375000D01*
X154677691Y-72376053D01*
X154677691Y-72376053D01*
G37*
D11*
X154400000Y-72812500D03*
G04 #@! TD*
D10*
G04 #@! TO.C,R16*
G36*
X154777691Y-99151053D02*
X154798926Y-99154203D01*
X154819750Y-99159419D01*
X154839962Y-99166651D01*
X154859368Y-99175830D01*
X154877781Y-99186866D01*
X154895024Y-99199654D01*
X154910930Y-99214070D01*
X154925346Y-99229976D01*
X154938134Y-99247219D01*
X154949170Y-99265632D01*
X154958349Y-99285038D01*
X154965581Y-99305250D01*
X154970797Y-99326074D01*
X154973947Y-99347309D01*
X154975000Y-99368750D01*
X154975000Y-99806250D01*
X154973947Y-99827691D01*
X154970797Y-99848926D01*
X154965581Y-99869750D01*
X154958349Y-99889962D01*
X154949170Y-99909368D01*
X154938134Y-99927781D01*
X154925346Y-99945024D01*
X154910930Y-99960930D01*
X154895024Y-99975346D01*
X154877781Y-99988134D01*
X154859368Y-99999170D01*
X154839962Y-100008349D01*
X154819750Y-100015581D01*
X154798926Y-100020797D01*
X154777691Y-100023947D01*
X154756250Y-100025000D01*
X154243750Y-100025000D01*
X154222309Y-100023947D01*
X154201074Y-100020797D01*
X154180250Y-100015581D01*
X154160038Y-100008349D01*
X154140632Y-99999170D01*
X154122219Y-99988134D01*
X154104976Y-99975346D01*
X154089070Y-99960930D01*
X154074654Y-99945024D01*
X154061866Y-99927781D01*
X154050830Y-99909368D01*
X154041651Y-99889962D01*
X154034419Y-99869750D01*
X154029203Y-99848926D01*
X154026053Y-99827691D01*
X154025000Y-99806250D01*
X154025000Y-99368750D01*
X154026053Y-99347309D01*
X154029203Y-99326074D01*
X154034419Y-99305250D01*
X154041651Y-99285038D01*
X154050830Y-99265632D01*
X154061866Y-99247219D01*
X154074654Y-99229976D01*
X154089070Y-99214070D01*
X154104976Y-99199654D01*
X154122219Y-99186866D01*
X154140632Y-99175830D01*
X154160038Y-99166651D01*
X154180250Y-99159419D01*
X154201074Y-99154203D01*
X154222309Y-99151053D01*
X154243750Y-99150000D01*
X154756250Y-99150000D01*
X154777691Y-99151053D01*
X154777691Y-99151053D01*
G37*
D11*
X154500000Y-99587500D03*
D10*
G36*
X154777691Y-97576053D02*
X154798926Y-97579203D01*
X154819750Y-97584419D01*
X154839962Y-97591651D01*
X154859368Y-97600830D01*
X154877781Y-97611866D01*
X154895024Y-97624654D01*
X154910930Y-97639070D01*
X154925346Y-97654976D01*
X154938134Y-97672219D01*
X154949170Y-97690632D01*
X154958349Y-97710038D01*
X154965581Y-97730250D01*
X154970797Y-97751074D01*
X154973947Y-97772309D01*
X154975000Y-97793750D01*
X154975000Y-98231250D01*
X154973947Y-98252691D01*
X154970797Y-98273926D01*
X154965581Y-98294750D01*
X154958349Y-98314962D01*
X154949170Y-98334368D01*
X154938134Y-98352781D01*
X154925346Y-98370024D01*
X154910930Y-98385930D01*
X154895024Y-98400346D01*
X154877781Y-98413134D01*
X154859368Y-98424170D01*
X154839962Y-98433349D01*
X154819750Y-98440581D01*
X154798926Y-98445797D01*
X154777691Y-98448947D01*
X154756250Y-98450000D01*
X154243750Y-98450000D01*
X154222309Y-98448947D01*
X154201074Y-98445797D01*
X154180250Y-98440581D01*
X154160038Y-98433349D01*
X154140632Y-98424170D01*
X154122219Y-98413134D01*
X154104976Y-98400346D01*
X154089070Y-98385930D01*
X154074654Y-98370024D01*
X154061866Y-98352781D01*
X154050830Y-98334368D01*
X154041651Y-98314962D01*
X154034419Y-98294750D01*
X154029203Y-98273926D01*
X154026053Y-98252691D01*
X154025000Y-98231250D01*
X154025000Y-97793750D01*
X154026053Y-97772309D01*
X154029203Y-97751074D01*
X154034419Y-97730250D01*
X154041651Y-97710038D01*
X154050830Y-97690632D01*
X154061866Y-97672219D01*
X154074654Y-97654976D01*
X154089070Y-97639070D01*
X154104976Y-97624654D01*
X154122219Y-97611866D01*
X154140632Y-97600830D01*
X154160038Y-97591651D01*
X154180250Y-97584419D01*
X154201074Y-97579203D01*
X154222309Y-97576053D01*
X154243750Y-97575000D01*
X154756250Y-97575000D01*
X154777691Y-97576053D01*
X154777691Y-97576053D01*
G37*
D11*
X154500000Y-98012500D03*
G04 #@! TD*
D10*
G04 #@! TO.C,R15*
G36*
X149477691Y-97576053D02*
X149498926Y-97579203D01*
X149519750Y-97584419D01*
X149539962Y-97591651D01*
X149559368Y-97600830D01*
X149577781Y-97611866D01*
X149595024Y-97624654D01*
X149610930Y-97639070D01*
X149625346Y-97654976D01*
X149638134Y-97672219D01*
X149649170Y-97690632D01*
X149658349Y-97710038D01*
X149665581Y-97730250D01*
X149670797Y-97751074D01*
X149673947Y-97772309D01*
X149675000Y-97793750D01*
X149675000Y-98231250D01*
X149673947Y-98252691D01*
X149670797Y-98273926D01*
X149665581Y-98294750D01*
X149658349Y-98314962D01*
X149649170Y-98334368D01*
X149638134Y-98352781D01*
X149625346Y-98370024D01*
X149610930Y-98385930D01*
X149595024Y-98400346D01*
X149577781Y-98413134D01*
X149559368Y-98424170D01*
X149539962Y-98433349D01*
X149519750Y-98440581D01*
X149498926Y-98445797D01*
X149477691Y-98448947D01*
X149456250Y-98450000D01*
X148943750Y-98450000D01*
X148922309Y-98448947D01*
X148901074Y-98445797D01*
X148880250Y-98440581D01*
X148860038Y-98433349D01*
X148840632Y-98424170D01*
X148822219Y-98413134D01*
X148804976Y-98400346D01*
X148789070Y-98385930D01*
X148774654Y-98370024D01*
X148761866Y-98352781D01*
X148750830Y-98334368D01*
X148741651Y-98314962D01*
X148734419Y-98294750D01*
X148729203Y-98273926D01*
X148726053Y-98252691D01*
X148725000Y-98231250D01*
X148725000Y-97793750D01*
X148726053Y-97772309D01*
X148729203Y-97751074D01*
X148734419Y-97730250D01*
X148741651Y-97710038D01*
X148750830Y-97690632D01*
X148761866Y-97672219D01*
X148774654Y-97654976D01*
X148789070Y-97639070D01*
X148804976Y-97624654D01*
X148822219Y-97611866D01*
X148840632Y-97600830D01*
X148860038Y-97591651D01*
X148880250Y-97584419D01*
X148901074Y-97579203D01*
X148922309Y-97576053D01*
X148943750Y-97575000D01*
X149456250Y-97575000D01*
X149477691Y-97576053D01*
X149477691Y-97576053D01*
G37*
D11*
X149200000Y-98012500D03*
D10*
G36*
X149477691Y-99151053D02*
X149498926Y-99154203D01*
X149519750Y-99159419D01*
X149539962Y-99166651D01*
X149559368Y-99175830D01*
X149577781Y-99186866D01*
X149595024Y-99199654D01*
X149610930Y-99214070D01*
X149625346Y-99229976D01*
X149638134Y-99247219D01*
X149649170Y-99265632D01*
X149658349Y-99285038D01*
X149665581Y-99305250D01*
X149670797Y-99326074D01*
X149673947Y-99347309D01*
X149675000Y-99368750D01*
X149675000Y-99806250D01*
X149673947Y-99827691D01*
X149670797Y-99848926D01*
X149665581Y-99869750D01*
X149658349Y-99889962D01*
X149649170Y-99909368D01*
X149638134Y-99927781D01*
X149625346Y-99945024D01*
X149610930Y-99960930D01*
X149595024Y-99975346D01*
X149577781Y-99988134D01*
X149559368Y-99999170D01*
X149539962Y-100008349D01*
X149519750Y-100015581D01*
X149498926Y-100020797D01*
X149477691Y-100023947D01*
X149456250Y-100025000D01*
X148943750Y-100025000D01*
X148922309Y-100023947D01*
X148901074Y-100020797D01*
X148880250Y-100015581D01*
X148860038Y-100008349D01*
X148840632Y-99999170D01*
X148822219Y-99988134D01*
X148804976Y-99975346D01*
X148789070Y-99960930D01*
X148774654Y-99945024D01*
X148761866Y-99927781D01*
X148750830Y-99909368D01*
X148741651Y-99889962D01*
X148734419Y-99869750D01*
X148729203Y-99848926D01*
X148726053Y-99827691D01*
X148725000Y-99806250D01*
X148725000Y-99368750D01*
X148726053Y-99347309D01*
X148729203Y-99326074D01*
X148734419Y-99305250D01*
X148741651Y-99285038D01*
X148750830Y-99265632D01*
X148761866Y-99247219D01*
X148774654Y-99229976D01*
X148789070Y-99214070D01*
X148804976Y-99199654D01*
X148822219Y-99186866D01*
X148840632Y-99175830D01*
X148860038Y-99166651D01*
X148880250Y-99159419D01*
X148901074Y-99154203D01*
X148922309Y-99151053D01*
X148943750Y-99150000D01*
X149456250Y-99150000D01*
X149477691Y-99151053D01*
X149477691Y-99151053D01*
G37*
D11*
X149200000Y-99587500D03*
G04 #@! TD*
D10*
G04 #@! TO.C,R14*
G36*
X151352691Y-100126053D02*
X151373926Y-100129203D01*
X151394750Y-100134419D01*
X151414962Y-100141651D01*
X151434368Y-100150830D01*
X151452781Y-100161866D01*
X151470024Y-100174654D01*
X151485930Y-100189070D01*
X151500346Y-100204976D01*
X151513134Y-100222219D01*
X151524170Y-100240632D01*
X151533349Y-100260038D01*
X151540581Y-100280250D01*
X151545797Y-100301074D01*
X151548947Y-100322309D01*
X151550000Y-100343750D01*
X151550000Y-100856250D01*
X151548947Y-100877691D01*
X151545797Y-100898926D01*
X151540581Y-100919750D01*
X151533349Y-100939962D01*
X151524170Y-100959368D01*
X151513134Y-100977781D01*
X151500346Y-100995024D01*
X151485930Y-101010930D01*
X151470024Y-101025346D01*
X151452781Y-101038134D01*
X151434368Y-101049170D01*
X151414962Y-101058349D01*
X151394750Y-101065581D01*
X151373926Y-101070797D01*
X151352691Y-101073947D01*
X151331250Y-101075000D01*
X150893750Y-101075000D01*
X150872309Y-101073947D01*
X150851074Y-101070797D01*
X150830250Y-101065581D01*
X150810038Y-101058349D01*
X150790632Y-101049170D01*
X150772219Y-101038134D01*
X150754976Y-101025346D01*
X150739070Y-101010930D01*
X150724654Y-100995024D01*
X150711866Y-100977781D01*
X150700830Y-100959368D01*
X150691651Y-100939962D01*
X150684419Y-100919750D01*
X150679203Y-100898926D01*
X150676053Y-100877691D01*
X150675000Y-100856250D01*
X150675000Y-100343750D01*
X150676053Y-100322309D01*
X150679203Y-100301074D01*
X150684419Y-100280250D01*
X150691651Y-100260038D01*
X150700830Y-100240632D01*
X150711866Y-100222219D01*
X150724654Y-100204976D01*
X150739070Y-100189070D01*
X150754976Y-100174654D01*
X150772219Y-100161866D01*
X150790632Y-100150830D01*
X150810038Y-100141651D01*
X150830250Y-100134419D01*
X150851074Y-100129203D01*
X150872309Y-100126053D01*
X150893750Y-100125000D01*
X151331250Y-100125000D01*
X151352691Y-100126053D01*
X151352691Y-100126053D01*
G37*
D11*
X151112500Y-100600000D03*
D10*
G36*
X152927691Y-100126053D02*
X152948926Y-100129203D01*
X152969750Y-100134419D01*
X152989962Y-100141651D01*
X153009368Y-100150830D01*
X153027781Y-100161866D01*
X153045024Y-100174654D01*
X153060930Y-100189070D01*
X153075346Y-100204976D01*
X153088134Y-100222219D01*
X153099170Y-100240632D01*
X153108349Y-100260038D01*
X153115581Y-100280250D01*
X153120797Y-100301074D01*
X153123947Y-100322309D01*
X153125000Y-100343750D01*
X153125000Y-100856250D01*
X153123947Y-100877691D01*
X153120797Y-100898926D01*
X153115581Y-100919750D01*
X153108349Y-100939962D01*
X153099170Y-100959368D01*
X153088134Y-100977781D01*
X153075346Y-100995024D01*
X153060930Y-101010930D01*
X153045024Y-101025346D01*
X153027781Y-101038134D01*
X153009368Y-101049170D01*
X152989962Y-101058349D01*
X152969750Y-101065581D01*
X152948926Y-101070797D01*
X152927691Y-101073947D01*
X152906250Y-101075000D01*
X152468750Y-101075000D01*
X152447309Y-101073947D01*
X152426074Y-101070797D01*
X152405250Y-101065581D01*
X152385038Y-101058349D01*
X152365632Y-101049170D01*
X152347219Y-101038134D01*
X152329976Y-101025346D01*
X152314070Y-101010930D01*
X152299654Y-100995024D01*
X152286866Y-100977781D01*
X152275830Y-100959368D01*
X152266651Y-100939962D01*
X152259419Y-100919750D01*
X152254203Y-100898926D01*
X152251053Y-100877691D01*
X152250000Y-100856250D01*
X152250000Y-100343750D01*
X152251053Y-100322309D01*
X152254203Y-100301074D01*
X152259419Y-100280250D01*
X152266651Y-100260038D01*
X152275830Y-100240632D01*
X152286866Y-100222219D01*
X152299654Y-100204976D01*
X152314070Y-100189070D01*
X152329976Y-100174654D01*
X152347219Y-100161866D01*
X152365632Y-100150830D01*
X152385038Y-100141651D01*
X152405250Y-100134419D01*
X152426074Y-100129203D01*
X152447309Y-100126053D01*
X152468750Y-100125000D01*
X152906250Y-100125000D01*
X152927691Y-100126053D01*
X152927691Y-100126053D01*
G37*
D11*
X152687500Y-100600000D03*
G04 #@! TD*
D10*
G04 #@! TO.C,R17*
G36*
X175452691Y-99926053D02*
X175473926Y-99929203D01*
X175494750Y-99934419D01*
X175514962Y-99941651D01*
X175534368Y-99950830D01*
X175552781Y-99961866D01*
X175570024Y-99974654D01*
X175585930Y-99989070D01*
X175600346Y-100004976D01*
X175613134Y-100022219D01*
X175624170Y-100040632D01*
X175633349Y-100060038D01*
X175640581Y-100080250D01*
X175645797Y-100101074D01*
X175648947Y-100122309D01*
X175650000Y-100143750D01*
X175650000Y-100656250D01*
X175648947Y-100677691D01*
X175645797Y-100698926D01*
X175640581Y-100719750D01*
X175633349Y-100739962D01*
X175624170Y-100759368D01*
X175613134Y-100777781D01*
X175600346Y-100795024D01*
X175585930Y-100810930D01*
X175570024Y-100825346D01*
X175552781Y-100838134D01*
X175534368Y-100849170D01*
X175514962Y-100858349D01*
X175494750Y-100865581D01*
X175473926Y-100870797D01*
X175452691Y-100873947D01*
X175431250Y-100875000D01*
X174993750Y-100875000D01*
X174972309Y-100873947D01*
X174951074Y-100870797D01*
X174930250Y-100865581D01*
X174910038Y-100858349D01*
X174890632Y-100849170D01*
X174872219Y-100838134D01*
X174854976Y-100825346D01*
X174839070Y-100810930D01*
X174824654Y-100795024D01*
X174811866Y-100777781D01*
X174800830Y-100759368D01*
X174791651Y-100739962D01*
X174784419Y-100719750D01*
X174779203Y-100698926D01*
X174776053Y-100677691D01*
X174775000Y-100656250D01*
X174775000Y-100143750D01*
X174776053Y-100122309D01*
X174779203Y-100101074D01*
X174784419Y-100080250D01*
X174791651Y-100060038D01*
X174800830Y-100040632D01*
X174811866Y-100022219D01*
X174824654Y-100004976D01*
X174839070Y-99989070D01*
X174854976Y-99974654D01*
X174872219Y-99961866D01*
X174890632Y-99950830D01*
X174910038Y-99941651D01*
X174930250Y-99934419D01*
X174951074Y-99929203D01*
X174972309Y-99926053D01*
X174993750Y-99925000D01*
X175431250Y-99925000D01*
X175452691Y-99926053D01*
X175452691Y-99926053D01*
G37*
D11*
X175212500Y-100400000D03*
D10*
G36*
X177027691Y-99926053D02*
X177048926Y-99929203D01*
X177069750Y-99934419D01*
X177089962Y-99941651D01*
X177109368Y-99950830D01*
X177127781Y-99961866D01*
X177145024Y-99974654D01*
X177160930Y-99989070D01*
X177175346Y-100004976D01*
X177188134Y-100022219D01*
X177199170Y-100040632D01*
X177208349Y-100060038D01*
X177215581Y-100080250D01*
X177220797Y-100101074D01*
X177223947Y-100122309D01*
X177225000Y-100143750D01*
X177225000Y-100656250D01*
X177223947Y-100677691D01*
X177220797Y-100698926D01*
X177215581Y-100719750D01*
X177208349Y-100739962D01*
X177199170Y-100759368D01*
X177188134Y-100777781D01*
X177175346Y-100795024D01*
X177160930Y-100810930D01*
X177145024Y-100825346D01*
X177127781Y-100838134D01*
X177109368Y-100849170D01*
X177089962Y-100858349D01*
X177069750Y-100865581D01*
X177048926Y-100870797D01*
X177027691Y-100873947D01*
X177006250Y-100875000D01*
X176568750Y-100875000D01*
X176547309Y-100873947D01*
X176526074Y-100870797D01*
X176505250Y-100865581D01*
X176485038Y-100858349D01*
X176465632Y-100849170D01*
X176447219Y-100838134D01*
X176429976Y-100825346D01*
X176414070Y-100810930D01*
X176399654Y-100795024D01*
X176386866Y-100777781D01*
X176375830Y-100759368D01*
X176366651Y-100739962D01*
X176359419Y-100719750D01*
X176354203Y-100698926D01*
X176351053Y-100677691D01*
X176350000Y-100656250D01*
X176350000Y-100143750D01*
X176351053Y-100122309D01*
X176354203Y-100101074D01*
X176359419Y-100080250D01*
X176366651Y-100060038D01*
X176375830Y-100040632D01*
X176386866Y-100022219D01*
X176399654Y-100004976D01*
X176414070Y-99989070D01*
X176429976Y-99974654D01*
X176447219Y-99961866D01*
X176465632Y-99950830D01*
X176485038Y-99941651D01*
X176505250Y-99934419D01*
X176526074Y-99929203D01*
X176547309Y-99926053D01*
X176568750Y-99925000D01*
X177006250Y-99925000D01*
X177027691Y-99926053D01*
X177027691Y-99926053D01*
G37*
D11*
X176787500Y-100400000D03*
G04 #@! TD*
D15*
G04 #@! TO.C,U4*
X165050000Y-74900000D03*
X166000000Y-74900000D03*
X166950000Y-74900000D03*
X166950000Y-72700000D03*
X165050000Y-72700000D03*
X166000000Y-72700000D03*
G04 #@! TD*
D16*
G04 #@! TO.C,U5*
X172200000Y-87650000D03*
X172700000Y-87650000D03*
X173200000Y-87650000D03*
D17*
X173850000Y-87800000D03*
X173850000Y-88300000D03*
X173850000Y-88800000D03*
X173850000Y-89300000D03*
X173850000Y-89800000D03*
D16*
X173200000Y-89950000D03*
X172700000Y-89950000D03*
X172200000Y-89950000D03*
D17*
X171550000Y-89800000D03*
X171550000Y-89300000D03*
X171550000Y-88800000D03*
X171550000Y-88300000D03*
X171550000Y-87800000D03*
G04 #@! TD*
D18*
G04 #@! TO.C,D7*
X175200000Y-73200000D03*
X176800000Y-73200000D03*
X175200000Y-74000000D03*
X176800000Y-74000000D03*
G04 #@! TD*
G04 #@! TO.C,D8*
X152700000Y-98900000D03*
X151100000Y-98900000D03*
X152700000Y-98100000D03*
X151100000Y-98100000D03*
G04 #@! TD*
G04 #@! TO.C,D9*
X175200000Y-98000000D03*
X176800000Y-98000000D03*
X175200000Y-98800000D03*
X176800000Y-98800000D03*
G04 #@! TD*
G04 #@! TO.C,D6*
X152800000Y-74000000D03*
X151200000Y-74000000D03*
X152800000Y-73200000D03*
X151200000Y-73200000D03*
G04 #@! TD*
D10*
G04 #@! TO.C,C4*
G36*
X165452691Y-70526053D02*
X165473926Y-70529203D01*
X165494750Y-70534419D01*
X165514962Y-70541651D01*
X165534368Y-70550830D01*
X165552781Y-70561866D01*
X165570024Y-70574654D01*
X165585930Y-70589070D01*
X165600346Y-70604976D01*
X165613134Y-70622219D01*
X165624170Y-70640632D01*
X165633349Y-70660038D01*
X165640581Y-70680250D01*
X165645797Y-70701074D01*
X165648947Y-70722309D01*
X165650000Y-70743750D01*
X165650000Y-71256250D01*
X165648947Y-71277691D01*
X165645797Y-71298926D01*
X165640581Y-71319750D01*
X165633349Y-71339962D01*
X165624170Y-71359368D01*
X165613134Y-71377781D01*
X165600346Y-71395024D01*
X165585930Y-71410930D01*
X165570024Y-71425346D01*
X165552781Y-71438134D01*
X165534368Y-71449170D01*
X165514962Y-71458349D01*
X165494750Y-71465581D01*
X165473926Y-71470797D01*
X165452691Y-71473947D01*
X165431250Y-71475000D01*
X164993750Y-71475000D01*
X164972309Y-71473947D01*
X164951074Y-71470797D01*
X164930250Y-71465581D01*
X164910038Y-71458349D01*
X164890632Y-71449170D01*
X164872219Y-71438134D01*
X164854976Y-71425346D01*
X164839070Y-71410930D01*
X164824654Y-71395024D01*
X164811866Y-71377781D01*
X164800830Y-71359368D01*
X164791651Y-71339962D01*
X164784419Y-71319750D01*
X164779203Y-71298926D01*
X164776053Y-71277691D01*
X164775000Y-71256250D01*
X164775000Y-70743750D01*
X164776053Y-70722309D01*
X164779203Y-70701074D01*
X164784419Y-70680250D01*
X164791651Y-70660038D01*
X164800830Y-70640632D01*
X164811866Y-70622219D01*
X164824654Y-70604976D01*
X164839070Y-70589070D01*
X164854976Y-70574654D01*
X164872219Y-70561866D01*
X164890632Y-70550830D01*
X164910038Y-70541651D01*
X164930250Y-70534419D01*
X164951074Y-70529203D01*
X164972309Y-70526053D01*
X164993750Y-70525000D01*
X165431250Y-70525000D01*
X165452691Y-70526053D01*
X165452691Y-70526053D01*
G37*
D11*
X165212500Y-71000000D03*
D10*
G36*
X167027691Y-70526053D02*
X167048926Y-70529203D01*
X167069750Y-70534419D01*
X167089962Y-70541651D01*
X167109368Y-70550830D01*
X167127781Y-70561866D01*
X167145024Y-70574654D01*
X167160930Y-70589070D01*
X167175346Y-70604976D01*
X167188134Y-70622219D01*
X167199170Y-70640632D01*
X167208349Y-70660038D01*
X167215581Y-70680250D01*
X167220797Y-70701074D01*
X167223947Y-70722309D01*
X167225000Y-70743750D01*
X167225000Y-71256250D01*
X167223947Y-71277691D01*
X167220797Y-71298926D01*
X167215581Y-71319750D01*
X167208349Y-71339962D01*
X167199170Y-71359368D01*
X167188134Y-71377781D01*
X167175346Y-71395024D01*
X167160930Y-71410930D01*
X167145024Y-71425346D01*
X167127781Y-71438134D01*
X167109368Y-71449170D01*
X167089962Y-71458349D01*
X167069750Y-71465581D01*
X167048926Y-71470797D01*
X167027691Y-71473947D01*
X167006250Y-71475000D01*
X166568750Y-71475000D01*
X166547309Y-71473947D01*
X166526074Y-71470797D01*
X166505250Y-71465581D01*
X166485038Y-71458349D01*
X166465632Y-71449170D01*
X166447219Y-71438134D01*
X166429976Y-71425346D01*
X166414070Y-71410930D01*
X166399654Y-71395024D01*
X166386866Y-71377781D01*
X166375830Y-71359368D01*
X166366651Y-71339962D01*
X166359419Y-71319750D01*
X166354203Y-71298926D01*
X166351053Y-71277691D01*
X166350000Y-71256250D01*
X166350000Y-70743750D01*
X166351053Y-70722309D01*
X166354203Y-70701074D01*
X166359419Y-70680250D01*
X166366651Y-70660038D01*
X166375830Y-70640632D01*
X166386866Y-70622219D01*
X166399654Y-70604976D01*
X166414070Y-70589070D01*
X166429976Y-70574654D01*
X166447219Y-70561866D01*
X166465632Y-70550830D01*
X166485038Y-70541651D01*
X166505250Y-70534419D01*
X166526074Y-70529203D01*
X166547309Y-70526053D01*
X166568750Y-70525000D01*
X167006250Y-70525000D01*
X167027691Y-70526053D01*
X167027691Y-70526053D01*
G37*
D11*
X166787500Y-71000000D03*
G04 #@! TD*
D10*
G04 #@! TO.C,C5*
G36*
X165452691Y-76126053D02*
X165473926Y-76129203D01*
X165494750Y-76134419D01*
X165514962Y-76141651D01*
X165534368Y-76150830D01*
X165552781Y-76161866D01*
X165570024Y-76174654D01*
X165585930Y-76189070D01*
X165600346Y-76204976D01*
X165613134Y-76222219D01*
X165624170Y-76240632D01*
X165633349Y-76260038D01*
X165640581Y-76280250D01*
X165645797Y-76301074D01*
X165648947Y-76322309D01*
X165650000Y-76343750D01*
X165650000Y-76856250D01*
X165648947Y-76877691D01*
X165645797Y-76898926D01*
X165640581Y-76919750D01*
X165633349Y-76939962D01*
X165624170Y-76959368D01*
X165613134Y-76977781D01*
X165600346Y-76995024D01*
X165585930Y-77010930D01*
X165570024Y-77025346D01*
X165552781Y-77038134D01*
X165534368Y-77049170D01*
X165514962Y-77058349D01*
X165494750Y-77065581D01*
X165473926Y-77070797D01*
X165452691Y-77073947D01*
X165431250Y-77075000D01*
X164993750Y-77075000D01*
X164972309Y-77073947D01*
X164951074Y-77070797D01*
X164930250Y-77065581D01*
X164910038Y-77058349D01*
X164890632Y-77049170D01*
X164872219Y-77038134D01*
X164854976Y-77025346D01*
X164839070Y-77010930D01*
X164824654Y-76995024D01*
X164811866Y-76977781D01*
X164800830Y-76959368D01*
X164791651Y-76939962D01*
X164784419Y-76919750D01*
X164779203Y-76898926D01*
X164776053Y-76877691D01*
X164775000Y-76856250D01*
X164775000Y-76343750D01*
X164776053Y-76322309D01*
X164779203Y-76301074D01*
X164784419Y-76280250D01*
X164791651Y-76260038D01*
X164800830Y-76240632D01*
X164811866Y-76222219D01*
X164824654Y-76204976D01*
X164839070Y-76189070D01*
X164854976Y-76174654D01*
X164872219Y-76161866D01*
X164890632Y-76150830D01*
X164910038Y-76141651D01*
X164930250Y-76134419D01*
X164951074Y-76129203D01*
X164972309Y-76126053D01*
X164993750Y-76125000D01*
X165431250Y-76125000D01*
X165452691Y-76126053D01*
X165452691Y-76126053D01*
G37*
D11*
X165212500Y-76600000D03*
D10*
G36*
X167027691Y-76126053D02*
X167048926Y-76129203D01*
X167069750Y-76134419D01*
X167089962Y-76141651D01*
X167109368Y-76150830D01*
X167127781Y-76161866D01*
X167145024Y-76174654D01*
X167160930Y-76189070D01*
X167175346Y-76204976D01*
X167188134Y-76222219D01*
X167199170Y-76240632D01*
X167208349Y-76260038D01*
X167215581Y-76280250D01*
X167220797Y-76301074D01*
X167223947Y-76322309D01*
X167225000Y-76343750D01*
X167225000Y-76856250D01*
X167223947Y-76877691D01*
X167220797Y-76898926D01*
X167215581Y-76919750D01*
X167208349Y-76939962D01*
X167199170Y-76959368D01*
X167188134Y-76977781D01*
X167175346Y-76995024D01*
X167160930Y-77010930D01*
X167145024Y-77025346D01*
X167127781Y-77038134D01*
X167109368Y-77049170D01*
X167089962Y-77058349D01*
X167069750Y-77065581D01*
X167048926Y-77070797D01*
X167027691Y-77073947D01*
X167006250Y-77075000D01*
X166568750Y-77075000D01*
X166547309Y-77073947D01*
X166526074Y-77070797D01*
X166505250Y-77065581D01*
X166485038Y-77058349D01*
X166465632Y-77049170D01*
X166447219Y-77038134D01*
X166429976Y-77025346D01*
X166414070Y-77010930D01*
X166399654Y-76995024D01*
X166386866Y-76977781D01*
X166375830Y-76959368D01*
X166366651Y-76939962D01*
X166359419Y-76919750D01*
X166354203Y-76898926D01*
X166351053Y-76877691D01*
X166350000Y-76856250D01*
X166350000Y-76343750D01*
X166351053Y-76322309D01*
X166354203Y-76301074D01*
X166359419Y-76280250D01*
X166366651Y-76260038D01*
X166375830Y-76240632D01*
X166386866Y-76222219D01*
X166399654Y-76204976D01*
X166414070Y-76189070D01*
X166429976Y-76174654D01*
X166447219Y-76161866D01*
X166465632Y-76150830D01*
X166485038Y-76141651D01*
X166505250Y-76134419D01*
X166526074Y-76129203D01*
X166547309Y-76126053D01*
X166568750Y-76125000D01*
X167006250Y-76125000D01*
X167027691Y-76126053D01*
X167027691Y-76126053D01*
G37*
D11*
X166787500Y-76600000D03*
G04 #@! TD*
D10*
G04 #@! TO.C,C6*
G36*
X172152691Y-85626053D02*
X172173926Y-85629203D01*
X172194750Y-85634419D01*
X172214962Y-85641651D01*
X172234368Y-85650830D01*
X172252781Y-85661866D01*
X172270024Y-85674654D01*
X172285930Y-85689070D01*
X172300346Y-85704976D01*
X172313134Y-85722219D01*
X172324170Y-85740632D01*
X172333349Y-85760038D01*
X172340581Y-85780250D01*
X172345797Y-85801074D01*
X172348947Y-85822309D01*
X172350000Y-85843750D01*
X172350000Y-86356250D01*
X172348947Y-86377691D01*
X172345797Y-86398926D01*
X172340581Y-86419750D01*
X172333349Y-86439962D01*
X172324170Y-86459368D01*
X172313134Y-86477781D01*
X172300346Y-86495024D01*
X172285930Y-86510930D01*
X172270024Y-86525346D01*
X172252781Y-86538134D01*
X172234368Y-86549170D01*
X172214962Y-86558349D01*
X172194750Y-86565581D01*
X172173926Y-86570797D01*
X172152691Y-86573947D01*
X172131250Y-86575000D01*
X171693750Y-86575000D01*
X171672309Y-86573947D01*
X171651074Y-86570797D01*
X171630250Y-86565581D01*
X171610038Y-86558349D01*
X171590632Y-86549170D01*
X171572219Y-86538134D01*
X171554976Y-86525346D01*
X171539070Y-86510930D01*
X171524654Y-86495024D01*
X171511866Y-86477781D01*
X171500830Y-86459368D01*
X171491651Y-86439962D01*
X171484419Y-86419750D01*
X171479203Y-86398926D01*
X171476053Y-86377691D01*
X171475000Y-86356250D01*
X171475000Y-85843750D01*
X171476053Y-85822309D01*
X171479203Y-85801074D01*
X171484419Y-85780250D01*
X171491651Y-85760038D01*
X171500830Y-85740632D01*
X171511866Y-85722219D01*
X171524654Y-85704976D01*
X171539070Y-85689070D01*
X171554976Y-85674654D01*
X171572219Y-85661866D01*
X171590632Y-85650830D01*
X171610038Y-85641651D01*
X171630250Y-85634419D01*
X171651074Y-85629203D01*
X171672309Y-85626053D01*
X171693750Y-85625000D01*
X172131250Y-85625000D01*
X172152691Y-85626053D01*
X172152691Y-85626053D01*
G37*
D11*
X171912500Y-86100000D03*
D10*
G36*
X173727691Y-85626053D02*
X173748926Y-85629203D01*
X173769750Y-85634419D01*
X173789962Y-85641651D01*
X173809368Y-85650830D01*
X173827781Y-85661866D01*
X173845024Y-85674654D01*
X173860930Y-85689070D01*
X173875346Y-85704976D01*
X173888134Y-85722219D01*
X173899170Y-85740632D01*
X173908349Y-85760038D01*
X173915581Y-85780250D01*
X173920797Y-85801074D01*
X173923947Y-85822309D01*
X173925000Y-85843750D01*
X173925000Y-86356250D01*
X173923947Y-86377691D01*
X173920797Y-86398926D01*
X173915581Y-86419750D01*
X173908349Y-86439962D01*
X173899170Y-86459368D01*
X173888134Y-86477781D01*
X173875346Y-86495024D01*
X173860930Y-86510930D01*
X173845024Y-86525346D01*
X173827781Y-86538134D01*
X173809368Y-86549170D01*
X173789962Y-86558349D01*
X173769750Y-86565581D01*
X173748926Y-86570797D01*
X173727691Y-86573947D01*
X173706250Y-86575000D01*
X173268750Y-86575000D01*
X173247309Y-86573947D01*
X173226074Y-86570797D01*
X173205250Y-86565581D01*
X173185038Y-86558349D01*
X173165632Y-86549170D01*
X173147219Y-86538134D01*
X173129976Y-86525346D01*
X173114070Y-86510930D01*
X173099654Y-86495024D01*
X173086866Y-86477781D01*
X173075830Y-86459368D01*
X173066651Y-86439962D01*
X173059419Y-86419750D01*
X173054203Y-86398926D01*
X173051053Y-86377691D01*
X173050000Y-86356250D01*
X173050000Y-85843750D01*
X173051053Y-85822309D01*
X173054203Y-85801074D01*
X173059419Y-85780250D01*
X173066651Y-85760038D01*
X173075830Y-85740632D01*
X173086866Y-85722219D01*
X173099654Y-85704976D01*
X173114070Y-85689070D01*
X173129976Y-85674654D01*
X173147219Y-85661866D01*
X173165632Y-85650830D01*
X173185038Y-85641651D01*
X173205250Y-85634419D01*
X173226074Y-85629203D01*
X173247309Y-85626053D01*
X173268750Y-85625000D01*
X173706250Y-85625000D01*
X173727691Y-85626053D01*
X173727691Y-85626053D01*
G37*
D11*
X173487500Y-86100000D03*
G04 #@! TD*
D10*
G04 #@! TO.C,U3*
G36*
X161612252Y-103455602D02*
X161624386Y-103457402D01*
X161636286Y-103460382D01*
X161647835Y-103464515D01*
X161658925Y-103469760D01*
X161669446Y-103476066D01*
X161679299Y-103483374D01*
X161688388Y-103491612D01*
X161696626Y-103500701D01*
X161703934Y-103510554D01*
X161710240Y-103521075D01*
X161715485Y-103532165D01*
X161719618Y-103543714D01*
X161722598Y-103555614D01*
X161724398Y-103567748D01*
X161725000Y-103580000D01*
X161725000Y-103830000D01*
X161724398Y-103842252D01*
X161722598Y-103854386D01*
X161719618Y-103866286D01*
X161715485Y-103877835D01*
X161710240Y-103888925D01*
X161703934Y-103899446D01*
X161696626Y-103909299D01*
X161688388Y-103918388D01*
X161679299Y-103926626D01*
X161669446Y-103933934D01*
X161658925Y-103940240D01*
X161647835Y-103945485D01*
X161636286Y-103949618D01*
X161624386Y-103952598D01*
X161612252Y-103954398D01*
X161600000Y-103955000D01*
X161075000Y-103955000D01*
X161062748Y-103954398D01*
X161050614Y-103952598D01*
X161038714Y-103949618D01*
X161027165Y-103945485D01*
X161016075Y-103940240D01*
X161005554Y-103933934D01*
X160995701Y-103926626D01*
X160986612Y-103918388D01*
X160978374Y-103909299D01*
X160971066Y-103899446D01*
X160964760Y-103888925D01*
X160959515Y-103877835D01*
X160955382Y-103866286D01*
X160952402Y-103854386D01*
X160950602Y-103842252D01*
X160950000Y-103830000D01*
X160950000Y-103580000D01*
X160950602Y-103567748D01*
X160952402Y-103555614D01*
X160955382Y-103543714D01*
X160959515Y-103532165D01*
X160964760Y-103521075D01*
X160971066Y-103510554D01*
X160978374Y-103500701D01*
X160986612Y-103491612D01*
X160995701Y-103483374D01*
X161005554Y-103476066D01*
X161016075Y-103469760D01*
X161027165Y-103464515D01*
X161038714Y-103460382D01*
X161050614Y-103457402D01*
X161062748Y-103455602D01*
X161075000Y-103455000D01*
X161600000Y-103455000D01*
X161612252Y-103455602D01*
X161612252Y-103455602D01*
G37*
D19*
X161337500Y-103705000D03*
D10*
G36*
X161612252Y-102185602D02*
X161624386Y-102187402D01*
X161636286Y-102190382D01*
X161647835Y-102194515D01*
X161658925Y-102199760D01*
X161669446Y-102206066D01*
X161679299Y-102213374D01*
X161688388Y-102221612D01*
X161696626Y-102230701D01*
X161703934Y-102240554D01*
X161710240Y-102251075D01*
X161715485Y-102262165D01*
X161719618Y-102273714D01*
X161722598Y-102285614D01*
X161724398Y-102297748D01*
X161725000Y-102310000D01*
X161725000Y-102560000D01*
X161724398Y-102572252D01*
X161722598Y-102584386D01*
X161719618Y-102596286D01*
X161715485Y-102607835D01*
X161710240Y-102618925D01*
X161703934Y-102629446D01*
X161696626Y-102639299D01*
X161688388Y-102648388D01*
X161679299Y-102656626D01*
X161669446Y-102663934D01*
X161658925Y-102670240D01*
X161647835Y-102675485D01*
X161636286Y-102679618D01*
X161624386Y-102682598D01*
X161612252Y-102684398D01*
X161600000Y-102685000D01*
X161075000Y-102685000D01*
X161062748Y-102684398D01*
X161050614Y-102682598D01*
X161038714Y-102679618D01*
X161027165Y-102675485D01*
X161016075Y-102670240D01*
X161005554Y-102663934D01*
X160995701Y-102656626D01*
X160986612Y-102648388D01*
X160978374Y-102639299D01*
X160971066Y-102629446D01*
X160964760Y-102618925D01*
X160959515Y-102607835D01*
X160955382Y-102596286D01*
X160952402Y-102584386D01*
X160950602Y-102572252D01*
X160950000Y-102560000D01*
X160950000Y-102310000D01*
X160950602Y-102297748D01*
X160952402Y-102285614D01*
X160955382Y-102273714D01*
X160959515Y-102262165D01*
X160964760Y-102251075D01*
X160971066Y-102240554D01*
X160978374Y-102230701D01*
X160986612Y-102221612D01*
X160995701Y-102213374D01*
X161005554Y-102206066D01*
X161016075Y-102199760D01*
X161027165Y-102194515D01*
X161038714Y-102190382D01*
X161050614Y-102187402D01*
X161062748Y-102185602D01*
X161075000Y-102185000D01*
X161600000Y-102185000D01*
X161612252Y-102185602D01*
X161612252Y-102185602D01*
G37*
D19*
X161337500Y-102435000D03*
D10*
G36*
X161612252Y-100915602D02*
X161624386Y-100917402D01*
X161636286Y-100920382D01*
X161647835Y-100924515D01*
X161658925Y-100929760D01*
X161669446Y-100936066D01*
X161679299Y-100943374D01*
X161688388Y-100951612D01*
X161696626Y-100960701D01*
X161703934Y-100970554D01*
X161710240Y-100981075D01*
X161715485Y-100992165D01*
X161719618Y-101003714D01*
X161722598Y-101015614D01*
X161724398Y-101027748D01*
X161725000Y-101040000D01*
X161725000Y-101290000D01*
X161724398Y-101302252D01*
X161722598Y-101314386D01*
X161719618Y-101326286D01*
X161715485Y-101337835D01*
X161710240Y-101348925D01*
X161703934Y-101359446D01*
X161696626Y-101369299D01*
X161688388Y-101378388D01*
X161679299Y-101386626D01*
X161669446Y-101393934D01*
X161658925Y-101400240D01*
X161647835Y-101405485D01*
X161636286Y-101409618D01*
X161624386Y-101412598D01*
X161612252Y-101414398D01*
X161600000Y-101415000D01*
X161075000Y-101415000D01*
X161062748Y-101414398D01*
X161050614Y-101412598D01*
X161038714Y-101409618D01*
X161027165Y-101405485D01*
X161016075Y-101400240D01*
X161005554Y-101393934D01*
X160995701Y-101386626D01*
X160986612Y-101378388D01*
X160978374Y-101369299D01*
X160971066Y-101359446D01*
X160964760Y-101348925D01*
X160959515Y-101337835D01*
X160955382Y-101326286D01*
X160952402Y-101314386D01*
X160950602Y-101302252D01*
X160950000Y-101290000D01*
X160950000Y-101040000D01*
X160950602Y-101027748D01*
X160952402Y-101015614D01*
X160955382Y-101003714D01*
X160959515Y-100992165D01*
X160964760Y-100981075D01*
X160971066Y-100970554D01*
X160978374Y-100960701D01*
X160986612Y-100951612D01*
X160995701Y-100943374D01*
X161005554Y-100936066D01*
X161016075Y-100929760D01*
X161027165Y-100924515D01*
X161038714Y-100920382D01*
X161050614Y-100917402D01*
X161062748Y-100915602D01*
X161075000Y-100915000D01*
X161600000Y-100915000D01*
X161612252Y-100915602D01*
X161612252Y-100915602D01*
G37*
D19*
X161337500Y-101165000D03*
D10*
G36*
X161612252Y-99645602D02*
X161624386Y-99647402D01*
X161636286Y-99650382D01*
X161647835Y-99654515D01*
X161658925Y-99659760D01*
X161669446Y-99666066D01*
X161679299Y-99673374D01*
X161688388Y-99681612D01*
X161696626Y-99690701D01*
X161703934Y-99700554D01*
X161710240Y-99711075D01*
X161715485Y-99722165D01*
X161719618Y-99733714D01*
X161722598Y-99745614D01*
X161724398Y-99757748D01*
X161725000Y-99770000D01*
X161725000Y-100020000D01*
X161724398Y-100032252D01*
X161722598Y-100044386D01*
X161719618Y-100056286D01*
X161715485Y-100067835D01*
X161710240Y-100078925D01*
X161703934Y-100089446D01*
X161696626Y-100099299D01*
X161688388Y-100108388D01*
X161679299Y-100116626D01*
X161669446Y-100123934D01*
X161658925Y-100130240D01*
X161647835Y-100135485D01*
X161636286Y-100139618D01*
X161624386Y-100142598D01*
X161612252Y-100144398D01*
X161600000Y-100145000D01*
X161075000Y-100145000D01*
X161062748Y-100144398D01*
X161050614Y-100142598D01*
X161038714Y-100139618D01*
X161027165Y-100135485D01*
X161016075Y-100130240D01*
X161005554Y-100123934D01*
X160995701Y-100116626D01*
X160986612Y-100108388D01*
X160978374Y-100099299D01*
X160971066Y-100089446D01*
X160964760Y-100078925D01*
X160959515Y-100067835D01*
X160955382Y-100056286D01*
X160952402Y-100044386D01*
X160950602Y-100032252D01*
X160950000Y-100020000D01*
X160950000Y-99770000D01*
X160950602Y-99757748D01*
X160952402Y-99745614D01*
X160955382Y-99733714D01*
X160959515Y-99722165D01*
X160964760Y-99711075D01*
X160971066Y-99700554D01*
X160978374Y-99690701D01*
X160986612Y-99681612D01*
X160995701Y-99673374D01*
X161005554Y-99666066D01*
X161016075Y-99659760D01*
X161027165Y-99654515D01*
X161038714Y-99650382D01*
X161050614Y-99647402D01*
X161062748Y-99645602D01*
X161075000Y-99645000D01*
X161600000Y-99645000D01*
X161612252Y-99645602D01*
X161612252Y-99645602D01*
G37*
D19*
X161337500Y-99895000D03*
D10*
G36*
X166937252Y-99645602D02*
X166949386Y-99647402D01*
X166961286Y-99650382D01*
X166972835Y-99654515D01*
X166983925Y-99659760D01*
X166994446Y-99666066D01*
X167004299Y-99673374D01*
X167013388Y-99681612D01*
X167021626Y-99690701D01*
X167028934Y-99700554D01*
X167035240Y-99711075D01*
X167040485Y-99722165D01*
X167044618Y-99733714D01*
X167047598Y-99745614D01*
X167049398Y-99757748D01*
X167050000Y-99770000D01*
X167050000Y-100020000D01*
X167049398Y-100032252D01*
X167047598Y-100044386D01*
X167044618Y-100056286D01*
X167040485Y-100067835D01*
X167035240Y-100078925D01*
X167028934Y-100089446D01*
X167021626Y-100099299D01*
X167013388Y-100108388D01*
X167004299Y-100116626D01*
X166994446Y-100123934D01*
X166983925Y-100130240D01*
X166972835Y-100135485D01*
X166961286Y-100139618D01*
X166949386Y-100142598D01*
X166937252Y-100144398D01*
X166925000Y-100145000D01*
X166400000Y-100145000D01*
X166387748Y-100144398D01*
X166375614Y-100142598D01*
X166363714Y-100139618D01*
X166352165Y-100135485D01*
X166341075Y-100130240D01*
X166330554Y-100123934D01*
X166320701Y-100116626D01*
X166311612Y-100108388D01*
X166303374Y-100099299D01*
X166296066Y-100089446D01*
X166289760Y-100078925D01*
X166284515Y-100067835D01*
X166280382Y-100056286D01*
X166277402Y-100044386D01*
X166275602Y-100032252D01*
X166275000Y-100020000D01*
X166275000Y-99770000D01*
X166275602Y-99757748D01*
X166277402Y-99745614D01*
X166280382Y-99733714D01*
X166284515Y-99722165D01*
X166289760Y-99711075D01*
X166296066Y-99700554D01*
X166303374Y-99690701D01*
X166311612Y-99681612D01*
X166320701Y-99673374D01*
X166330554Y-99666066D01*
X166341075Y-99659760D01*
X166352165Y-99654515D01*
X166363714Y-99650382D01*
X166375614Y-99647402D01*
X166387748Y-99645602D01*
X166400000Y-99645000D01*
X166925000Y-99645000D01*
X166937252Y-99645602D01*
X166937252Y-99645602D01*
G37*
D19*
X166662500Y-99895000D03*
D10*
G36*
X166937252Y-100915602D02*
X166949386Y-100917402D01*
X166961286Y-100920382D01*
X166972835Y-100924515D01*
X166983925Y-100929760D01*
X166994446Y-100936066D01*
X167004299Y-100943374D01*
X167013388Y-100951612D01*
X167021626Y-100960701D01*
X167028934Y-100970554D01*
X167035240Y-100981075D01*
X167040485Y-100992165D01*
X167044618Y-101003714D01*
X167047598Y-101015614D01*
X167049398Y-101027748D01*
X167050000Y-101040000D01*
X167050000Y-101290000D01*
X167049398Y-101302252D01*
X167047598Y-101314386D01*
X167044618Y-101326286D01*
X167040485Y-101337835D01*
X167035240Y-101348925D01*
X167028934Y-101359446D01*
X167021626Y-101369299D01*
X167013388Y-101378388D01*
X167004299Y-101386626D01*
X166994446Y-101393934D01*
X166983925Y-101400240D01*
X166972835Y-101405485D01*
X166961286Y-101409618D01*
X166949386Y-101412598D01*
X166937252Y-101414398D01*
X166925000Y-101415000D01*
X166400000Y-101415000D01*
X166387748Y-101414398D01*
X166375614Y-101412598D01*
X166363714Y-101409618D01*
X166352165Y-101405485D01*
X166341075Y-101400240D01*
X166330554Y-101393934D01*
X166320701Y-101386626D01*
X166311612Y-101378388D01*
X166303374Y-101369299D01*
X166296066Y-101359446D01*
X166289760Y-101348925D01*
X166284515Y-101337835D01*
X166280382Y-101326286D01*
X166277402Y-101314386D01*
X166275602Y-101302252D01*
X166275000Y-101290000D01*
X166275000Y-101040000D01*
X166275602Y-101027748D01*
X166277402Y-101015614D01*
X166280382Y-101003714D01*
X166284515Y-100992165D01*
X166289760Y-100981075D01*
X166296066Y-100970554D01*
X166303374Y-100960701D01*
X166311612Y-100951612D01*
X166320701Y-100943374D01*
X166330554Y-100936066D01*
X166341075Y-100929760D01*
X166352165Y-100924515D01*
X166363714Y-100920382D01*
X166375614Y-100917402D01*
X166387748Y-100915602D01*
X166400000Y-100915000D01*
X166925000Y-100915000D01*
X166937252Y-100915602D01*
X166937252Y-100915602D01*
G37*
D19*
X166662500Y-101165000D03*
D10*
G36*
X166937252Y-102185602D02*
X166949386Y-102187402D01*
X166961286Y-102190382D01*
X166972835Y-102194515D01*
X166983925Y-102199760D01*
X166994446Y-102206066D01*
X167004299Y-102213374D01*
X167013388Y-102221612D01*
X167021626Y-102230701D01*
X167028934Y-102240554D01*
X167035240Y-102251075D01*
X167040485Y-102262165D01*
X167044618Y-102273714D01*
X167047598Y-102285614D01*
X167049398Y-102297748D01*
X167050000Y-102310000D01*
X167050000Y-102560000D01*
X167049398Y-102572252D01*
X167047598Y-102584386D01*
X167044618Y-102596286D01*
X167040485Y-102607835D01*
X167035240Y-102618925D01*
X167028934Y-102629446D01*
X167021626Y-102639299D01*
X167013388Y-102648388D01*
X167004299Y-102656626D01*
X166994446Y-102663934D01*
X166983925Y-102670240D01*
X166972835Y-102675485D01*
X166961286Y-102679618D01*
X166949386Y-102682598D01*
X166937252Y-102684398D01*
X166925000Y-102685000D01*
X166400000Y-102685000D01*
X166387748Y-102684398D01*
X166375614Y-102682598D01*
X166363714Y-102679618D01*
X166352165Y-102675485D01*
X166341075Y-102670240D01*
X166330554Y-102663934D01*
X166320701Y-102656626D01*
X166311612Y-102648388D01*
X166303374Y-102639299D01*
X166296066Y-102629446D01*
X166289760Y-102618925D01*
X166284515Y-102607835D01*
X166280382Y-102596286D01*
X166277402Y-102584386D01*
X166275602Y-102572252D01*
X166275000Y-102560000D01*
X166275000Y-102310000D01*
X166275602Y-102297748D01*
X166277402Y-102285614D01*
X166280382Y-102273714D01*
X166284515Y-102262165D01*
X166289760Y-102251075D01*
X166296066Y-102240554D01*
X166303374Y-102230701D01*
X166311612Y-102221612D01*
X166320701Y-102213374D01*
X166330554Y-102206066D01*
X166341075Y-102199760D01*
X166352165Y-102194515D01*
X166363714Y-102190382D01*
X166375614Y-102187402D01*
X166387748Y-102185602D01*
X166400000Y-102185000D01*
X166925000Y-102185000D01*
X166937252Y-102185602D01*
X166937252Y-102185602D01*
G37*
D19*
X166662500Y-102435000D03*
D10*
G36*
X166937252Y-103455602D02*
X166949386Y-103457402D01*
X166961286Y-103460382D01*
X166972835Y-103464515D01*
X166983925Y-103469760D01*
X166994446Y-103476066D01*
X167004299Y-103483374D01*
X167013388Y-103491612D01*
X167021626Y-103500701D01*
X167028934Y-103510554D01*
X167035240Y-103521075D01*
X167040485Y-103532165D01*
X167044618Y-103543714D01*
X167047598Y-103555614D01*
X167049398Y-103567748D01*
X167050000Y-103580000D01*
X167050000Y-103830000D01*
X167049398Y-103842252D01*
X167047598Y-103854386D01*
X167044618Y-103866286D01*
X167040485Y-103877835D01*
X167035240Y-103888925D01*
X167028934Y-103899446D01*
X167021626Y-103909299D01*
X167013388Y-103918388D01*
X167004299Y-103926626D01*
X166994446Y-103933934D01*
X166983925Y-103940240D01*
X166972835Y-103945485D01*
X166961286Y-103949618D01*
X166949386Y-103952598D01*
X166937252Y-103954398D01*
X166925000Y-103955000D01*
X166400000Y-103955000D01*
X166387748Y-103954398D01*
X166375614Y-103952598D01*
X166363714Y-103949618D01*
X166352165Y-103945485D01*
X166341075Y-103940240D01*
X166330554Y-103933934D01*
X166320701Y-103926626D01*
X166311612Y-103918388D01*
X166303374Y-103909299D01*
X166296066Y-103899446D01*
X166289760Y-103888925D01*
X166284515Y-103877835D01*
X166280382Y-103866286D01*
X166277402Y-103854386D01*
X166275602Y-103842252D01*
X166275000Y-103830000D01*
X166275000Y-103580000D01*
X166275602Y-103567748D01*
X166277402Y-103555614D01*
X166280382Y-103543714D01*
X166284515Y-103532165D01*
X166289760Y-103521075D01*
X166296066Y-103510554D01*
X166303374Y-103500701D01*
X166311612Y-103491612D01*
X166320701Y-103483374D01*
X166330554Y-103476066D01*
X166341075Y-103469760D01*
X166352165Y-103464515D01*
X166363714Y-103460382D01*
X166375614Y-103457402D01*
X166387748Y-103455602D01*
X166400000Y-103455000D01*
X166925000Y-103455000D01*
X166937252Y-103455602D01*
X166937252Y-103455602D01*
G37*
D19*
X166662500Y-103705000D03*
D10*
G36*
X163609504Y-99996204D02*
X163633773Y-99999804D01*
X163657571Y-100005765D01*
X163680671Y-100014030D01*
X163702849Y-100024520D01*
X163723893Y-100037133D01*
X163743598Y-100051747D01*
X163761777Y-100068223D01*
X163778253Y-100086402D01*
X163792867Y-100106107D01*
X163805480Y-100127151D01*
X163815970Y-100149329D01*
X163824235Y-100172429D01*
X163830196Y-100196227D01*
X163833796Y-100220496D01*
X163835000Y-100245000D01*
X163835000Y-101355000D01*
X163833796Y-101379504D01*
X163830196Y-101403773D01*
X163824235Y-101427571D01*
X163815970Y-101450671D01*
X163805480Y-101472849D01*
X163792867Y-101493893D01*
X163778253Y-101513598D01*
X163761777Y-101531777D01*
X163743598Y-101548253D01*
X163723893Y-101562867D01*
X163702849Y-101575480D01*
X163680671Y-101585970D01*
X163657571Y-101594235D01*
X163633773Y-101600196D01*
X163609504Y-101603796D01*
X163585000Y-101605000D01*
X162715000Y-101605000D01*
X162690496Y-101603796D01*
X162666227Y-101600196D01*
X162642429Y-101594235D01*
X162619329Y-101585970D01*
X162597151Y-101575480D01*
X162576107Y-101562867D01*
X162556402Y-101548253D01*
X162538223Y-101531777D01*
X162521747Y-101513598D01*
X162507133Y-101493893D01*
X162494520Y-101472849D01*
X162484030Y-101450671D01*
X162475765Y-101427571D01*
X162469804Y-101403773D01*
X162466204Y-101379504D01*
X162465000Y-101355000D01*
X162465000Y-100245000D01*
X162466204Y-100220496D01*
X162469804Y-100196227D01*
X162475765Y-100172429D01*
X162484030Y-100149329D01*
X162494520Y-100127151D01*
X162507133Y-100106107D01*
X162521747Y-100086402D01*
X162538223Y-100068223D01*
X162556402Y-100051747D01*
X162576107Y-100037133D01*
X162597151Y-100024520D01*
X162619329Y-100014030D01*
X162642429Y-100005765D01*
X162666227Y-99999804D01*
X162690496Y-99996204D01*
X162715000Y-99995000D01*
X163585000Y-99995000D01*
X163609504Y-99996204D01*
X163609504Y-99996204D01*
G37*
D20*
X163150000Y-100800000D03*
D10*
G36*
X163609504Y-101996204D02*
X163633773Y-101999804D01*
X163657571Y-102005765D01*
X163680671Y-102014030D01*
X163702849Y-102024520D01*
X163723893Y-102037133D01*
X163743598Y-102051747D01*
X163761777Y-102068223D01*
X163778253Y-102086402D01*
X163792867Y-102106107D01*
X163805480Y-102127151D01*
X163815970Y-102149329D01*
X163824235Y-102172429D01*
X163830196Y-102196227D01*
X163833796Y-102220496D01*
X163835000Y-102245000D01*
X163835000Y-103355000D01*
X163833796Y-103379504D01*
X163830196Y-103403773D01*
X163824235Y-103427571D01*
X163815970Y-103450671D01*
X163805480Y-103472849D01*
X163792867Y-103493893D01*
X163778253Y-103513598D01*
X163761777Y-103531777D01*
X163743598Y-103548253D01*
X163723893Y-103562867D01*
X163702849Y-103575480D01*
X163680671Y-103585970D01*
X163657571Y-103594235D01*
X163633773Y-103600196D01*
X163609504Y-103603796D01*
X163585000Y-103605000D01*
X162715000Y-103605000D01*
X162690496Y-103603796D01*
X162666227Y-103600196D01*
X162642429Y-103594235D01*
X162619329Y-103585970D01*
X162597151Y-103575480D01*
X162576107Y-103562867D01*
X162556402Y-103548253D01*
X162538223Y-103531777D01*
X162521747Y-103513598D01*
X162507133Y-103493893D01*
X162494520Y-103472849D01*
X162484030Y-103450671D01*
X162475765Y-103427571D01*
X162469804Y-103403773D01*
X162466204Y-103379504D01*
X162465000Y-103355000D01*
X162465000Y-102245000D01*
X162466204Y-102220496D01*
X162469804Y-102196227D01*
X162475765Y-102172429D01*
X162484030Y-102149329D01*
X162494520Y-102127151D01*
X162507133Y-102106107D01*
X162521747Y-102086402D01*
X162538223Y-102068223D01*
X162556402Y-102051747D01*
X162576107Y-102037133D01*
X162597151Y-102024520D01*
X162619329Y-102014030D01*
X162642429Y-102005765D01*
X162666227Y-101999804D01*
X162690496Y-101996204D01*
X162715000Y-101995000D01*
X163585000Y-101995000D01*
X163609504Y-101996204D01*
X163609504Y-101996204D01*
G37*
D20*
X163150000Y-102800000D03*
D10*
G36*
X165309504Y-99996204D02*
X165333773Y-99999804D01*
X165357571Y-100005765D01*
X165380671Y-100014030D01*
X165402849Y-100024520D01*
X165423893Y-100037133D01*
X165443598Y-100051747D01*
X165461777Y-100068223D01*
X165478253Y-100086402D01*
X165492867Y-100106107D01*
X165505480Y-100127151D01*
X165515970Y-100149329D01*
X165524235Y-100172429D01*
X165530196Y-100196227D01*
X165533796Y-100220496D01*
X165535000Y-100245000D01*
X165535000Y-101355000D01*
X165533796Y-101379504D01*
X165530196Y-101403773D01*
X165524235Y-101427571D01*
X165515970Y-101450671D01*
X165505480Y-101472849D01*
X165492867Y-101493893D01*
X165478253Y-101513598D01*
X165461777Y-101531777D01*
X165443598Y-101548253D01*
X165423893Y-101562867D01*
X165402849Y-101575480D01*
X165380671Y-101585970D01*
X165357571Y-101594235D01*
X165333773Y-101600196D01*
X165309504Y-101603796D01*
X165285000Y-101605000D01*
X164415000Y-101605000D01*
X164390496Y-101603796D01*
X164366227Y-101600196D01*
X164342429Y-101594235D01*
X164319329Y-101585970D01*
X164297151Y-101575480D01*
X164276107Y-101562867D01*
X164256402Y-101548253D01*
X164238223Y-101531777D01*
X164221747Y-101513598D01*
X164207133Y-101493893D01*
X164194520Y-101472849D01*
X164184030Y-101450671D01*
X164175765Y-101427571D01*
X164169804Y-101403773D01*
X164166204Y-101379504D01*
X164165000Y-101355000D01*
X164165000Y-100245000D01*
X164166204Y-100220496D01*
X164169804Y-100196227D01*
X164175765Y-100172429D01*
X164184030Y-100149329D01*
X164194520Y-100127151D01*
X164207133Y-100106107D01*
X164221747Y-100086402D01*
X164238223Y-100068223D01*
X164256402Y-100051747D01*
X164276107Y-100037133D01*
X164297151Y-100024520D01*
X164319329Y-100014030D01*
X164342429Y-100005765D01*
X164366227Y-99999804D01*
X164390496Y-99996204D01*
X164415000Y-99995000D01*
X165285000Y-99995000D01*
X165309504Y-99996204D01*
X165309504Y-99996204D01*
G37*
D20*
X164850000Y-100800000D03*
D10*
G36*
X165309504Y-101996204D02*
X165333773Y-101999804D01*
X165357571Y-102005765D01*
X165380671Y-102014030D01*
X165402849Y-102024520D01*
X165423893Y-102037133D01*
X165443598Y-102051747D01*
X165461777Y-102068223D01*
X165478253Y-102086402D01*
X165492867Y-102106107D01*
X165505480Y-102127151D01*
X165515970Y-102149329D01*
X165524235Y-102172429D01*
X165530196Y-102196227D01*
X165533796Y-102220496D01*
X165535000Y-102245000D01*
X165535000Y-103355000D01*
X165533796Y-103379504D01*
X165530196Y-103403773D01*
X165524235Y-103427571D01*
X165515970Y-103450671D01*
X165505480Y-103472849D01*
X165492867Y-103493893D01*
X165478253Y-103513598D01*
X165461777Y-103531777D01*
X165443598Y-103548253D01*
X165423893Y-103562867D01*
X165402849Y-103575480D01*
X165380671Y-103585970D01*
X165357571Y-103594235D01*
X165333773Y-103600196D01*
X165309504Y-103603796D01*
X165285000Y-103605000D01*
X164415000Y-103605000D01*
X164390496Y-103603796D01*
X164366227Y-103600196D01*
X164342429Y-103594235D01*
X164319329Y-103585970D01*
X164297151Y-103575480D01*
X164276107Y-103562867D01*
X164256402Y-103548253D01*
X164238223Y-103531777D01*
X164221747Y-103513598D01*
X164207133Y-103493893D01*
X164194520Y-103472849D01*
X164184030Y-103450671D01*
X164175765Y-103427571D01*
X164169804Y-103403773D01*
X164166204Y-103379504D01*
X164165000Y-103355000D01*
X164165000Y-102245000D01*
X164166204Y-102220496D01*
X164169804Y-102196227D01*
X164175765Y-102172429D01*
X164184030Y-102149329D01*
X164194520Y-102127151D01*
X164207133Y-102106107D01*
X164221747Y-102086402D01*
X164238223Y-102068223D01*
X164256402Y-102051747D01*
X164276107Y-102037133D01*
X164297151Y-102024520D01*
X164319329Y-102014030D01*
X164342429Y-102005765D01*
X164366227Y-101999804D01*
X164390496Y-101996204D01*
X164415000Y-101995000D01*
X165285000Y-101995000D01*
X165309504Y-101996204D01*
X165309504Y-101996204D01*
G37*
D20*
X164850000Y-102800000D03*
G04 #@! TD*
D21*
G04 #@! TO.C,LS1*
X162850000Y-71200000D03*
X159350000Y-71200000D03*
X159350000Y-74800000D03*
G04 #@! TD*
M02*
