G04 #@! TF.GenerationSoftware,KiCad,Pcbnew,(6.0.0-rc1-dev-332-g00d912f0b)*
G04 #@! TF.CreationDate,2018-09-23T23:35:21+02:00*
G04 #@! TF.ProjectId,xilwatch2,78696C7761746368322E6B696361645F,rev?*
G04 #@! TF.SameCoordinates,Original*
G04 #@! TF.FileFunction,Legend,Top*
G04 #@! TF.FilePolarity,Positive*
%FSLAX46Y46*%
G04 Gerber Fmt 4.6, Leading zero omitted, Abs format (unit mm)*
G04 Created by KiCad (PCBNEW (6.0.0-rc1-dev-332-g00d912f0b)) date 09/23/18 23:35:21*
%MOMM*%
%LPD*%
G01*
G04 APERTURE LIST*
%ADD10C,0.150000*%
%ADD11C,0.120000*%
G04 APERTURE END LIST*
D10*
X151373809Y-80435714D02*
X151335714Y-80473809D01*
X151221428Y-80511904D01*
X151145238Y-80511904D01*
X151030952Y-80473809D01*
X150954761Y-80397619D01*
X150916666Y-80321428D01*
X150878571Y-80169047D01*
X150878571Y-80054761D01*
X150916666Y-79902380D01*
X150954761Y-79826190D01*
X151030952Y-79750000D01*
X151145238Y-79711904D01*
X151221428Y-79711904D01*
X151335714Y-79750000D01*
X151373809Y-79788095D01*
X152097619Y-80511904D02*
X151716666Y-80511904D01*
X151716666Y-79711904D01*
X152364285Y-80511904D02*
X152364285Y-79711904D01*
X152821428Y-80511904D02*
X152478571Y-80054761D01*
X152821428Y-79711904D02*
X152364285Y-80169047D01*
X156130952Y-77261904D02*
X156130952Y-76461904D01*
X156664285Y-76461904D02*
X156816666Y-76461904D01*
X156892857Y-76500000D01*
X156969047Y-76576190D01*
X157007142Y-76728571D01*
X157007142Y-76995238D01*
X156969047Y-77147619D01*
X156892857Y-77223809D01*
X156816666Y-77261904D01*
X156664285Y-77261904D01*
X156588095Y-77223809D01*
X156511904Y-77147619D01*
X156473809Y-76995238D01*
X156473809Y-76728571D01*
X156511904Y-76576190D01*
X156588095Y-76500000D01*
X156664285Y-76461904D01*
X156440476Y-74650000D02*
X156364285Y-74611904D01*
X156250000Y-74611904D01*
X156135714Y-74650000D01*
X156059523Y-74726190D01*
X156021428Y-74802380D01*
X155983333Y-74954761D01*
X155983333Y-75069047D01*
X156021428Y-75221428D01*
X156059523Y-75297619D01*
X156135714Y-75373809D01*
X156250000Y-75411904D01*
X156326190Y-75411904D01*
X156440476Y-75373809D01*
X156478571Y-75335714D01*
X156478571Y-75069047D01*
X156326190Y-75069047D01*
X156821428Y-75411904D02*
X156821428Y-74611904D01*
X157278571Y-75411904D01*
X157278571Y-74611904D01*
X157659523Y-75411904D02*
X157659523Y-74611904D01*
X157850000Y-74611904D01*
X157964285Y-74650000D01*
X158040476Y-74726190D01*
X158078571Y-74802380D01*
X158116666Y-74954761D01*
X158116666Y-75069047D01*
X158078571Y-75221428D01*
X158040476Y-75297619D01*
X157964285Y-75373809D01*
X157850000Y-75411904D01*
X157659523Y-75411904D01*
X154283333Y-70261904D02*
X154550000Y-71061904D01*
X154816666Y-70261904D01*
X155083333Y-71061904D02*
X155083333Y-70261904D01*
X155273809Y-70261904D01*
X155388095Y-70300000D01*
X155464285Y-70376190D01*
X155502380Y-70452380D01*
X155540476Y-70604761D01*
X155540476Y-70719047D01*
X155502380Y-70871428D01*
X155464285Y-70947619D01*
X155388095Y-71023809D01*
X155273809Y-71061904D01*
X155083333Y-71061904D01*
X155883333Y-71061904D02*
X155883333Y-70261904D01*
X156073809Y-70261904D01*
X156188095Y-70300000D01*
X156264285Y-70376190D01*
X156302380Y-70452380D01*
X156340476Y-70604761D01*
X156340476Y-70719047D01*
X156302380Y-70871428D01*
X156264285Y-70947619D01*
X156188095Y-71023809D01*
X156073809Y-71061904D01*
X155883333Y-71061904D01*
D11*
X150250000Y-72225000D02*
X150250000Y-99750000D01*
X177750000Y-72225000D02*
X177750000Y-99750000D01*
X177750000Y-72225000D02*
X150250000Y-72225000D01*
X177750000Y-99750000D02*
X150250000Y-99750000D01*
X148100000Y-70075000D02*
X148100000Y-107395000D01*
X179900000Y-70075000D02*
X148100000Y-70075000D01*
X179900000Y-107395000D02*
X179900000Y-70075000D01*
X148100000Y-107395000D02*
X179900000Y-107395000D01*
D10*
G04 #@! TO.C,X1*
X175060000Y-64610000D02*
G75*
G03X175060000Y-64610000I-400000J0D01*
G01*
D11*
G04 #@! TO.C,R2*
X166562779Y-84152500D02*
X166237221Y-84152500D01*
X166562779Y-85172500D02*
X166237221Y-85172500D01*
G04 #@! TO.C,R1*
X166562779Y-82627500D02*
X166237221Y-82627500D01*
X166562779Y-83647500D02*
X166237221Y-83647500D01*
D10*
G04 #@! TO.C,U2*
X162550000Y-95700000D02*
X163550000Y-95700000D01*
X163550000Y-95700000D02*
X163550000Y-94950000D01*
X163550000Y-82650000D02*
X163550000Y-81900000D01*
X162550000Y-81900000D02*
X163550000Y-81900000D01*
X148050000Y-95700000D02*
X148050000Y-96100000D01*
X145250000Y-81900000D02*
X148050000Y-81900000D01*
X145250000Y-95700000D02*
X145250000Y-81900000D01*
X148050000Y-95700000D02*
X145250000Y-95700000D01*
D11*
G04 #@! TO.C,R7*
X172862779Y-92010000D02*
X172537221Y-92010000D01*
X172862779Y-90990000D02*
X172537221Y-90990000D01*
G04 #@! TO.C,R6*
X169490000Y-88637221D02*
X169490000Y-88962779D01*
X170510000Y-88637221D02*
X170510000Y-88962779D01*
G04 #@! TO.C,R9*
X152262779Y-71910000D02*
X151937221Y-71910000D01*
X152262779Y-70890000D02*
X151937221Y-70890000D01*
G04 #@! TO.C,R8*
X152162779Y-75090000D02*
X151837221Y-75090000D01*
X152162779Y-76110000D02*
X151837221Y-76110000D01*
G04 #@! TO.C,R11*
X175837221Y-75090000D02*
X176162779Y-75090000D01*
X175837221Y-76110000D02*
X176162779Y-76110000D01*
G04 #@! TO.C,R5*
X168190000Y-73637221D02*
X168190000Y-73962779D01*
X169210000Y-73637221D02*
X169210000Y-73962779D01*
G04 #@! TO.C,R12*
X172990000Y-73762779D02*
X172990000Y-73437221D01*
X174010000Y-73762779D02*
X174010000Y-73437221D01*
G04 #@! TO.C,R13*
X175837221Y-72110000D02*
X176162779Y-72110000D01*
X175837221Y-71090000D02*
X176162779Y-71090000D01*
G04 #@! TO.C,R18*
X172990000Y-98562779D02*
X172990000Y-98237221D01*
X174010000Y-98562779D02*
X174010000Y-98237221D01*
G04 #@! TO.C,R19*
X179010000Y-98562779D02*
X179010000Y-98237221D01*
X177990000Y-98562779D02*
X177990000Y-98237221D01*
G04 #@! TO.C,R10*
X153890000Y-73762779D02*
X153890000Y-73437221D01*
X154910000Y-73762779D02*
X154910000Y-73437221D01*
G04 #@! TO.C,R16*
X153990000Y-98637221D02*
X153990000Y-98962779D01*
X155010000Y-98637221D02*
X155010000Y-98962779D01*
G04 #@! TO.C,R15*
X149710000Y-98637221D02*
X149710000Y-98962779D01*
X148690000Y-98637221D02*
X148690000Y-98962779D01*
G04 #@! TO.C,R14*
X152062779Y-100090000D02*
X151737221Y-100090000D01*
X152062779Y-101110000D02*
X151737221Y-101110000D01*
G04 #@! TO.C,R17*
X175837221Y-99890000D02*
X176162779Y-99890000D01*
X175837221Y-100910000D02*
X176162779Y-100910000D01*
G04 #@! TO.C,U4*
X167610000Y-74700000D02*
X167610000Y-72900000D01*
X164390000Y-72900000D02*
X164390000Y-75350000D01*
G04 #@! TO.C,U5*
X171090000Y-90410000D02*
X171090000Y-90235000D01*
X171765000Y-90410000D02*
X171090000Y-90410000D01*
X174310000Y-90410000D02*
X174310000Y-90235000D01*
X173635000Y-90410000D02*
X174310000Y-90410000D01*
X174310000Y-87190000D02*
X174310000Y-87365000D01*
X173635000Y-87190000D02*
X174310000Y-87190000D01*
G04 #@! TO.C,D7*
X174700000Y-72700000D02*
X176800000Y-72700000D01*
X174700000Y-72700000D02*
X174700000Y-74500000D01*
X174700000Y-74500000D02*
X176800000Y-74500000D01*
G04 #@! TO.C,D8*
X150600000Y-99400000D02*
X152700000Y-99400000D01*
X150600000Y-97600000D02*
X150600000Y-99400000D01*
X150600000Y-97600000D02*
X152700000Y-97600000D01*
G04 #@! TO.C,D9*
X174700000Y-97500000D02*
X176800000Y-97500000D01*
X174700000Y-97500000D02*
X174700000Y-99300000D01*
X174700000Y-99300000D02*
X176800000Y-99300000D01*
G04 #@! TO.C,D6*
X150700000Y-74500000D02*
X152800000Y-74500000D01*
X150700000Y-72700000D02*
X150700000Y-74500000D01*
X150700000Y-72700000D02*
X152800000Y-72700000D01*
G04 #@! TO.C,C4*
X166162779Y-70490000D02*
X165837221Y-70490000D01*
X166162779Y-71510000D02*
X165837221Y-71510000D01*
G04 #@! TO.C,C5*
X165837221Y-76090000D02*
X166162779Y-76090000D01*
X165837221Y-77110000D02*
X166162779Y-77110000D01*
G04 #@! TO.C,C6*
X172862779Y-85590000D02*
X172537221Y-85590000D01*
X172862779Y-86610000D02*
X172537221Y-86610000D01*
G04 #@! TO.C,U3*
X167000000Y-99190000D02*
X161000000Y-99190000D01*
X164000000Y-104410000D02*
X161000000Y-104410000D01*
D10*
G04 #@! TO.C,LS1*
X162250000Y-70350000D02*
X160000000Y-70350000D01*
X163750000Y-74550000D02*
X162650000Y-75650000D01*
X158450000Y-75450000D02*
X158750000Y-75450000D01*
X158450000Y-70550000D02*
X158450000Y-75450000D01*
X158750000Y-70550000D02*
X158450000Y-70550000D01*
X163750000Y-70550000D02*
X163450000Y-70550000D01*
X163750000Y-74550000D02*
X163750000Y-70550000D01*
X162650000Y-75650000D02*
X160000000Y-75650000D01*
D11*
G04 #@! TO.C,TP2*
X157500000Y-71750000D02*
G75*
G03X157500000Y-71750000I-700000J0D01*
G01*
G04 #@! TO.C,TP1*
X156900000Y-73700000D02*
G75*
G03X156900000Y-73700000I-700000J0D01*
G01*
G04 #@! TO.C,TP4*
X155900000Y-77950000D02*
G75*
G03X155900000Y-77950000I-700000J0D01*
G01*
G04 #@! TO.C,TP3*
X154500000Y-79450000D02*
G75*
G03X154500000Y-79450000I-700000J0D01*
G01*
G04 #@! TD*
M02*
