M48
;DRILL file {KiCad (6.0.0-rc1-dev-332-g00d912f0b)} date 09/23/18 23:35:14
;FORMAT={-:-/ absolute / inch / decimal}
FMAT,2
INCH,TZ
T1C0.0138
T2C0.0236
T3C0.0256
T4C0.0335
T5C0.0394
%
G90
G05
M72
T1
X5.8071Y-4.0827
X5.876Y-3.3091
X5.9449Y-3.8134
X6.0118Y-2.7146
X6.0276Y-3.9094
X6.0315Y-2.9331
X6.0807Y-2.813
X6.1378Y-3.4429
X6.1969Y-3.9882
X6.238Y-3.0882
X6.2387Y-3.122
X6.2874Y-4.0829
X6.2913Y-3.5118
X6.3228Y-3.5118
X6.3504Y-3.6417
X6.3543Y-3.5205
X6.3543Y-3.5504
X6.3543Y-3.5803
X6.3543Y-3.6102
X6.3583Y-3.4114
X6.3878Y-2.9803
X6.3898Y-2.9213
X6.4237Y-2.7146
X6.4449Y-3.8071
X6.4567Y-4.0079
X6.4665Y-3.2047
X6.4882Y-3.748
X6.5413Y-3.5807
X6.565Y-3.7461
X6.5669Y-3.7874
X6.6102Y-3.5512
X6.6181Y-3.4803
X6.6646Y-3.4127
X6.7148Y-3.3913
X6.752Y-3.687
X6.7717Y-3.8681
X6.7913Y-3.1063
X6.8012Y-2.7598
X6.8244Y-3.7307
X6.8903Y-3.7987
X6.8903Y-3.7987
X6.8932Y-3.4764
X6.9016Y-2.7717
X6.9173Y-3.6122
X6.9449Y-3.5039
X6.9646Y-2.7697
X6.9882Y-3.2835
X7.001Y-2.9449
X7.0276Y-4.0197
X7.0502Y-2.8642
X7.0709Y-3.1516
X7.0906Y-3.685
T3
X7.1526Y-3.4606
X7.1526Y-3.5276
X7.1526Y-2.8681
X7.1526Y-2.935
X7.1506Y-4.0512
X7.1506Y-4.1181
X5.7608Y-4.0512
X5.7608Y-4.1181
T4
X5.8883Y-2.8386
X5.8883Y-3.0354
T5
X6.9264Y-2.5937
X6.9264Y-2.6937
X7.0264Y-2.5937
X7.0264Y-2.6937
T2
X5.7682Y-2.7992G85X5.7958Y-2.7992
G05
X5.7958Y-3.0748G85X5.7682Y-3.0748
G05
T0
M30
