G04 #@! TF.GenerationSoftware,KiCad,Pcbnew,(6.0.0-rc1-dev-332-g00d912f0b)*
G04 #@! TF.CreationDate,2018-09-23T23:35:21+02:00*
G04 #@! TF.ProjectId,xilwatch2,78696C7761746368322E6B696361645F,rev?*
G04 #@! TF.SameCoordinates,Original*
G04 #@! TF.FileFunction,Profile,NP*
%FSLAX46Y46*%
G04 Gerber Fmt 4.6, Leading zero omitted, Abs format (unit mm)*
G04 Created by KiCad (PCBNEW (6.0.0-rc1-dev-332-g00d912f0b)) date 09/23/18 23:35:21*
%MOMM*%
%LPD*%
G01*
G04 APERTURE LIST*
%ADD10C,0.120000*%
%ADD11C,0.200000*%
G04 APERTURE END LIST*
D10*
X172200000Y-107400000D02*
G75*
G02X172200000Y-108800000I0J-700000D01*
G01*
X155800000Y-108800000D02*
G75*
G02X155800000Y-107400000I0J700000D01*
G01*
X172200000Y-107400000D02*
X155800000Y-107400000D01*
X155800000Y-108800000D02*
X172200000Y-108800000D01*
X154400000Y-68000000D02*
G75*
G02X154400000Y-66200000I0J900000D01*
G01*
X154400000Y-66200000D02*
X173600000Y-66200000D01*
D11*
X147800000Y-65113558D02*
X147600000Y-66113558D01*
D10*
X173600000Y-110400000D02*
G75*
G02X173600000Y-112200000I0J-900000D01*
G01*
D11*
X147350000Y-67063558D02*
X147200000Y-67363558D01*
D10*
X173600000Y-66200000D02*
G75*
G02X173600000Y-68000000I0J-900000D01*
G01*
D11*
X146550000Y-68063558D02*
X146050000Y-68463558D01*
X147600000Y-66113558D02*
X147500000Y-66613558D01*
X147200000Y-67363558D02*
X146900000Y-67763558D01*
X146900000Y-67763558D02*
X146550000Y-68063558D01*
X147950000Y-64763558D02*
X147800000Y-65113558D01*
D10*
X173600000Y-68000000D02*
X154400000Y-68000000D01*
D11*
X148200000Y-64513558D02*
X147950000Y-64763558D01*
D10*
X154400000Y-110400000D02*
X173600000Y-110400000D01*
X154400000Y-112200000D02*
G75*
G02X154400000Y-110400000I0J900000D01*
G01*
X173600000Y-112200000D02*
X154400000Y-112200000D01*
D11*
X147500000Y-66613558D02*
X147350000Y-67063558D01*
X148900000Y-64263558D02*
X148500000Y-64363558D01*
X148500000Y-64363558D02*
X148200000Y-64513558D01*
X146050000Y-68463558D02*
X145750000Y-68713558D01*
X180675000Y-111336442D02*
X180825000Y-111036442D01*
X182275000Y-109686442D02*
X182525000Y-109286442D01*
X149400000Y-64200000D02*
X148900000Y-64263558D01*
X181975000Y-109936442D02*
X182275000Y-109686442D01*
X182925000Y-107700000D02*
X182825000Y-108436442D01*
X179525000Y-114036442D02*
X179825000Y-113886442D01*
X180075000Y-113636442D02*
X180225000Y-113286442D01*
X145500000Y-109300000D02*
X145300000Y-108800000D01*
X180525000Y-111786442D02*
X180675000Y-111336442D01*
X180825000Y-111036442D02*
X181125000Y-110636442D01*
X145100000Y-70700000D02*
X145200000Y-69950000D01*
X182525000Y-109286442D02*
X182725000Y-108786442D01*
X181125000Y-110636442D02*
X181475000Y-110336442D01*
X145300000Y-69613558D02*
X145200000Y-69950000D01*
X178600000Y-114200000D02*
X179100000Y-114150000D01*
X182725000Y-108786442D02*
X182825000Y-108436442D01*
X181475000Y-110336442D02*
X181975000Y-109936442D01*
X145750000Y-68713558D02*
X145500000Y-69113558D01*
X180425000Y-112286442D02*
X180525000Y-111786442D01*
X145500000Y-69113558D02*
X145300000Y-69613558D01*
X179100000Y-114150000D02*
X179525000Y-114036442D01*
X179825000Y-113886442D02*
X180075000Y-113636442D01*
X180225000Y-113286442D02*
X180425000Y-112286442D01*
X145100000Y-107700000D02*
X145200000Y-108450000D01*
X182725000Y-69600000D02*
X182825000Y-69950000D01*
X147600000Y-112300000D02*
X147500000Y-111800000D01*
X182275000Y-68700000D02*
X182525000Y-69100000D01*
X181475000Y-68050000D02*
X181975000Y-68450000D01*
X147200000Y-111050000D02*
X146900000Y-110650000D01*
X181125000Y-67750000D02*
X181475000Y-68050000D01*
X147800000Y-113300000D02*
X147600000Y-112300000D01*
X180825000Y-67350000D02*
X181125000Y-67750000D01*
X145300000Y-108800000D02*
X145200000Y-108450000D01*
X148500000Y-114050000D02*
X148200000Y-113900000D01*
X148900000Y-114150000D02*
X148500000Y-114050000D01*
X145750000Y-109700000D02*
X145500000Y-109300000D01*
X146050000Y-109950000D02*
X145750000Y-109700000D01*
X146900000Y-110650000D02*
X146550000Y-110350000D01*
X147350000Y-111350000D02*
X147200000Y-111050000D01*
X149400000Y-114200000D02*
X148900000Y-114150000D01*
X181975000Y-68450000D02*
X182275000Y-68700000D01*
X146550000Y-110350000D02*
X146050000Y-109950000D01*
X148200000Y-113900000D02*
X147950000Y-113650000D01*
X147500000Y-111800000D02*
X147350000Y-111350000D01*
X182525000Y-69100000D02*
X182725000Y-69600000D01*
X147950000Y-113650000D02*
X147800000Y-113300000D01*
X179125000Y-64250000D02*
X179525000Y-64350000D01*
X182925000Y-70700000D02*
X182825000Y-69950000D01*
X149400000Y-64200000D02*
X178600000Y-64200000D01*
X178600000Y-64200000D02*
X179125000Y-64250000D01*
X145100000Y-107700000D02*
X145100000Y-70700000D01*
X179525000Y-64350000D02*
X179825000Y-64500000D01*
X180425000Y-66100000D02*
X180525000Y-66600000D01*
X178600000Y-114200000D02*
X149400000Y-114200000D01*
X180225000Y-65100000D02*
X180425000Y-66100000D01*
X180525000Y-66600000D02*
X180675000Y-67050000D01*
X180675000Y-67050000D02*
X180825000Y-67350000D01*
X180075000Y-64750000D02*
X180225000Y-65100000D01*
X182925000Y-70700000D02*
X182925000Y-107700000D01*
X179825000Y-64500000D02*
X180075000Y-64750000D01*
M02*
