G04 #@! TF.GenerationSoftware,KiCad,Pcbnew,(6.0.0-rc1-dev-332-g00d912f0b)*
G04 #@! TF.CreationDate,2018-09-23T23:35:21+02:00*
G04 #@! TF.ProjectId,xilwatch2,78696C7761746368322E6B696361645F,rev?*
G04 #@! TF.SameCoordinates,Original*
G04 #@! TF.FileFunction,Legend,Bot*
G04 #@! TF.FilePolarity,Positive*
%FSLAX46Y46*%
G04 Gerber Fmt 4.6, Leading zero omitted, Abs format (unit mm)*
G04 Created by KiCad (PCBNEW (6.0.0-rc1-dev-332-g00d912f0b)) date 09/23/18 23:35:21*
%MOMM*%
%LPD*%
G01*
G04 APERTURE LIST*
%ADD10C,0.200000*%
%ADD11C,0.120000*%
%ADD12C,0.150000*%
%ADD13C,0.100000*%
G04 APERTURE END LIST*
D10*
X176404499Y-79100000D02*
G75*
G03X176404499Y-79100000I-10004499J0D01*
G01*
D11*
G04 #@! TO.C,L1*
X174200000Y-93100000D02*
X174200000Y-96100000D01*
X177400000Y-93100000D02*
X177400000Y-96100000D01*
D12*
G04 #@! TO.C,M1*
X149995393Y-98494505D02*
G75*
G03X150659856Y-98252660I211309J453154D01*
G01*
X147487779Y-96773496D02*
G75*
G03X147729624Y-97437959I453154J-211309D01*
G01*
X150659856Y-98252660D02*
X152899733Y-93449229D01*
X147729624Y-97437959D02*
X149995393Y-98494505D01*
X147487779Y-96773496D02*
X149727656Y-91970065D01*
X158300000Y-88450000D02*
G75*
G03X158300000Y-88450000I-5000000J0D01*
G01*
D11*
G04 #@! TO.C,R4*
X176390000Y-91162779D02*
X176390000Y-90837221D01*
X177410000Y-91162779D02*
X177410000Y-90837221D01*
G04 #@! TO.C,R3*
X174462779Y-87790000D02*
X174137221Y-87790000D01*
X174462779Y-88810000D02*
X174137221Y-88810000D01*
G04 #@! TO.C,U1*
X154560000Y-70886046D02*
X154560000Y-71816046D01*
X154560000Y-74046046D02*
X154560000Y-73116046D01*
X154560000Y-74046046D02*
X152400000Y-74046046D01*
X154560000Y-70886046D02*
X153100000Y-70886046D01*
G04 #@! TO.C,Q2*
X149720000Y-101740000D02*
X149720000Y-103200000D01*
X152880000Y-101740000D02*
X152880000Y-103900000D01*
X152880000Y-101740000D02*
X151950000Y-101740000D01*
X149720000Y-101740000D02*
X150650000Y-101740000D01*
G04 #@! TO.C,Q1*
X175880000Y-91660000D02*
X174950000Y-91660000D01*
X172720000Y-91660000D02*
X173650000Y-91660000D01*
X172720000Y-91660000D02*
X172720000Y-89500000D01*
X175880000Y-91660000D02*
X175880000Y-90200000D01*
G04 #@! TO.C,D2*
X151150000Y-74600000D02*
X152850000Y-74600000D01*
X152850000Y-74600000D02*
X152850000Y-77150000D01*
X151150000Y-74600000D02*
X151150000Y-77150000D01*
G04 #@! TO.C,D1*
X152300000Y-70516046D02*
X154850000Y-70516046D01*
X152300000Y-68816046D02*
X154850000Y-68816046D01*
X152300000Y-70516046D02*
X152300000Y-68816046D01*
G04 #@! TO.C,D5*
X177950000Y-100400000D02*
X177950000Y-98400000D01*
X177950000Y-98400000D02*
X181850000Y-98400000D01*
X177950000Y-100400000D02*
X181850000Y-100400000D01*
G04 #@! TO.C,D4*
X182450000Y-96000000D02*
X178550000Y-96000000D01*
X182450000Y-98000000D02*
X178550000Y-98000000D01*
X182450000Y-96000000D02*
X182450000Y-98000000D01*
G04 #@! TO.C,D3*
X182450000Y-91900000D02*
X182450000Y-93900000D01*
X182450000Y-93900000D02*
X178550000Y-93900000D01*
X182450000Y-91900000D02*
X178550000Y-91900000D01*
G04 #@! TO.C,J1*
X149862500Y-78500000D02*
X149862500Y-78050000D01*
X148012500Y-78500000D02*
X149862500Y-78500000D01*
X145462500Y-70700000D02*
X145712500Y-70700000D01*
X145462500Y-78500000D02*
X145712500Y-78500000D01*
X148012500Y-70700000D02*
X149862500Y-70700000D01*
X149862500Y-70700000D02*
X149862500Y-71150000D01*
X150412500Y-76300000D02*
X150412500Y-75850000D01*
X150412500Y-76300000D02*
X149962500Y-76300000D01*
G04 #@! TO.C,C8*
X164690000Y-90837221D02*
X164690000Y-91162779D01*
X165710000Y-90837221D02*
X165710000Y-91162779D01*
G04 #@! TO.C,C10*
X160910000Y-90837221D02*
X160910000Y-91162779D01*
X159890000Y-90837221D02*
X159890000Y-91162779D01*
G04 #@! TO.C,C1*
X150037221Y-69410000D02*
X150362779Y-69410000D01*
X150037221Y-68390000D02*
X150362779Y-68390000D01*
G04 #@! TO.C,C2*
X150362779Y-67810000D02*
X150037221Y-67810000D01*
X150362779Y-66790000D02*
X150037221Y-66790000D01*
G04 #@! TO.C,C3*
X175962779Y-96790000D02*
X175637221Y-96790000D01*
X175962779Y-97810000D02*
X175637221Y-97810000D01*
G04 #@! TO.C,C7*
X180037221Y-95410000D02*
X180362779Y-95410000D01*
X180037221Y-94390000D02*
X180362779Y-94390000D01*
G04 #@! TO.C,C11*
X176262779Y-104410000D02*
X175937221Y-104410000D01*
X176262779Y-103390000D02*
X175937221Y-103390000D01*
G04 #@! TO.C,C12*
X166490000Y-90837221D02*
X166490000Y-91162779D01*
X167510000Y-90837221D02*
X167510000Y-91162779D01*
G04 #@! TO.C,C13*
X176262779Y-102910000D02*
X175937221Y-102910000D01*
X176262779Y-101890000D02*
X175937221Y-101890000D01*
G04 #@! TO.C,C14*
X176262779Y-100390000D02*
X175937221Y-100390000D01*
X176262779Y-101410000D02*
X175937221Y-101410000D01*
G04 #@! TO.C,C15*
X176262779Y-99910000D02*
X175937221Y-99910000D01*
X176262779Y-98890000D02*
X175937221Y-98890000D01*
G04 #@! TO.C,C16*
X168290000Y-90837221D02*
X168290000Y-91162779D01*
X169310000Y-90837221D02*
X169310000Y-91162779D01*
G04 #@! TO.C,C17*
X171110000Y-90837221D02*
X171110000Y-91162779D01*
X170090000Y-90837221D02*
X170090000Y-91162779D01*
G04 #@! TO.C,C18*
X154460000Y-102912779D02*
X154460000Y-102587221D01*
X153440000Y-102912779D02*
X153440000Y-102587221D01*
G04 #@! TO.C,C9*
X159210000Y-90837221D02*
X159210000Y-91162779D01*
X158190000Y-90837221D02*
X158190000Y-91162779D01*
D12*
G04 #@! TO.C,SW4*
X147675000Y-102550000D02*
X147675000Y-104950000D01*
X147675000Y-101400000D02*
X147675000Y-101600000D01*
X147675000Y-106100000D02*
X146625000Y-106100000D01*
X147675000Y-101400000D02*
X146625000Y-101400000D01*
X145425000Y-105150000D02*
X145425000Y-102350000D01*
X147675000Y-105900000D02*
X147675000Y-106100000D01*
G04 #@! TO.C,SW3*
X180325000Y-86600000D02*
X180325000Y-86400000D01*
X182575000Y-87350000D02*
X182575000Y-90150000D01*
X180325000Y-91100000D02*
X181375000Y-91100000D01*
X180325000Y-86400000D02*
X181375000Y-86400000D01*
X180325000Y-91100000D02*
X180325000Y-90900000D01*
X180325000Y-89950000D02*
X180325000Y-87550000D01*
G04 #@! TO.C,SW2*
X180275000Y-104950000D02*
X180275000Y-102550000D01*
X180275000Y-106100000D02*
X180275000Y-105900000D01*
X180275000Y-101400000D02*
X181325000Y-101400000D01*
X180275000Y-106100000D02*
X181325000Y-106100000D01*
X182525000Y-102350000D02*
X182525000Y-105150000D01*
X180275000Y-101600000D02*
X180275000Y-101400000D01*
G04 #@! TO.C,SW1*
X180325000Y-71550000D02*
X180325000Y-71350000D01*
X182575000Y-72300000D02*
X182575000Y-75100000D01*
X180325000Y-76050000D02*
X181375000Y-76050000D01*
X180325000Y-71350000D02*
X181375000Y-71350000D01*
X180325000Y-76050000D02*
X180325000Y-75850000D01*
X180325000Y-74900000D02*
X180325000Y-72500000D01*
G04 #@! TO.C,BT1*
X155850000Y-83550000D02*
X159050000Y-86350000D01*
X176949862Y-83550000D02*
X173750000Y-86350000D01*
X155850000Y-83550000D02*
X155850000Y-81450000D01*
X162767334Y-71558025D02*
G75*
G03X166400000Y-73100000I3632666J3508025D01*
G01*
X155850000Y-74250000D02*
X158950000Y-71450000D01*
X162701305Y-71493872D02*
G75*
G03X158950000Y-71455000I-1901305J-2456128D01*
G01*
X176950000Y-83550000D02*
X176950000Y-81450000D01*
X159050000Y-86350000D02*
X173750000Y-86350000D01*
X170032666Y-71558025D02*
G75*
G02X166400000Y-73100000I-3632666J3508025D01*
G01*
X170098695Y-71493872D02*
G75*
G02X173850000Y-71455000I1901305J-2456128D01*
G01*
X176950000Y-74250000D02*
X173850000Y-71450000D01*
X176950000Y-76150000D02*
X176950000Y-74250000D01*
X155850000Y-76150000D02*
X155850000Y-74250000D01*
G04 #@! TO.C,U6*
X173200000Y-98950000D02*
X155200000Y-98950000D01*
X173200000Y-97950000D02*
X173200000Y-98950000D01*
X172500000Y-97950000D02*
X173200000Y-97950000D01*
X172500000Y-97600000D02*
X172500000Y-97950000D01*
X172500000Y-94150000D02*
X172500000Y-94400000D01*
X170300000Y-94150000D02*
X172500000Y-94150000D01*
X170300000Y-93150000D02*
X170300000Y-94150000D01*
X155900000Y-94150000D02*
X158150000Y-94150000D01*
X155900000Y-94450000D02*
X155900000Y-94150000D01*
X155900000Y-97950000D02*
X155900000Y-97650000D01*
X155200000Y-97950000D02*
X155900000Y-97950000D01*
X155200000Y-98950000D02*
X155200000Y-97950000D01*
G04 #@! TO.C,X1*
D13*
X180450000Y-67383333D02*
X180350000Y-67416666D01*
X180183333Y-67416666D01*
X180116666Y-67383333D01*
X180083333Y-67350000D01*
X180050000Y-67283333D01*
X180050000Y-67216666D01*
X180083333Y-67150000D01*
X180116666Y-67116666D01*
X180183333Y-67083333D01*
X180316666Y-67050000D01*
X180383333Y-67016666D01*
X180416666Y-66983333D01*
X180450000Y-66916666D01*
X180450000Y-66850000D01*
X180416666Y-66783333D01*
X180383333Y-66750000D01*
X180316666Y-66716666D01*
X180150000Y-66716666D01*
X180050000Y-66750000D01*
X179750000Y-67416666D02*
X179750000Y-66716666D01*
X179583333Y-66716666D01*
X179483333Y-66750000D01*
X179416666Y-66816666D01*
X179383333Y-66883333D01*
X179350000Y-67016666D01*
X179350000Y-67116666D01*
X179383333Y-67250000D01*
X179416666Y-67316666D01*
X179483333Y-67383333D01*
X179583333Y-67416666D01*
X179750000Y-67416666D01*
X179083333Y-67216666D02*
X178750000Y-67216666D01*
X179150000Y-67416666D02*
X178916666Y-66716666D01*
X178683333Y-67416666D01*
X180573333Y-69973333D02*
X180473333Y-70006666D01*
X180306666Y-70006666D01*
X180240000Y-69973333D01*
X180206666Y-69940000D01*
X180173333Y-69873333D01*
X180173333Y-69806666D01*
X180206666Y-69740000D01*
X180240000Y-69706666D01*
X180306666Y-69673333D01*
X180440000Y-69640000D01*
X180506666Y-69606666D01*
X180540000Y-69573333D01*
X180573333Y-69506666D01*
X180573333Y-69440000D01*
X180540000Y-69373333D01*
X180506666Y-69340000D01*
X180440000Y-69306666D01*
X180273333Y-69306666D01*
X180173333Y-69340000D01*
X179473333Y-69940000D02*
X179506666Y-69973333D01*
X179606666Y-70006666D01*
X179673333Y-70006666D01*
X179773333Y-69973333D01*
X179840000Y-69906666D01*
X179873333Y-69840000D01*
X179906666Y-69706666D01*
X179906666Y-69606666D01*
X179873333Y-69473333D01*
X179840000Y-69406666D01*
X179773333Y-69340000D01*
X179673333Y-69306666D01*
X179606666Y-69306666D01*
X179506666Y-69340000D01*
X179473333Y-69373333D01*
X178840000Y-70006666D02*
X179173333Y-70006666D01*
X179173333Y-69306666D01*
X175193333Y-69340000D02*
X175260000Y-69306666D01*
X175360000Y-69306666D01*
X175460000Y-69340000D01*
X175526666Y-69406666D01*
X175560000Y-69473333D01*
X175593333Y-69606666D01*
X175593333Y-69706666D01*
X175560000Y-69840000D01*
X175526666Y-69906666D01*
X175460000Y-69973333D01*
X175360000Y-70006666D01*
X175293333Y-70006666D01*
X175193333Y-69973333D01*
X175160000Y-69940000D01*
X175160000Y-69706666D01*
X175293333Y-69706666D01*
X174860000Y-70006666D02*
X174860000Y-69306666D01*
X174460000Y-70006666D01*
X174460000Y-69306666D01*
X174126666Y-70006666D02*
X174126666Y-69306666D01*
X173960000Y-69306666D01*
X173860000Y-69340000D01*
X173793333Y-69406666D01*
X173760000Y-69473333D01*
X173726666Y-69606666D01*
X173726666Y-69706666D01*
X173760000Y-69840000D01*
X173793333Y-69906666D01*
X173860000Y-69973333D01*
X173960000Y-70006666D01*
X174126666Y-70006666D01*
X174933333Y-64716666D02*
X174700000Y-65416666D01*
X174466666Y-64716666D01*
X173833333Y-65350000D02*
X173866666Y-65383333D01*
X173966666Y-65416666D01*
X174033333Y-65416666D01*
X174133333Y-65383333D01*
X174200000Y-65316666D01*
X174233333Y-65250000D01*
X174266666Y-65116666D01*
X174266666Y-65016666D01*
X174233333Y-64883333D01*
X174200000Y-64816666D01*
X174133333Y-64750000D01*
X174033333Y-64716666D01*
X173966666Y-64716666D01*
X173866666Y-64750000D01*
X173833333Y-64783333D01*
X173133333Y-65350000D02*
X173166666Y-65383333D01*
X173266666Y-65416666D01*
X173333333Y-65416666D01*
X173433333Y-65383333D01*
X173500000Y-65316666D01*
X173533333Y-65250000D01*
X173566666Y-65116666D01*
X173566666Y-65016666D01*
X173533333Y-64883333D01*
X173500000Y-64816666D01*
X173433333Y-64750000D01*
X173333333Y-64716666D01*
X173266666Y-64716666D01*
X173166666Y-64750000D01*
X173133333Y-64783333D01*
G04 #@! TD*
M02*
